<svg width="2784" height="1844" viewBox="0 0 2784 1844" fill="none" xmlns="http://www.w3.org/2000/svg">
<path d="M2382.62 1555.29L2773.94 408.703C2812.96 294.526 2733.58 173.802 2619.61 173.802H1994.18C1925.18 173.802 1863.48 219.82 1839.84 288.942L1448.52 1435.53C1409.5 1549.71 1488.88 1670.43 1602.86 1670.43H2228.28C2297.28 1670.43 2358.98 1624.41 2382.62 1555.29Z" fill="#76ADE5"/>
<path d="M1726.23 142.42L2208.27 1554.52C2256.32 1695.08 2158.69 1843.72 2018.19 1843.72H1247.84C1162.89 1843.72 1086.97 1787.11 1057.75 1701.82L575.707 289.715C527.657 149.159 625.296 0.516663 765.795 0.516663H1536.14C1621.1 0.516663 1697.02 57.124 1726.23 142.42Z" fill="#040A4F"/>
<path d="M944.159 1555.29L1335.48 408.703C1374.5 294.526 1295.12 173.802 1181.14 173.802H555.718C486.717 173.802 425.021 219.82 401.38 288.942L10.0555 1435.53C-28.9616 1549.71 50.4185 1670.43 164.394 1670.43H789.82C858.821 1670.43 920.518 1624.41 944.159 1555.29Z" fill="#3649DB"/>
</svg>
