<?xml version="1.0" encoding="UTF-8"?><svg id="a" xmlns="http://www.w3.org/2000/svg" xmlns:xlink="http://www.w3.org/1999/xlink" viewBox="0 0 1140 759"><defs><clipPath id="b"><rect width="1140" height="758.59" style="fill:none; stroke-width:0px;"/></clipPath></defs><g style="clip-path:url(#b);"><path d="M952.44,1023.42l164.27-481.32c16.38-47.93-16.94-98.61-64.79-98.61h-262.54c-28.97,0-54.86,19.32-64.79,48.33l-164.27,481.32c-16.38,47.93,16.94,98.61,64.79,98.61h262.55c28.97,0,54.86-19.32,64.79-48.33Z" style="fill:#76ade5; stroke-width:0px;"/><path d="M676.89,430.31l202.36,592.78c20.17,59.01-20.82,121.4-79.8,121.4h-323.38c-35.66,0-67.53-23.76-79.8-59.56L193.92,492.15c-20.17-59,20.82-121.4,79.8-121.4h323.38c35.66,0,67.53,23.76,79.8,59.57Z" style="fill:#040a4f; stroke-width:0px;"/><path d="M348.59,1023.42l164.27-481.32c16.38-47.93-16.94-98.61-64.79-98.61H185.52c-28.97,0-54.86,19.32-64.79,48.33L-43.54,973.14c-16.38,47.93,16.94,98.61,64.79,98.61h262.55c28.97,0,54.87-19.32,64.79-48.33Z" style="fill:#3649db; stroke-width:0px;"/><path d="M844.52,445.37c-2.77.55-5.47,1.48-8.05,2.79l-8.54-9.49-10.39,9.37,8.19,9.09c-1.89,2.48-3.38,5.2-4.43,8.05l-14.27-.73-.73,13.97,13.17.69c.37,3.92,1.44,7.76,3.27,11.36l-9.49,8.56,9.37,10.39,9.09-8.19c2.97,2.26,6.24,3.9,9.68,4.98l-.61,11.85,13.97.73.59-11.45c4.11-.59,8.13-2.01,11.81-4.27l8.17,9.09,10.39-9.37-8.56-9.49c1.57-2.42,2.77-5.02,3.62-7.7l13.5.71.73-13.97-13.09-.67c-.59-4.11-2.01-8.13-4.27-11.81l9.09-8.17-9.37-10.39-9.49,8.54c-2.91-1.89-6.06-3.27-9.33-4.09l.69-13.09-13.97-.73-.69,13.5-.04-.04ZM860.28,467.61c4.74,5.25,4.31,13.38-.93,18.11s-13.38,4.31-18.11-.93c-4.74-5.24-4.31-13.38.94-18.11,5.24-4.74,13.38-4.31,18.11.94Z" style="fill:#040a4f; stroke-width:0px;"/><path d="M226.23,165.42c-2.76.55-5.47,1.48-8.05,2.79l-8.54-9.49-10.39,9.37,8.19,9.09c-1.89,2.48-3.37,5.2-4.43,8.05l-14.27-.73-.73,13.97,13.17.69c.37,3.92,1.44,7.77,3.27,11.36l-9.49,8.56,9.37,10.39,9.09-8.19c2.97,2.26,6.24,3.9,9.68,4.98l-.61,11.85,13.97.73.59-11.45c4.11-.59,8.13-2.01,11.81-4.27l8.17,9.09,10.39-9.37-8.56-9.49c1.57-2.42,2.77-5.02,3.62-7.71l13.5.71.73-13.97-13.09-.67c-.59-4.11-2.01-8.13-4.27-11.81l9.09-8.17-9.37-10.39-9.49,8.54c-2.91-1.89-6.06-3.27-9.33-4.11l.69-13.09-13.97-.73-.69,13.5-.04-.02ZM241.98,187.66c4.74,5.24,4.31,13.38-.93,18.11-5.25,4.74-13.38,4.31-18.11-.93-4.74-5.24-4.31-13.38.93-18.11,5.24-4.74,13.38-4.31,18.11.93Z" style="fill:#76ade5; stroke-width:0px;"/><path d="M803,374.13c-1.51.3-2.99.81-4.39,1.52l-4.68-5.18-5.67,5.12,4.47,4.96c-1.04,1.36-1.85,2.85-2.42,4.39l-7.81-.41-.41,7.64,7.2.37c.2,2.13.79,4.25,1.79,6.22l-5.18,4.68,5.12,5.67,4.96-4.47c1.63,1.24,3.41,2.14,5.29,2.72l-.35,6.46,7.64.39.33-6.26c2.26-.33,4.45-1.1,6.44-2.34l4.47,4.96,5.67-5.12-4.68-5.18c.85-1.32,1.53-2.74,1.97-4.21l7.38.39.41-7.64-7.16-.37c-.32-2.26-1.1-4.45-2.34-6.45l4.96-4.47-5.12-5.67-5.18,4.68c-1.59-1.04-3.31-1.79-5.1-2.24l.37-7.16-7.64-.41-.39,7.38.04.02ZM811.6,386.28c2.58,2.87,2.36,7.32-.51,9.9-2.87,2.58-7.32,2.36-9.9-.51-2.58-2.87-2.36-7.32.51-9.9,2.87-2.58,7.32-2.36,9.9.51Z" style="fill:#76ade5; stroke-width:0px;"/><path d="M374.97,548.97c-1.51.3-2.99.81-4.39,1.53l-4.68-5.18-5.67,5.12,4.47,4.96c-1.04,1.36-1.85,2.85-2.42,4.39l-7.81-.41-.41,7.64,7.2.37c.2,2.13.79,4.25,1.79,6.22l-5.18,4.68,5.12,5.67,4.96-4.47c1.63,1.24,3.42,2.13,5.29,2.72l-.35,6.49,7.64.39.32-6.26c2.26-.33,4.45-1.1,6.44-2.34l4.47,4.96,5.67-5.12-4.68-5.18c.85-1.32,1.52-2.74,1.97-4.21l7.38.39.41-7.64-7.16-.37c-.33-2.26-1.1-4.45-2.34-6.44l4.96-4.47-5.12-5.67-5.18,4.68c-1.59-1.04-3.31-1.79-5.1-2.24l.37-7.16-7.64-.41-.39,7.38h.04ZM383.57,561.13c2.58,2.87,2.36,7.32-.51,9.9-2.87,2.58-7.32,2.36-9.9-.51-2.58-2.87-2.36-7.32.51-9.9,2.87-2.58,7.32-2.36,9.9.51Z" style="fill:#76ade5; stroke-width:0px;"/><path d="M882.96,325.26c0,6.63-5.41,12.03-12.03,12.03s-12.04-5.41-12.04-12.03,5.41-12.04,12.04-12.04,12.03,5.41,12.03,12.04ZM879.18,325.26c0-4.55-3.7-8.25-8.25-8.25s-8.25,3.7-8.25,8.25,3.7,8.25,8.25,8.25,8.25-3.7,8.25-8.25Z" style="fill:#3649db; stroke-width:0px;"/><path d="M882.96,238.86c0,6.63-5.41,12.04-12.03,12.04s-12.04-5.41-12.04-12.04,5.41-12.03,12.04-12.03,12.03,5.41,12.03,12.03ZM879.18,238.86c0-4.55-3.7-8.25-8.25-8.25s-8.25,3.7-8.25,8.25,3.7,8.25,8.25,8.25,8.25-3.7,8.25-8.25Z" style="fill:#76ade5; stroke-width:0px;"/><path d="M828.15,139.22c-1.04,0-1.89.85-1.89,1.89v8.34c0,1.04.85,1.89,1.89,1.89s1.89-.85,1.89-1.89v-8.34c0-1.04-.85-1.89-1.89-1.89Z" style="fill:#3649db; stroke-width:0px;"/><path d="M828.15,124.66c-1.04,0-1.89.85-1.89,1.89v8.33c0,1.04.85,1.89,1.89,1.89s1.89-.85,1.89-1.89v-8.33c0-1.04-.85-1.89-1.89-1.89Z" style="fill:#3649db; stroke-width:0px;"/><path d="M839.82,136.11h-7.48c-1.04,0-1.89.85-1.89,1.89s.85,1.89,1.89,1.89h7.48c1.04,0,1.89-.85,1.89-1.89s-.85-1.89-1.89-1.89Z" style="fill:#3649db; stroke-width:0px;"/><path d="M823.94,136.11h-7.48c-1.04,0-1.89.85-1.89,1.89s.85,1.89,1.89,1.89h7.48c1.04,0,1.89-.85,1.89-1.89s-.85-1.89-1.89-1.89Z" style="fill:#3649db; stroke-width:0px;"/><path d="M356.63,128.81c-6.63,0-12.04-5.41-12.04-12.04s5.41-12.04,12.04-12.04,12.04,5.41,12.04,12.04-5.41,12.04-12.04,12.04ZM356.63,125.03c4.55,0,8.25-3.7,8.25-8.25s-3.7-8.25-8.25-8.25-8.25,3.7-8.25,8.25,3.7,8.25,8.25,8.25Z" style="fill:#76ade5; stroke-width:0px;"/><path d="M394.41,48.1c0-1.04-.85-1.89-1.89-1.89h-8.34c-1.04,0-1.89.85-1.89,1.89s.85,1.89,1.89,1.89h8.34c1.04,0,1.89-.85,1.89-1.89Z" style="fill:#040a4f; stroke-width:0px;"/><path d="M408.99,48.1c0-1.04-.85-1.89-1.89-1.89h-8.32c-1.04,0-1.89.85-1.89,1.89s.85,1.89,1.89,1.89h8.32c1.04,0,1.89-.85,1.89-1.89Z" style="fill:#040a4f; stroke-width:0px;"/><path d="M397.54,59.79v-7.48c0-1.04-.85-1.89-1.89-1.89s-1.89.85-1.89,1.89v7.48c0,1.04.85,1.89,1.89,1.89s1.89-.85,1.89-1.89Z" style="fill:#040a4f; stroke-width:0px;"/><path d="M397.54,43.89v-7.48c0-1.04-.85-1.89-1.89-1.89s-1.89.85-1.89,1.89v7.48c0,1.04.85,1.89,1.89,1.89s1.89-.85,1.89-1.89Z" style="fill:#040a4f; stroke-width:0px;"/><path d="M325.72,177.73c0-1.04-.85-1.89-1.89-1.89h-8.31c-1.04,0-1.89.85-1.89,1.89s.85,1.89,1.89,1.89h8.31c1.04,0,1.89-.85,1.89-1.89Z" style="fill:#3649db; stroke-width:0px;"/><path d="M340.3,177.73c0-1.04-.85-1.89-1.89-1.89h-8.32c-1.04,0-1.89.85-1.89,1.89s.85,1.89,1.89,1.89h8.32c1.04,0,1.89-.85,1.89-1.89Z" style="fill:#3649db; stroke-width:0px;"/><path d="M328.83,189.42v-7.48c0-1.04-.85-1.89-1.89-1.89s-1.89.85-1.89,1.89v7.48c0,1.04.85,1.89,1.89,1.89s1.89-.85,1.89-1.89Z" style="fill:#3649db; stroke-width:0px;"/><path d="M328.83,173.54v-7.48c0-1.04-.85-1.89-1.89-1.89s-1.89.85-1.89,1.89v7.48c0,1.04.85,1.89,1.89,1.89s1.89-.85,1.89-1.89Z" style="fill:#3649db; stroke-width:0px;"/><path d="M792.46,110.12v580.05c0,18.17-14.74,32.91-32.91,32.91h-288.86c-9.13,0-17.4-3.72-23.36-9.72-5.92-5.96-9.55-14.15-9.55-23.2V110.12c0-18.17,14.74-32.91,32.91-32.91h288.86c5.37,0,10.45,1.28,14.94,3.58,10.67,5.45,17.99,16.53,17.99,29.33h-.02Z" style="fill:#3649db; stroke-width:0px;"/><path d="M780.2,110.12v580.05c0,18.17-14.74,32.91-32.91,32.91h-288.86c-9.13,0-17.4-3.72-23.36-9.72-5.92-5.96-9.55-14.15-9.55-23.2V110.12c0-18.17,14.74-32.91,32.91-32.91h288.86c5.37,0,10.45,1.28,14.94,3.58,10.67,5.45,17.99,16.53,17.99,29.33h-.02Z" style="fill:#040a4f; stroke-width:0px;"/><path d="M786.44,219.86h4.55c4.25,0,7.68-3.43,7.68-7.68v-37c0-4.25-3.43-7.68-7.68-7.68h-4.55v52.39-.02Z" style="fill:#040a4f; stroke-width:0px;"/><path d="M425.49,219.86h-3.58c-3.33,0-6.04-2.7-6.04-6.04v-40.33c0-3.33,2.7-6.04,6.02-6.04h3.58v52.39l.02.02Z" style="fill:#18285d; stroke-width:0px;"/><path d="M425.49,288.59h-3.58c-3.33,0-6.04-2.7-6.04-6.04v-40.33c0-3.33,2.7-6.04,6.04-6.04h3.58v52.41Z" style="fill:#1c2589; stroke-width:0px;"/><path d="M763.77,108.11v584.04c0,8.03-6.51,14.49-14.49,14.49h-292.84c-6,0-11.14-3.62-13.36-8.82-.73-1.75-1.16-3.66-1.16-5.67V108.11c0-8.01,6.48-14.49,14.49-14.49h292.84c.96,0,1.89.08,2.79.26,1.02.2,1.99.49,2.93.89,4.47,1.93,7.79,6.04,8.6,10.96.14.77.2,1.56.2,2.38Z" style="fill:#fff; stroke-width:0px;"/><path d="M589.35,273.77h-146.51v259.26h146.51v-259.26Z" style="fill:#e9e2e8; stroke-width:0px;"/><path d="M635.03,253.59v269.4c0,12.44-8.13,23.05-19.35,26.82-2.8.93-5.79,1.44-8.9,1.44-15.55,0-28.26-12.71-28.26-28.26V253.59c0-15.55,12.71-28.26,28.26-28.26,3.11,0,6.1.51,8.9,1.44,4.21,1.4,7.99,3.78,11.06,6.85,5.12,5.12,8.29,12.18,8.29,19.96Z" style="fill:#040a4f; stroke-width:0px;"/><path d="M635.03,253.59v269.4c0,12.44-8.13,23.05-19.35,26.82-11.22-3.74-19.35-14.37-19.35-26.82V253.59c0-12.44,8.13-23.05,19.35-26.81,4.21,1.4,7.99,3.78,11.06,6.85,5.12,5.12,8.29,12.18,8.29,19.96Z" style="fill:#1c2589; stroke-width:0px;"/><path d="M763.77,108.11v60.05h-321.85v-60.05c0-8.01,6.48-14.49,14.49-14.49h292.84c.96,0,1.89.08,2.79.26,1.02.2,1.99.49,2.93.89,4.47,1.93,7.79,6.04,8.6,10.96.14.77.2,1.56.2,2.38Z" style="fill:#e9e2e8; stroke-width:0px;"/><path d="M433.69,170.2l-.1.1v20.09c0,8.33-3.35,15.88-8.82,21.35-5.47,5.47-13.01,8.84-21.35,8.84-15.53,0-28.32-11.73-29.98-26.82-.12-1.1-.18-2.24-.18-3.37v-19.68l73.69-73.69c2.15-2.15,5.1-3.37,8.15-3.37h53.91l-75.32,76.58v-.02Z" style="fill:#3649db; stroke-width:0px;"/><path d="M433.61,170.3v20.09c0,8.33-3.35,15.88-8.82,21.35-5.47,5.47-13.01,8.84-21.35,8.84-15.53,0-28.32-11.73-29.99-26.81l-.18-23.05,60.46-.51-.1.1h-.02Z" style="fill:#005ec9; stroke-width:0px;"/><path d="M629.76,93.61l-75.4,75.4v21.35c0,8.34-3.38,15.88-8.84,21.35-5.47,5.47-13.01,8.84-21.35,8.84-16.67,0-30.19-13.52-30.19-30.19v-20.67l75.38-76.07h60.4Z" style="fill:#3649db; stroke-width:0px;"/><path d="M554.36,169.2v21.18c0,8.33-3.38,15.88-8.84,21.35-5.47,5.47-13.01,8.84-21.35,8.84-16.67,0-30.19-13.52-30.19-30.19v-20.68l60.38-.49v-.02Z" style="fill:#005ec9; stroke-width:0px;"/><path d="M676.88,168.18v22.2c0,8.33-3.35,15.88-8.82,21.35-5.47,5.47-13.01,8.84-21.35,8.84-16.67,0-32.02-13.52-32.02-30.19l.12-21.35.33-.32,74.95-75.08h62.21l-75.42,74.57v-.02Z" style="fill:#3649db; stroke-width:0px;"/><path d="M676.91,190.38c0,8.33-3.38,15.88-8.84,21.35-5.47,5.47-13.01,8.84-21.35,8.84-16.67,0-32.02-13.52-32.02-30.19l.12-21.35.33-.32,61.74-.51v22.2l.02-.02Z" style="fill:#005ec9; stroke-width:0px;"/><path d="M737.24,167.67v22.69c0,8.34-3.37,15.88-8.84,21.35-5.45,5.47-13.01,8.84-21.35,8.84-16.67,0-30.19-13.52-30.19-30.19v-22.2l75.16-74.3c1.02.2,1.99.49,2.93.89,4.47,1.93,7.79,6.04,8.6,10.96.14.77.2,1.57.2,2.38v33.52l-26.51,26.04v.02Z" style="fill:#fff; stroke-width:0px;"/><path d="M737.26,190.38c0,8.33-3.37,15.88-8.84,21.35-5.47,5.47-13.01,8.84-21.35,8.84-16.67,0-30.19-13.52-30.19-30.19v-22.2l60.36-.49v22.69h.02Z" style="fill:#e9e2e8; stroke-width:0px;"/><path d="M569.36,93.61l-75.4,76.07v20.67c0,8.34-3.38,15.88-8.84,21.35-5.47,5.47-13.01,8.84-21.35,8.84-16.67,0-30.19-13.52-30.19-30.19v-20.08l.1-.1,75.32-76.58h60.36v.02Z" style="fill:#fff; stroke-width:0px;"/><path d="M493.96,169.69v20.68c0,8.33-3.38,15.88-8.84,21.35-5.47,5.47-13.01,8.84-21.35,8.84-16.67,0-30.19-13.52-30.19-30.19v-20.09l.1-.1,60.28-.49Z" style="fill:#e9e2e8; stroke-width:0px;"/><path d="M690.1,93.61l-75.4,75.4v21.35c0,8.34-3.38,15.88-8.84,21.35-5.47,5.47-13.01,8.84-21.35,8.84-16.67,0-30.19-13.52-30.19-30.19v-21.35l75.42-75.4h60.36Z" style="fill:#fff; stroke-width:0px;"/><path d="M615.02,168.69l-.32.33v21.35c0,8.34-3.38,15.88-8.84,21.35-5.47,5.47-13.01,8.84-21.35,8.84-16.67,0-30.19-13.52-30.19-30.19v-21.18l60.7-.51v.02Z" style="fill:#e9e2e8; stroke-width:0px;"/><path d="M513.09,620.01l8.17,15.25c.52.99,1.3,2.34,1.67,2.71v-17.96h8.85v26.49c2.97-.26,6.04-1.51,7.86-3.65l2.81,5.67c-2.76,3.12-6.72,4.79-11.87,4.79-5.62,0-9.58-2.5-12.39-7.76l-6.35-11.92v19.15h-8.85v-32.78h10.1,0Z" style="fill:#3649db; stroke-width:0px;"/><path d="M546.51,626.98v15.98c0,2.39.78,3.65,2.24,3.65,3.49,0,7.18-10.05,5.21-19.63h8.43c1.25.78,2.66,1.2,4.17,1.2,1.3,0,2.65-.31,4.01-1.04l1.93,5.67c-2.08.99-4.01,1.4-5.72,1.4-1.35,0-2.6-.26-3.7-.68.37,12.6-6.4,19.78-17.28,19.78-5.05,0-7.7-3.49-7.7-8.38v-17.96h8.43Z" style="fill:#3649db; stroke-width:0px;"/><path d="M580.97,626.47c3.17,0,6.2.78,8.59,2.39.83.1,1.61.16,2.45.16,2.6,0,5.15-.57,7.91-2.03l2.76,5.21c-2.6,1.67-5.62,2.39-8.75,2.5.57,1.46.89,3.23.89,5.21,0,9.37-6.56,13.43-13.85,13.43s-13.9-4.06-13.9-13.43,6.61-13.43,13.9-13.43ZM575.51,639.84c0,4.89,2.29,7.23,5.46,7.23s5.42-2.34,5.42-7.23-2.24-7.13-5.42-7.13-5.46,2.24-5.46,7.13Z" style="fill:#3649db; stroke-width:0px;"/><path d="M604.19,616c2.55,0,4.63,1.35,4.63,4.11s-2.08,4.16-4.63,4.16-4.68-1.35-4.68-4.16,2.09-4.11,4.68-4.11ZM608.2,626.98v16.71c0,1.67.41,2.6,1.61,2.76,1.56.31,3.38-1.4,4.74-3.23l2.97,5.05c-2.18,2.92-4.58,5.05-8.85,5.05-6.09,0-8.9-3.38-8.9-7.34v-19h8.43,0Z" style="fill:#3649db; stroke-width:0px;"/><path d="M626.05,626.47c6.98,0,10.98,3.7,11.14,10.15l-7.92,1.4c.16-3.33-.99-5.31-3.17-5.31-2.87,0-4.48,2.03-4.48,6.14,0,5.78,3.12,8.22,8.54,8.22,4.68,0,8.75-1.15,12.13-4.27l3.59,4.37c-4.06,4.37-9.06,6.14-16.35,6.14-9.84,0-16.35-5.1-16.35-14.16s6.04-12.7,12.86-12.7Z" style="fill:#3649db; stroke-width:0px;"/><path d="M640.63,639.17c0-8.75,6.04-12.7,12.81-12.7s11.19,3.12,11.19,8.79c0,6.51-6.2,8.85-14.21,9.27,1.25,1.98,3.59,2.97,6.77,2.97,5.1,0,8.75-1.72,12.39-4.48l3.7,4.06c-4.32,4.01-9,6.25-16.29,6.25-9.99,0-16.35-5.21-16.35-14.16ZM656.87,635.42c0-1.67-1.15-2.71-3.28-2.71-2.55,0-4.32,1.98-4.53,5.99,0,.31,0,.57.05.78,4.84-.57,7.76-1.56,7.76-4.06Z" style="fill:#3649db; stroke-width:0px;"/><path d="M684.4,641.98c2.6,2.76,5.57,4.58,8.28,4.58s5.62-1.88,6.71-3.59l3.02,5.26c-2.03,2.92-5.52,5.1-9.78,5.1-5.93,0-11.25-3.33-15.31-7.86-.99,1.93-1.2,4.32-.73,7.34h-8.12c-1.46-6.56,0-10.98,4.53-13.33-2.45-4.32-3.85-8.85-4.01-12.49h8.43c.26,3.23,1.35,6.56,3.02,9.53,2.24-2.66,3.44-5.41,4.01-9.53h8.49c-.99,6.45-3.59,11.5-8.54,14.99Z" style="fill:#3649db; stroke-width:0px;"/><path d="M815.88,286.46v60.34c0,3.84-3.13,6.95-6.95,6.95h-60.34c-3.46,0-8.86-2.44-11.3-8.01-.12-.24-.24-.47-.3-.71-.12-.36-.24-.71-.37-1.1,0-.04-.02-.08-.02-.12,0,0,0-.01-.02-.04v-.12l-.12-47.61v-13.95c0-3.62,2.74-6.55,6.22-6.93.24,0,.51-.02.73-.02l61.56.24c.28,0,.57.02.83.08h.02c6.2.69,10.06,7.34,10.06,11.02v-.02Z" style="fill:#023e82; stroke-width:0px;"/><path d="M810.69,282.11v60.32c0,3.86-3.13,6.95-6.95,6.95h-60.34c-2.64,0-4.94-1.46-6.12-3.62-.12-.24-.24-.47-.3-.71-.12-.37-.24-.71-.37-1.1,0-.04-.02-.08-.02-.12s-.02-.12-.02-.16c-.08-.41-.12-.81-.12-1.24v-60.32c0-3.62,2.74-6.55,6.22-6.93.24,0,.51-.02.73-.02h60.34c.71,0,1.4.1,2.05.31h.02c2.85.87,4.88,3.5,4.88,6.65Z" style="fill:#3649db; stroke-width:0px;"/><path d="M777.98,332.73l-.04,6.02-7.64-.06.04-5.75c-5.41-.36-10.65-1.87-13.88-3.9l4.19-9.29c3.56,2.13,8.32,3.54,12.48,3.58,3.64.02,4.94-.71,4.94-2.01.04-4.78-20.96-1.1-20.84-15.23.04-6.12,4.53-11.24,13.44-12.4l.04-5.9,7.64.06-.04,5.79c4,.41,7.91,1.46,10.98,3.23l-3.92,9.23c-3.72-1.93-7.24-2.87-10.55-2.91-3.74-.02-4.94,1.04-4.94,2.34-.04,4.55,20.96.93,20.86,14.9-.04,5.86-4.31,10.92-12.73,12.3h-.02Z" style="fill:#fff; stroke-width:0px;"/><path d="M608.2,522.63l-393.06-.06c-7.29,0-13.2-5.91-13.2-13.2l.03-237.35c0-7.29,5.91-13.2,13.2-13.2l393.06.06c7.29,0,13.2,5.91,13.2,13.2l-.03,237.35c0,7.29-5.91,13.2-13.2,13.2Z" style="fill:#3649db; stroke-width:0px;"/><g style="opacity:.1;"><path d="M463.13,468.67c43.05-28.42,54.91-86.35,26.5-129.4-28.42-43.05-86.35-54.91-129.4-26.5-43.05,28.42-54.91,86.35-26.5,129.4,28.42,43.05,86.35,54.91,129.4,26.5Z" style="fill:#fff; stroke-width:0px;"/></g><path d="M243.24,436.22c-.37,1.29-.91,2.35-1.61,3.17s-1.54,1.42-2.53,1.8c-.99.38-2.1.58-3.35.57-1.25,0-2.37-.19-3.36-.57-1-.38-1.85-.99-2.54-1.81-.7-.82-1.23-1.88-1.61-3.17-.37-1.29-.56-2.85-.56-4.66v-4.43c0-1.81.19-3.37.56-4.66.37-1.29.91-2.35,1.61-3.17.7-.82,1.55-1.43,2.54-1.81.99-.38,2.12-.57,3.36-.58,1.25,0,2.36.2,3.35.58.98.38,1.83.98,2.53,1.8.7.82,1.23,1.88,1.61,3.17.37,1.29.56,2.85.56,4.66v4.43c0,1.82-.19,3.37-.56,4.66h0ZM240.82,427.12c0-1.37-.12-2.56-.35-3.53-.24-.98-.58-1.76-1.01-2.38-.44-.61-.97-1.06-1.59-1.35-.62-.28-1.31-.43-2.08-.42-.76,0-1.46.14-2.08.43-.62.29-1.15.73-1.59,1.35-.44.61-.77,1.41-1.02,2.38-.24.97-.36,2.15-.36,3.53v4.43c0,1.37.12,2.56.36,3.53.24.98.58,1.77,1.01,2.38.43.61.97,1.06,1.58,1.35.62.29,1.31.43,2.08.43.76,0,1.46-.14,2.08-.43.62-.29,1.15-.74,1.59-1.35.44-.61.77-1.41,1.02-2.38.24-.98.36-2.15.36-3.53v-4.43Z" style="fill:#fff; stroke-width:0px;"/><path d="M263.1,436.23c-.37,1.29-.91,2.35-1.61,3.17-.7.82-1.54,1.42-2.53,1.8-.99.38-2.1.58-3.35.57-1.25,0-2.37-.19-3.36-.57-1-.39-1.85-.99-2.54-1.81-.7-.82-1.23-1.88-1.61-3.17-.37-1.29-.56-2.85-.55-4.66v-4.43c0-1.81.19-3.37.56-4.66.37-1.29.91-2.35,1.61-3.17s1.55-1.43,2.54-1.81c.99-.38,2.12-.57,3.36-.58,1.25,0,2.36.2,3.35.58.98.38,1.83.99,2.53,1.8.7.82,1.23,1.88,1.61,3.17.37,1.29.56,2.85.55,4.66v4.43c0,1.81-.18,3.37-.56,4.66h0ZM260.68,427.13c0-1.38-.12-2.56-.35-3.53-.24-.98-.58-1.76-1.01-2.38-.44-.61-.97-1.06-1.58-1.35-.62-.28-1.31-.43-2.08-.43-.76,0-1.46.14-2.08.43-.62.29-1.15.74-1.59,1.35-.44.61-.77,1.4-1.02,2.38-.24.97-.36,2.15-.36,3.53v4.43c0,1.38.12,2.56.36,3.53.24.98.58,1.77,1.01,2.38.43.61.97,1.06,1.58,1.35.62.29,1.31.43,2.08.43.76,0,1.46-.14,2.08-.43.62-.29,1.15-.74,1.59-1.35.44-.61.77-1.4,1.02-2.38.24-.97.36-2.15.36-3.53v-4.43Z" style="fill:#fff; stroke-width:0px;"/><path d="M282.8,422.8c0,1.29-.33,2.41-.99,3.37-.66.95-1.76,1.94-3.3,2.97l-3.16,2.13c-.92.61-1.68,1.18-2.27,1.72-.6.53-1.06,1.08-1.4,1.63-.34.55-.58,1.11-.73,1.69s-.22,1.23-.21,1.95v.69s11.07,0,11.07,0c.17,0,.33.05.45.15.13.1.19.24.2.41v1.45c0,.18-.07.32-.2.43s-.29.17-.46.17h-13.01c-.17,0-.32-.07-.46-.19-.13-.12-.2-.26-.2-.44v-2.66c0-1.71.39-3.26,1.17-4.69.78-1.42,2.07-2.73,3.87-3.94l3.32-2.23c.68-.46,1.24-.86,1.68-1.21.44-.35.79-.69,1.04-1.03.25-.34.43-.69.52-1.07.1-.38.15-.8.15-1.28,0-1.18-.37-2.03-1.14-2.58-.75-.53-2.02-.8-3.79-.8-.85,0-1.81.05-2.85.15-1.05.1-2.04.21-2.96.35h-.13c-.35,0-.53-.2-.53-.59v-1.17c0-.18.07-.31.19-.4.12-.09.26-.15.44-.2.83-.23,1.77-.38,2.81-.49,1.04-.11,2.06-.16,3.04-.17,2.67,0,4.64.47,5.91,1.42,1.27.94,1.9,2.43,1.91,4.46h0Z" style="fill:#fff; stroke-width:0px;"/><path d="M297.48,441.35c-.11.13-.26.2-.43.2h-1.81c-.18,0-.32-.07-.43-.2-.11-.13-.17-.29-.17-.46v-20.65s-4.23,1.84-4.23,1.84c-.16.07-.3.1-.43.1-.2,0-.3-.12-.29-.36v-1.67c0-.11.03-.19.09-.24.06-.05.14-.12.24-.18l4.96-2.36c.26-.14.49-.2.69-.2h1.35c.17,0,.32.06.44.18.12.12.18.27.18.44v23.11c0,.18-.06.33-.17.46h0Z" style="fill:#fff; stroke-width:0px;"/><path d="M340.52,436.23c-.37,1.29-.91,2.35-1.61,3.17s-1.54,1.42-2.53,1.8c-.99.38-2.1.58-3.35.57-1.25,0-2.37-.19-3.36-.57-1-.39-1.85-.99-2.54-1.81-.7-.82-1.23-1.88-1.61-3.17-.37-1.29-.56-2.85-.55-4.66v-4.43c0-1.82.19-3.37.56-4.66.37-1.29.91-2.35,1.61-3.17.7-.82,1.55-1.43,2.54-1.81.99-.38,2.12-.57,3.36-.58,1.25,0,2.36.2,3.35.58.98.38,1.83.99,2.52,1.8.71.82,1.23,1.88,1.61,3.17.37,1.29.56,2.85.56,4.66v4.43c0,1.82-.19,3.37-.56,4.66h0ZM338.09,427.14c0-1.37-.12-2.56-.36-3.53-.24-.98-.58-1.76-1.01-2.38-.44-.61-.97-1.06-1.58-1.35-.63-.28-1.31-.43-2.08-.43-.76,0-1.46.14-2.08.43-.62.29-1.15.74-1.59,1.35-.44.61-.77,1.41-1.02,2.38-.24.98-.36,2.15-.36,3.53v4.43c0,1.37.11,2.56.36,3.53.24.98.58,1.77,1.01,2.38.43.61.97,1.06,1.58,1.35.62.29,1.31.43,2.08.42.76,0,1.46-.14,2.08-.43.62-.29,1.15-.73,1.59-1.35.44-.61.77-1.41,1.02-2.38.24-.97.36-2.15.36-3.53v-4.43Z" style="fill:#fff; stroke-width:0px;"/><path d="M359.44,437.92c-.41.89-.97,1.62-1.69,2.18-.72.57-1.58.99-2.58,1.26-1,.27-2.1.41-3.3.41-1.05,0-2.04-.07-2.97-.2-.93-.14-1.79-.29-2.57-.46-.18-.04-.33-.12-.44-.22-.12-.1-.18-.23-.18-.42v-1.13c0-.37.18-.55.55-.56h.1c.99.13,1.96.24,2.93.33.96.09,1.82.13,2.6.14,1.8,0,3.09-.36,3.91-1.08.81-.72,1.22-1.86,1.22-3.44v-.68c0-.44-.07-.88-.18-1.36-.12-.46-.33-.9-.62-1.3-.3-.39-.69-.72-1.18-.96-.5-.26-1.11-.38-1.85-.38h-5.98c-.41,0-.62-.2-.62-.6v-1.15c0-.41.21-.62.62-.63h5.98c.79,0,1.43-.12,1.93-.36.51-.24.89-.55,1.16-.93.28-.38.46-.8.57-1.26.11-.45.17-.9.17-1.34v-.46c0-1.35-.38-2.33-1.16-2.96-.78-.62-2.09-.93-3.95-.93-.96,0-1.85.05-2.67.14-.82.1-1.77.21-2.84.34h-.1c-.37,0-.55-.19-.56-.57v-1.17c0-.15.05-.28.18-.39.12-.11.26-.19.44-.23.79-.18,1.65-.33,2.58-.47.93-.13,1.92-.2,2.97-.2,1.22,0,2.34.1,3.35.31,1.01.21,1.86.56,2.58,1.07.71.51,1.26,1.16,1.66,1.97.39.81.59,1.83.59,3.05v.46c0,1.11-.27,2.12-.79,3.02-.52.9-1.3,1.59-2.33,2.1.59.28,1.08.63,1.48,1.02.4.4.71.82.95,1.28.24.46.41.93.53,1.41.11.48.16.96.16,1.44v.69c0,1.22-.2,2.29-.6,3.17v.04Z" style="fill:#fff; stroke-width:0px;"/><path d="M379.31,437.93c-.41.89-.97,1.62-1.69,2.18-.72.57-1.58.99-2.58,1.26-1,.27-2.1.41-3.3.41-1.05,0-2.04-.07-2.97-.2-.93-.14-1.79-.29-2.57-.46-.18-.04-.33-.12-.44-.22-.12-.1-.18-.24-.18-.41v-1.13c0-.37.18-.56.55-.56h.1c.99.13,1.96.24,2.93.33.96.09,1.82.13,2.6.14,1.8,0,3.09-.35,3.91-1.08.81-.72,1.22-1.86,1.22-3.44v-.68c0-.44-.07-.88-.18-1.36-.12-.46-.33-.9-.62-1.3s-.69-.72-1.18-.96c-.49-.25-1.11-.38-1.85-.38h-5.98c-.41,0-.62-.2-.62-.6v-1.15c0-.41.21-.62.62-.63h5.98c.79,0,1.43-.12,1.93-.36.51-.24.89-.55,1.16-.93.28-.38.46-.8.57-1.26.11-.45.17-.9.17-1.34v-.46c0-1.35-.38-2.33-1.16-2.96-.78-.62-2.09-.93-3.95-.93-.96,0-1.85.05-2.67.15-.82.1-1.77.21-2.84.34h-.1c-.37,0-.56-.19-.56-.57v-1.17c0-.15.05-.28.18-.39.12-.11.26-.19.44-.23.79-.18,1.65-.33,2.58-.47.93-.13,1.92-.2,2.97-.2,1.22,0,2.34.1,3.35.31s1.86.56,2.58,1.07c.71.51,1.26,1.16,1.66,1.97.39.81.59,1.83.59,3.05v.46c0,1.11-.27,2.12-.79,3.02-.52.9-1.31,1.59-2.33,2.1.59.28,1.08.63,1.48,1.02.4.4.71.82.95,1.28.24.46.41.93.53,1.41.11.48.16.96.16,1.44v.69c0,1.22-.2,2.29-.6,3.17v.04Z" style="fill:#fff; stroke-width:0px;"/><path d="M394.75,441.36c-.11.13-.26.2-.43.2h-1.81c-.18,0-.32-.07-.43-.2s-.17-.29-.17-.46v-20.65s-4.23,1.84-4.23,1.84c-.16.07-.3.1-.42.1-.2,0-.3-.12-.3-.36v-1.67c0-.11.03-.19.09-.24.06-.05.14-.11.24-.18l4.96-2.36c.26-.14.49-.2.69-.2h1.35c.17,0,.32.06.44.18.12.12.18.27.18.44v23.11c0,.17-.06.33-.17.46h0Z" style="fill:#fff; stroke-width:0px;"/><path d="M438.35,435.07h-2.86s0,5.84,0,5.84c0,.18-.05.33-.15.46-.1.13-.24.19-.42.19h-1.92c-.18,0-.32-.06-.42-.19-.1-.13-.15-.28-.15-.46v-5.84s-9.46,0-9.46,0c-.5,0-.85-.09-1.05-.28-.2-.18-.3-.52-.3-1v-1.25c0-.46.14-.86.4-1.21l9.69-13.63c.09-.13.19-.25.33-.37.13-.11.34-.16.62-.16h1.96c.58,0,.87.24.87.72v14.65s2.85,0,2.85,0c.18,0,.32.06.44.16.12.11.18.25.18.43v1.33c0,.4-.21.6-.63.6h.02ZM432.48,421.34c0-.13-.04-.2-.13-.2h-.04c-.09,0-.18.07-.27.2l-7.55,10.74c-.06.09-.1.18-.1.26,0,.13.08.2.26.2h7.82s0-11.2,0-11.2Z" style="fill:#fff; stroke-width:0px;"/><path d="M457.31,436.5c-.36,1.24-.9,2.25-1.63,3.04-.72.79-1.62,1.37-2.69,1.72-1.07.36-2.31.54-3.71.54-1.31,0-2.42-.05-3.3-.16-.88-.11-1.67-.24-2.35-.4-.21-.04-.41-.11-.56-.2-.15-.08-.23-.24-.23-.43v-1.3c0-.2.05-.35.16-.44.11-.09.25-.15.43-.15.04,0,.08,0,.1.02.03,0,.05.01.1.02.84.17,1.72.31,2.64.4.92.09,1.92.13,2.97.13,1.27,0,2.27-.18,3.02-.54.75-.36,1.32-.85,1.71-1.48.39-.63.64-1.4.76-2.29.11-.89.17-1.87.16-2.94v-.36c-.7.15-1.45.31-2.25.45-.8.14-1.7.21-2.71.21-1.07,0-2.1-.11-3.07-.33-.97-.22-1.83-.59-2.58-1.11-.74-.53-1.34-1.24-1.77-2.11-.44-.89-.65-1.99-.65-3.3v-.2c0-2.61.67-4.64,1.99-6.11,1.32-1.46,3.34-2.2,6.02-2.2,2.47,0,4.42.75,5.84,2.25,1.42,1.49,2.13,3.86,2.14,7.08v5.74c0,1.75-.18,3.24-.54,4.48v-.03ZM454.89,426.26c0-1.33-.11-2.44-.33-3.32s-.54-1.58-.97-2.11c-.42-.53-.95-.89-1.58-1.11-.62-.22-1.33-.33-2.12-.33-.76,0-1.46.1-2.08.29-.62.2-1.16.53-1.61.98-.45.46-.79,1.06-1.03,1.8-.24.74-.36,1.67-.36,2.78v.2c0,.87.14,1.6.42,2.19.28.59.67,1.05,1.15,1.39.48.34,1.02.58,1.62.72.6.14,1.23.22,1.89.22.4,0,.82-.01,1.28-.05.46-.03.91-.07,1.37-.13.45-.05.88-.12,1.28-.2.4-.08.75-.14,1.03-.21l.04-3.11h0Z" style="fill:#fff; stroke-width:0px;"/><path d="M477.35,422.83c0,1.29-.33,2.41-.99,3.37-.66.95-1.76,1.94-3.3,2.97l-3.16,2.13c-.93.61-1.68,1.18-2.28,1.72-.6.54-1.06,1.08-1.4,1.63-.34.55-.58,1.11-.72,1.7-.15.58-.22,1.23-.21,1.95v.69s11.07,0,11.07,0c.17,0,.33.05.46.15.13.1.19.24.2.41v1.45c0,.18-.07.32-.2.43-.13.11-.29.17-.46.17h-13.01c-.17,0-.32-.07-.46-.19-.13-.12-.2-.27-.2-.45v-2.66c0-1.71.39-3.26,1.17-4.69.78-1.42,2.07-2.73,3.87-3.93l3.32-2.23c.68-.46,1.24-.86,1.68-1.21.44-.35.79-.69,1.04-1.03.25-.33.43-.69.52-1.07.1-.37.15-.8.15-1.28,0-1.18-.37-2.04-1.13-2.58-.75-.53-2.02-.8-3.79-.8-.85,0-1.81.05-2.85.15-1.05.1-2.04.21-2.96.35h-.14c-.35,0-.52-.2-.52-.59v-1.17c0-.18.07-.31.19-.4.12-.09.26-.15.45-.2.83-.23,1.77-.38,2.81-.49,1.04-.11,2.06-.16,3.04-.17,2.67,0,4.64.47,5.91,1.42,1.27.94,1.9,2.43,1.91,4.46h0Z" style="fill:#fff; stroke-width:0px;"/><path d="M492.02,441.38c-.11.13-.26.2-.43.2h-1.81c-.18,0-.32-.07-.43-.2-.11-.13-.17-.29-.17-.46v-20.65s-4.23,1.84-4.23,1.84c-.16.07-.3.1-.42.1-.2,0-.3-.12-.3-.36v-1.67c0-.11.03-.19.09-.24.06-.05.14-.12.24-.18l4.96-2.36c.26-.14.49-.2.69-.2h1.35c.17,0,.32.06.44.18.12.12.18.27.18.44v23.11c0,.17-.06.33-.17.46h0Z" style="fill:#fff; stroke-width:0px;"/><path d="M534.91,422.83c0,1.29-.33,2.41-.99,3.37-.66.95-1.76,1.94-3.3,2.97l-3.16,2.13c-.92.61-1.68,1.18-2.28,1.72-.59.54-1.06,1.08-1.4,1.63-.34.55-.58,1.11-.72,1.7-.15.58-.22,1.23-.21,1.95v.69s11.07,0,11.07,0c.17,0,.33.05.46.15.13.1.19.24.19.41v1.45c0,.18-.06.32-.19.43-.13.11-.29.17-.46.17h-13.01c-.17,0-.32-.07-.46-.19-.13-.12-.2-.26-.2-.45v-2.66c0-1.71.4-3.26,1.17-4.69.78-1.42,2.07-2.73,3.87-3.93l3.32-2.23c.68-.46,1.24-.86,1.68-1.21s.79-.69,1.04-1.03c.25-.34.43-.69.53-1.07.1-.37.14-.8.14-1.28,0-1.18-.37-2.04-1.13-2.58-.75-.53-2.02-.8-3.79-.8-.85,0-1.81.05-2.85.15-1.05.1-2.04.21-2.96.35h-.13c-.35,0-.53-.2-.53-.59v-1.17c0-.18.07-.31.19-.4.12-.09.27-.15.44-.2.83-.23,1.77-.38,2.81-.49,1.04-.11,2.05-.16,3.04-.17,2.67,0,4.64.47,5.91,1.42,1.27.94,1.9,2.43,1.91,4.46h0Z" style="fill:#fff; stroke-width:0px;"/><path d="M554.93,436.26c-.37,1.29-.91,2.35-1.61,3.17s-1.54,1.42-2.53,1.8c-.99.38-2.1.57-3.35.57-1.25,0-2.37-.19-3.36-.57-1-.38-1.85-.99-2.54-1.81-.7-.82-1.23-1.88-1.61-3.17-.37-1.29-.56-2.85-.55-4.66v-4.43c0-1.82.19-3.37.56-4.66.37-1.29.91-2.35,1.61-3.17.7-.82,1.55-1.43,2.54-1.81.99-.38,2.12-.57,3.36-.58,1.25,0,2.36.2,3.35.58.98.38,1.83.98,2.52,1.8.7.82,1.23,1.88,1.61,3.17.37,1.29.56,2.85.56,4.66v4.43c0,1.82-.18,3.37-.56,4.66h0ZM552.51,427.16c0-1.37-.12-2.56-.35-3.53-.24-.97-.58-1.76-1.01-2.38-.44-.61-.97-1.06-1.58-1.35-.62-.28-1.31-.43-2.08-.42-.76,0-1.46.14-2.08.43-.62.29-1.15.73-1.59,1.35-.44.61-.77,1.41-1.02,2.38-.24.98-.36,2.15-.36,3.53v4.43c0,1.37.11,2.56.36,3.53.24.97.58,1.77,1.01,2.38.43.61.97,1.06,1.58,1.35.62.29,1.31.43,2.08.43.76,0,1.46-.14,2.08-.43.62-.29,1.15-.74,1.59-1.35.44-.61.77-1.41,1.02-2.38.24-.98.36-2.15.36-3.53v-4.43Z" style="fill:#fff; stroke-width:0px;"/><path d="M574.63,422.84c0,1.29-.33,2.41-.99,3.37-.66.95-1.75,1.94-3.3,2.97l-3.16,2.13c-.93.61-1.68,1.18-2.28,1.72-.6.54-1.06,1.08-1.4,1.63-.34.55-.58,1.11-.72,1.69-.15.58-.22,1.23-.21,1.95v.69s11.07,0,11.07,0c.17,0,.33.05.46.15.13.1.19.24.2.41v1.45c0,.18-.07.32-.2.43-.13.11-.29.17-.46.17h-13.01c-.17,0-.32-.07-.46-.19-.13-.12-.2-.27-.2-.45v-2.66c0-1.71.39-3.26,1.17-4.69.78-1.42,2.07-2.73,3.87-3.93l3.32-2.23c.68-.46,1.24-.86,1.68-1.21.44-.35.79-.69,1.04-1.03.25-.33.43-.69.52-1.07.1-.37.15-.8.15-1.28,0-1.18-.37-2.04-1.14-2.58-.75-.53-2.02-.8-3.79-.8-.85,0-1.81.05-2.85.14-1.05.1-2.04.21-2.96.35h-.14c-.35,0-.53-.2-.53-.59v-1.17c0-.18.07-.31.19-.4.12-.09.27-.15.45-.2.83-.23,1.77-.38,2.81-.49,1.04-.11,2.06-.16,3.04-.17,2.67,0,4.64.47,5.91,1.42,1.27.94,1.9,2.43,1.91,4.46v.02Z" style="fill:#fff; stroke-width:0px;"/><path d="M589.3,441.39c-.11.13-.26.2-.43.2h-1.81c-.18,0-.32-.07-.43-.2-.11-.13-.17-.29-.17-.46v-20.65s-4.23,1.84-4.23,1.84c-.16.07-.3.1-.42.1-.2,0-.3-.12-.29-.36v-1.67c0-.11.03-.19.09-.24.06-.05.14-.11.24-.18l4.96-2.36c.26-.14.49-.2.69-.2h1.35c.18,0,.32.06.44.18.12.12.18.27.18.44v23.11c0,.17-.06.33-.17.46h0Z" style="fill:#fff; stroke-width:0px;"/><path d="M295.9,459.05h-67.02s0,19.19,0,19.19h67.02s0-19.19,0-19.19Z" style="fill:#fff; stroke-width:0px;"/><path d="M597.67,271.08h-67.02s0,11.5,0,11.5h67.02s0-11.5,0-11.5Z" style="fill:#fff; stroke-width:0px;"/><path d="M597.66,291.65l-119.62-.02v11.52s119.62.02,119.62.02v-11.52Z" style="fill:#fff; stroke-width:0px;"/><path d="M522.46,487.03l-293.58-.06v19.2s293.57.06,293.57.06v-19.2Z" style="fill:#fff; stroke-width:0px;"/><path d="M570.8,496.58c0,5.3-4.3,9.6-9.6,9.6-5.3,0-9.6-4.3-9.6-9.61,0-5.3,4.3-9.6,9.61-9.6,5.3,0,9.6,4.3,9.6,9.61Z" style="fill:#fff; stroke-width:0px;"/><path d="M597.68,496.58c0,5.3-4.3,9.6-9.6,9.6-5.3,0-9.6-4.3-9.6-9.61,0-5.3,4.3-9.6,9.6-9.6,5.3,0,9.6,4.3,9.6,9.6Z" style="fill:#fff; stroke-width:0px;"/><path d="M285.4,284.65v33.4c0,1.7-1.39,3.08-3.08,3.08h-57.13c-1.71,0-3.09-1.39-3.09-3.08v-33.4c0-1.71,1.39-3.09,3.09-3.09h57.13c1.71,0,3.08,1.39,3.08,3.09Z" style="fill:#fecc86; stroke-width:0px;"/><path d="M251.98,299.57h-29.87s0-1.58,0-1.58h28.31s0-10.03,0-10.03h1.57s0,11.61,0,11.61Z" style="fill:#efa348; stroke-width:0px;"/><path d="M257.07,321.12h-1.57s0-15.53,0-15.53h29.9s0,1.58,0,1.58h-28.34s0,13.95,0,13.95Z" style="fill:#efa348; stroke-width:0px;"/><path d="M265.41,281.53h-1.57v16.64h1.57v-16.64Z" style="fill:#efa348; stroke-width:0px;"/><path d="M285.35,290.13h-20.82s0,1.56,0,1.56h20.82s0-1.56,0-1.56Z" style="fill:#efa348; stroke-width:0px;"/><path d="M239.53,314.14h-1.57s0-5.38,0-5.38h-15.85s0-1.58,0-1.58h17.43v6.96Z" style="fill:#efa348; stroke-width:0px;"/><path d="M609.62,523.81l-395.91-.06c-7.14,0-12.95-5.81-12.95-12.95l.03-240.2c0-7.14,5.81-12.95,12.95-12.95l395.91.06c7.14,0,12.95,5.82,12.95,12.95l-.03,240.2c0,7.14-5.81,12.95-12.95,12.95ZM213.74,260.01c-5.84,0-10.59,4.75-10.59,10.59l-.03,240.2c0,5.84,4.75,10.59,10.59,10.59l395.91.06c5.84,0,10.59-4.75,10.59-10.59l.03-240.2c0-5.84-4.75-10.59-10.59-10.59l-395.91-.06Z" style="fill:#1d1d1b; stroke-width:0px;"/><path d="M708.66,541.62c-6.63,0-12.04-5.41-12.04-12.03s5.41-12.04,12.04-12.04,12.03,5.41,12.03,12.04-5.41,12.03-12.03,12.03ZM708.66,537.84c4.55,0,8.25-3.7,8.25-8.25s-3.7-8.25-8.25-8.25-8.25,3.7-8.25,8.25,3.7,8.25,8.25,8.25Z" style="fill:#3649db; stroke-width:0px;"/><path d="M688.42,429.94c-1.04,0-1.89.85-1.89,1.89v8.33c0,1.04.85,1.89,1.89,1.89s1.89-.85,1.89-1.89v-8.33c0-1.04-.85-1.89-1.89-1.89Z" style="fill:#040a4f; stroke-width:0px;"/><path d="M688.42,415.39c-1.04,0-1.89.85-1.89,1.89v8.32c0,1.04.85,1.89,1.89,1.89s1.89-.85,1.89-1.89v-8.32c0-1.04-.85-1.89-1.89-1.89Z" style="fill:#040a4f; stroke-width:0px;"/><path d="M700.11,426.83h-7.48c-1.04,0-1.89.85-1.89,1.89s.85,1.89,1.89,1.89h7.48c1.04,0,1.89-.85,1.89-1.89s-.85-1.89-1.89-1.89Z" style="fill:#040a4f; stroke-width:0px;"/><path d="M684.21,426.83h-7.48c-1.04,0-1.89.85-1.89,1.89s.85,1.89,1.89,1.89h7.48c1.04,0,1.89-.85,1.89-1.89s-.85-1.89-1.89-1.89Z" style="fill:#040a4f; stroke-width:0px;"/></g></svg>