<svg id="aa37e69d-3107-41e9-bea3-c60d980703f4" data-name="Layer 1" xmlns="http://www.w3.org/2000/svg" viewBox="0 0 326.59 190.42"><defs><style>.befa9670-81d5-4543-9b3f-f51907a3cbd1{fill:#26afd3;}.eeff5ee9-1e6f-44b5-86d0-96c8bb53fe5d{fill:#003554;}</style></defs><path class="befa9670-81d5-4543-9b3f-f51907a3cbd1" d="M370.55,155.6a4,4,0,0,1-4,4h-42a4,4,0,0,1,0-8h42A4,4,0,0,1,370.55,155.6Z" transform="translate(-254.65 -57.09)"/><path class="befa9670-81d5-4543-9b3f-f51907a3cbd1" d="M380.48,86.16a29.43,29.43,0,0,0-5.58.33s0,0,0,0h0c0-14.45-10.45-27-24.75-29.06a29.06,29.06,0,0,0-33.34,28.74c0,.18,0,.36,0,.53a29.91,29.91,0,0,0-5.79-.53,29.05,29.05,0,0,0-1.48,58.05c.58,0,1.17.05,1.75.05h26.38a4.67,4.67,0,0,0,4.68-4.67V123.78a0,0,0,0,1,0,0h5.93a0,0,0,0,1,0,0V139.9a4.66,4.66,0,0,0,4.65,4.34h26.4c.51,0,1,0,1.51,0a29.05,29.05,0,0,0-.4-58ZM335.63,117a0,0,0,0,1,0,0h-3.26a3.21,3.21,0,0,1-3-3.08,3.16,3.16,0,0,1,3.17-3.25,3.06,3.06,0,0,1,1.84.59,3.17,3.17,0,0,1,1.33,2.57Zm44.85,19.17-1.11,0H357.45a1.12,1.12,0,0,1-1.12-1V123.62s0,0,0,0a10.66,10.66,0,0,0,1.8.16,10.28,10.28,0,0,0,1.1-.06,9.86,9.86,0,1,0-10.95-9.8V117s0,0,0,0h-5.93a0,0,0,0,1,0,0v-3.14a9.86,9.86,0,0,0-10.25-9.84,9.86,9.86,0,0,0,.06,19.7h.33a10.78,10.78,0,0,0,1.81-.16s0,0,0,0V135.2a1.1,1.1,0,0,1-1.11,1H311.26q-.64,0-1.23,0h0a21,21,0,0,1,1.27-42,21.27,21.27,0,0,1,4,.38l5.14,1,1.07.21h0A3.4,3.4,0,0,0,325,92.69h0l0-.86-.15-5.38a2.91,2.91,0,0,1,0-.3,21,21,0,0,1,42.07,0v.06l-.2,4.72-.08,1.82h0a3.49,3.49,0,0,0,3,2.69h0l.88-.15h.07l.88-.13,4.7-.74a21,21,0,1,1,4.38,41.79ZM355,117.06a0,0,0,0,1,0,0v-3.14a3.16,3.16,0,0,1,1.32-2.57,3.1,3.1,0,0,1,2-.59,3.17,3.17,0,0,1-.12,6.33Z" transform="translate(-254.65 -57.09)"/><path class="eeff5ee9-1e6f-44b5-86d0-96c8bb53fe5d" d="M316.8,239.54l-41.57-65.27v60.87a10.29,10.29,0,0,1-10.29,10.29h0a10.29,10.29,0,0,1-10.29-10.29V154.51a15,15,0,0,1,15-15h0a15.12,15.12,0,0,1,12.87,7.17l37.69,61V177.3a10.37,10.37,0,0,1,10.37-10.37h0A10.37,10.37,0,0,1,341,177.3V232a13.44,13.44,0,0,1-13.44,13.44h0A12.71,12.71,0,0,1,316.8,239.54Z" transform="translate(-254.65 -57.09)"/><path class="eeff5ee9-1e6f-44b5-86d0-96c8bb53fe5d" d="M400.48,235.62v-1.2q-8,13.08-24.41,13.08a27.21,27.21,0,0,1-10.77-2.07,23.92,23.92,0,0,1-8.38-5.9,28,28,0,0,1-5.5-9.1,33.08,33.08,0,0,1-2-11.8V177.3a10.37,10.37,0,0,1,10.37-10.37h0a10.37,10.37,0,0,1,10.37,10.37v38.13q0,14.69,13.25,14.68,8,0,12-5t4.07-12.85v-35a10.29,10.29,0,0,1,10.29-10.29h0a10.29,10.29,0,0,1,10.29,10.29v58.4a9.81,9.81,0,0,1-9.81,9.81h0A9.81,9.81,0,0,1,400.48,235.62Z" transform="translate(-254.65 -57.09)"/><path class="eeff5ee9-1e6f-44b5-86d0-96c8bb53fe5d" d="M429.2,235.69V148.42a10.21,10.21,0,0,1,10.21-10.21h0a10.21,10.21,0,0,1,10.21,10.21v28.72q8.78-12.28,23.29-12.28a30.43,30.43,0,0,1,13.65,2.95,28.59,28.59,0,0,1,10.13,8.38A38.7,38.7,0,0,1,503,189a58.34,58.34,0,0,1,2.15,16.35,57,57,0,0,1-2.55,17.71,40,40,0,0,1-7,13.24,29.75,29.75,0,0,1-10.77,8.3,32.42,32.42,0,0,1-13.64,2.87q-14.69,0-21.86-11.64h0a9.73,9.73,0,0,1-9.73,9.57h-.64A9.74,9.74,0,0,1,429.2,235.69Zm37.17-5.1A15.28,15.28,0,0,0,479.14,224q4.94-6.61,4.94-17.15,0-24.25-17.87-24.25-17.38,0-17.39,25.52,0,10.07,5,16.28A15.47,15.47,0,0,0,466.37,230.59Z" transform="translate(-254.65 -57.09)"/><path class="eeff5ee9-1e6f-44b5-86d0-96c8bb53fe5d" d="M579.49,182.65a22.81,22.81,0,0,0-5.66-9.73,25.42,25.42,0,0,0-10.37-6,52,52,0,0,0-15.72-2.07,55.65,55.65,0,0,0-16,2,27.77,27.77,0,0,0-10.61,5.67,21.41,21.41,0,0,0-5.9,8.77l0,.1A8.29,8.29,0,0,0,523,192.46h2a10.6,10.6,0,0,0,9.34-5.52,13.1,13.1,0,0,1,2.15-2.93q3.12-3.19,10.29-3.2,6.06,0,9.65,2.16a6.65,6.65,0,0,1,3.59,6q0,4.16-2.71,6t-10.53,3Q539,199,532.34,200.36a36,36,0,0,0-11.41,4.23,20.06,20.06,0,0,0-7.49,7.9q-2.72,5-2.72,13.48,0,9.57,6.31,15.55t19.86,6a36.93,36.93,0,0,0,14-2.48,29.31,29.31,0,0,0,5.46-2.88c.39-.27.77-.55,1.14-.83a.47.47,0,0,0,.12-.09c.32-.25.63-.5.93-.77l.18-.15a24.07,24.07,0,0,0,1.89-1.89h0a39.31,39.31,0,0,0,4.14-5.74h10.08a6.36,6.36,0,0,0,6.36-6.36v-30.5A45.58,45.58,0,0,0,579.49,182.65ZM560.34,215.6a14.94,14.94,0,0,1-1.51,6.62,18.12,18.12,0,0,1-9.89,9.09,19.93,19.93,0,0,1-7.42,1.36q-10,0-10-8.78c0-3.4,1.11-6,3.35-7.82s6.32-3.29,12.28-4.46a86.28,86.28,0,0,0,8.78-2.08A11,11,0,0,0,560.5,207Z" transform="translate(-254.65 -57.09)"/><path class="befa9670-81d5-4543-9b3f-f51907a3cbd1" d="M577.24,239.5h-8.8a4,4,0,0,0,0,8h8.8a4,4,0,0,0,0-8Z" transform="translate(-254.65 -57.09)"/></svg>