<?xml version="1.0" encoding="UTF-8"?><svg id="a" xmlns="http://www.w3.org/2000/svg" viewBox="0 0 7963.42 1344.43"><path d="M2887.49,257.15l219.09,408.96c13.9,26.54,34.82,62.78,44.66,72.61v-481.57h237.2v710.35c79.63-7.02,161.93-40.45,210.8-97.74l75.41,152.1c-74.01,83.7-180.04,128.36-318.23,128.36-150.69,0-256.87-66.99-332.14-207.99l-170.21-319.64v513.59h-237.2V257.15h270.76-.14Z" style="fill:#0f172a; stroke-width:0px;"/><path d="M3783.5,444.21v428.48c0,64.18,20.93,97.75,59.97,97.75,93.53,0,192.54-269.36,139.6-526.23h226.11c33.57,20.93,71.21,32.16,111.66,32.16,34.82,0,71.2-8.43,107.43-27.95l51.69,152.1c-55.9,26.54-107.44,37.64-153.5,37.64-36.23,0-69.8-7.02-99.15-18.12,9.82,337.76-171.62,530.31-463.32,530.31-135.38,0-206.59-93.54-206.59-224.71v-481.43h226.11Z" style="fill:#0f172a; stroke-width:0px;"/><path d="M4707.46,430.31c85.11,0,166.14,20.93,230.32,64.18,22.33,2.81,43.26,4.21,65.58,4.21,69.8,0,138.2-15.31,212.21-54.49l74.01,139.6c-69.8,44.66-150.69,64.18-234.53,66.99,15.3,39.04,23.73,86.51,23.73,139.6,0,251.25-175.83,360.08-371.32,360.08s-372.59-108.84-372.59-360.08,177.23-360.09,372.59-360.09ZM4560.98,788.99c0,131.17,61.38,193.94,146.48,193.94s145.21-62.77,145.21-193.94-59.97-191.28-145.21-191.28-146.48,59.97-146.48,191.28Z" style="fill:#0f172a; stroke-width:0px;"/><path d="M5329.89,149.71c68.4,0,124.15,36.23,124.15,110.25s-55.75,111.65-124.15,111.65-125.55-36.23-125.55-111.65,55.9-110.25,125.55-110.25ZM5437.32,444.21v448c0,44.66,11.09,69.8,43.26,74.01,41.85,8.43,90.72-37.64,126.95-86.51l79.64,135.39c-58.56,78.22-122.89,135.39-237.2,135.39-163.33,0-238.61-90.73-238.61-196.76v-509.51h226.11-.14Z" style="fill:#0f172a; stroke-width:0px;"/><path d="M5916.08,430.31c187.07,0,294.5,99.15,298.72,272.17l-212.21,37.64c4.22-89.32-26.54-142.41-85.11-142.41-76.82,0-120.07,54.49-120.07,164.74,0,154.9,83.7,220.49,228.92,220.49,125.55,0,234.53-30.75,325.26-114.46l96.34,117.27c-108.84,117.27-242.83,164.73-438.32,164.73-263.74,0-438.31-136.78-438.31-379.61s161.93-340.57,344.78-340.57Z" style="fill:#0f172a; stroke-width:0px;"/><path d="M6306.93,770.88c0-234.54,161.93-340.57,343.37-340.57s300.13,83.7,300.13,235.8c0,174.43-166.15,237.2-381.02,248.44,33.42,53.08,96.34,79.63,181.45,79.63,136.78,0,234.53-46.06,332.14-120.08l99.15,108.84c-115.87,107.44-241.42,167.54-436.91,167.54-267.95,0-438.31-139.6-438.31-379.61ZM6742.44,670.32c0-44.66-30.76-72.61-87.92-72.61-68.4,0-115.87,53.09-121.48,160.52,0,8.43,0,15.31,1.41,20.93,129.76-15.31,207.99-41.85,207.99-108.84Z" style="fill:#0f172a; stroke-width:0px;"/><path d="M7480.59,846.15c69.79,74.01,149.28,122.88,221.89,122.88s150.69-50.27,180.04-96.34l80.9,141.01c-54.49,78.22-147.89,136.78-262.35,136.78-159.12,0-301.52-89.31-410.36-210.8-26.54,51.68-32.17,115.86-19.52,196.75h-217.68c-39.04-175.84,0-294.5,121.48-357.28-65.58-115.86-103.23-237.2-107.44-334.95h226.11c7.02,86.51,36.23,175.83,80.9,255.46,59.96-71.2,92.13-145.07,107.43-255.46h227.51c-26.54,173.02-96.34,308.41-228.91,401.94Z" style="fill:#0f172a; stroke-width:0px;"/><path d="M1261.2,103.5l59.84,175-262.64,768.2c-28.52,83.28,29.49,171.34,112.77,171.34h448.44c-13.24,69.95-71.01,126.39-145.08,126.39h-562.89c-62.07,0-117.54-41.29-138.89-103.5l-59.77-174.84,262.7-768.36c28.51-83.28-29.5-171.34-112.78-171.34h-448.43C427.71,56.45,485.49,0,559.56,0h562.88c62.08,0,117.55,41.29,138.89,103.5h-.14ZM712.98,1066.09l-23.24,67.96h.14c-17.27,50.42-62.36,83.99-112.77,83.99H120.12c-83.28,0-141.28-88.06-112.77-171.34L293.28,210.38c17.27-50.42,62.36-83.98,112.77-83.98h8.42c-5.11,26.99-3.59,56,6.19,84.55l292.32,855.15ZM1619.61,1218.04h8.55c50.42,0,95.5-33.57,112.77-83.99l285.93-836.32c28.51-83.28-29.49-171.34-112.77-171.34h-456.99c-50.42,0-95.5,33.57-112.77,83.98l-23.29,68.12,292.38,854.99c9.78,28.54,11.3,57.55,6.19,84.55Z" style="fill:#0f172a; fill-rule:evenodd; stroke-width:0px;"/></svg>