<svg width="1140" height="759" viewBox="0 0 1140 759" fill="none" xmlns="http://www.w3.org/2000/svg">
<mask id="mask0_15_557" style="mask-type:alpha" maskUnits="userSpaceOnUse" x="0" y="0" width="1140" height="759">
<rect width="1140" height="758.587" fill="#D9D9D9"/>
</mask>
<g mask="url(#mask0_15_557)">
<path d="M935.645 1088.46L1116.29 559.171C1134.3 506.465 1097.66 450.736 1045.04 450.736H756.333C724.481 450.736 696.001 471.979 685.088 503.887L504.445 1033.17C486.434 1085.88 523.077 1141.61 575.69 1141.61H864.4C896.252 1141.61 924.732 1120.37 935.645 1088.46Z" fill="#76ADE5"/>
<path d="M632.642 436.25L855.163 1088.1C877.344 1152.99 832.272 1221.6 767.415 1221.6H411.808C372.591 1221.6 337.545 1195.47 324.059 1156.1L101.538 504.244C79.3572 439.361 124.429 370.744 189.287 370.744H544.894C584.11 370.744 619.156 396.875 632.642 436.25Z" fill="#040A4F"/>
<path d="M271.623 1088.46L452.265 559.171C470.276 506.465 433.633 450.736 381.02 450.736H92.3109C60.4589 450.736 31.9787 471.979 21.0656 503.887L-159.577 1033.17C-177.588 1085.88 -140.945 1141.61 -88.3316 1141.61H200.377C232.229 1141.61 260.71 1120.37 271.623 1088.46Z" fill="#3649DB"/>
<path d="M236.805 329.498C236.805 329.498 211.381 287.463 150.389 298.366C150.389 298.366 191.45 359.26 236.805 329.498Z" fill="#ADCEEF"/>
<path d="M276.507 340.595C276.507 340.595 268.935 256.336 166.315 227.107C166.315 227.107 183.83 352.368 276.507 340.595Z" fill="#E4EFFA"/>
<path d="M399.302 329.253C399.302 329.253 428.321 322.151 436.719 333.063C445.117 343.975 424.438 374.06 408.727 376.393C393.017 378.731 399.302 329.253 399.302 329.253Z" fill="#FE9F73"/>
<path d="M317.288 731.262C317.288 731.262 391.129 695.405 404.663 644.758C418.201 594.111 331.286 587.635 332.495 587.645C333.703 587.65 244.225 611.352 238.116 625.815C232.007 640.273 205.14 700.517 216.008 700.57C226.876 700.624 317.288 731.267 317.288 731.267V731.262Z" fill="#ED7163"/>
<path d="M382.614 276.429C382.594 276.321 382.57 276.214 382.541 276.106C381.709 272.462 378.28 270.017 374.563 270.413C374.456 270.423 374.343 270.437 374.231 270.452C374.196 270.457 374.157 270.457 374.123 270.467L211.641 297.573C211.606 297.578 211.567 297.588 211.533 297.598C211.425 297.617 211.313 297.642 211.21 297.671C207.566 298.503 205.116 301.931 205.512 305.644C205.522 305.751 205.537 305.864 205.551 305.971C205.556 306.006 205.556 306.045 205.566 306.079L261.926 643.922C262.513 647.434 265.834 649.806 269.346 649.219L433.701 621.799C437.213 621.212 439.585 617.891 438.999 614.38L382.638 276.537C382.634 276.502 382.624 276.463 382.614 276.429Z" fill="#76ADE5"/>
<path d="M202.411 304.46L214.184 293.142L372.573 267.136L388.498 277.036C388.498 277.036 389.515 291.391 388.679 291.753C387.843 292.115 204.431 324.91 203.967 322.078C203.502 319.251 202.416 304.46 202.416 304.46H202.411Z" fill="#608FC0"/>
<g opacity="0.5">
<path d="M220.64 309.131C220.807 310.124 220.357 311.078 219.569 311.601C219.29 311.792 218.963 311.924 218.601 311.982C218.248 312.041 217.896 312.022 217.564 311.934C216.649 311.699 215.911 310.941 215.749 309.948C215.524 308.598 216.439 307.321 217.784 307.096C219.134 306.871 220.41 307.781 220.635 309.131H220.64Z" fill="white"/>
<path d="M228.202 307.869C228.368 308.862 227.918 309.816 227.131 310.339C226.852 310.53 226.524 310.662 226.162 310.721C225.805 310.779 225.448 310.76 225.125 310.672C224.211 310.432 223.477 309.679 223.311 308.686C223.086 307.336 223.996 306.059 225.345 305.834C226.695 305.609 227.972 306.519 228.197 307.869H228.202Z" fill="white"/>
<path d="M235.763 306.607C235.93 307.6 235.48 308.554 234.692 309.077C234.413 309.268 234.086 309.4 233.724 309.459C233.367 309.517 233.01 309.498 232.687 309.41C231.772 309.17 231.039 308.417 230.872 307.424C230.647 306.074 231.557 304.797 232.907 304.572C234.257 304.347 235.534 305.257 235.759 306.607H235.763Z" fill="white"/>
</g>
<path d="M438.417 610.887C439.326 616.331 435.643 621.481 430.204 622.391L272.848 648.642C267.404 649.551 262.249 645.873 261.344 640.43L206.182 309.791C205.17 303.717 209.274 297.969 215.348 296.957L370.425 271.083C376.5 270.071 382.247 274.169 383.26 280.249L438.422 610.887H438.417ZM369.525 263.698L213.798 289.679C203.776 291.352 197.007 300.831 198.679 310.853L254.409 644.895C256.081 654.917 265.56 661.686 275.582 660.014L431.31 634.032C441.332 632.359 448.101 622.88 446.428 612.858L390.699 278.816C389.026 268.794 379.547 262.025 369.525 263.698Z" fill="#20111D"/>
<path d="M332.422 722.282V722.727V722.869L332.206 765.754L331.84 838.612C308.573 832.801 288.661 827.235 273.097 822.633C246.827 814.861 221.932 802.995 199.491 787.28C199.374 787.197 199.257 787.114 199.139 787.035L202.147 695.068C202.147 695.068 183.258 609.234 184.569 588.711C185.884 568.188 199.398 521.165 205.522 503.083C207.322 497.766 208.403 490.879 209.024 483.807C209.073 483.279 209.117 482.75 209.156 482.217C209.156 482.203 209.156 482.198 209.156 482.198C209.694 475.409 209.826 468.547 209.807 462.819C209.807 462.638 209.807 462.462 209.807 462.276C209.807 461.772 209.807 461.288 209.797 460.804C209.797 460.677 209.797 460.55 209.797 460.422C209.714 453.506 209.42 448.762 209.42 448.762C209.538 447.588 209.704 446.488 209.905 445.456C210.11 444.375 210.364 443.372 210.653 442.438C210.873 441.729 211.117 441.059 211.377 440.437C213.142 436.216 215.852 433.844 219.051 432.964C221.418 432.308 224.059 432.47 226.789 433.296C236.444 436.221 247.209 447.485 251.024 460.447C258.15 484.638 251.763 554.64 251.763 554.64C251.763 554.64 268.275 571.318 278.644 604.573C281.393 613.387 283.711 623.365 285.174 634.506C285.726 638.742 286.005 642.719 286.034 646.451C286.078 650.76 285.79 654.741 285.247 658.409C284.479 663.628 283.188 668.221 281.559 672.256C272.887 693.782 254.663 699.563 254.663 699.563L255.866 699.915L285.594 708.602L330.871 721.832L332.427 722.287H332.436L332.422 722.282Z" fill="#FE9F73"/>
<path d="M426.962 492.4L428.987 504.77C428.987 504.77 411.54 522.373 417.233 544.73C422.926 567.088 437.962 569.783 437.962 569.783C437.962 569.783 461.449 538.303 461.077 527.372C460.705 516.44 460.617 497.272 426.962 492.405V492.4Z" fill="#FE9F73"/>
<path d="M440.955 565.635C440.955 565.635 450.37 556.088 459.12 535.247C457.668 534.347 454.963 533.564 453.236 533.05C447.925 531.476 444.545 532.566 441.674 536.293L430.865 552.116C430.865 552.116 428.786 556.156 433.349 560.827C435.105 562.622 440.96 565.635 440.96 565.635H440.955Z" fill="#F78A5E"/>
<path d="M438.275 570.624L437.781 570.502C430.239 568.633 425.568 562.818 425.372 562.568C424.883 561.991 412.978 547.787 415.35 531.26C417.717 514.807 431.51 501.41 432.097 500.847L433.129 501.923C432.987 502.056 419.116 515.54 416.822 531.476C414.543 547.332 426.399 561.487 426.521 561.629C426.58 561.703 430.894 567.058 437.649 568.932L451.05 550.018C465.073 529.773 458.607 513.931 458.543 513.77L459.913 513.188C459.986 513.359 461.693 517.433 461.61 524.149C461.532 530.307 459.844 539.937 452.273 550.874L438.275 570.629V570.624Z" fill="black"/>
<path d="M440.588 576.654L442.168 586.319C442.168 586.319 428.536 600.073 432.982 617.544C437.428 635.015 449.177 637.118 449.177 637.118C449.177 637.118 467.528 612.516 467.24 603.981C466.951 595.441 466.883 580.46 440.583 576.654H440.588Z" fill="#FE9F73"/>
<path d="M451.52 633.88C451.52 633.88 458.881 626.421 465.714 610.134C464.579 609.43 462.466 608.823 461.116 608.422C456.964 607.19 454.327 608.041 452.082 610.956L443.636 623.32C443.636 623.32 442.012 626.475 445.577 630.124C446.947 631.528 451.525 633.88 451.525 633.88H451.52Z" fill="#F78A5E"/>
<path d="M449.426 637.779L449.04 637.686C443.146 636.228 439.497 631.679 439.346 631.489C438.964 631.039 429.661 619.941 431.515 607.023C433.364 594.169 444.144 583.698 444.604 583.257L445.411 584.099C445.303 584.201 434.459 594.737 432.669 607.19C430.889 619.579 440.153 630.642 440.246 630.755C440.295 630.814 443.665 634.995 448.942 636.463L459.414 621.682C470.37 605.864 465.322 593.48 465.269 593.358L466.34 592.903C466.565 593.426 471.715 605.967 460.368 622.352L449.431 637.788L449.426 637.779Z" fill="black"/>
<path d="M282.263 670.255C282.263 670.255 270.495 700.688 285.565 708.587C300.634 716.486 249.268 720.693 249.278 719.201C249.287 717.714 213.788 673.63 222.729 671.444C231.67 669.258 259.627 658.977 265.917 665.707C272.207 672.437 282.263 670.255 282.263 670.255Z" fill="#FE9F73"/>
<path d="M415.076 419.176L417.101 431.545C417.101 431.545 399.654 449.148 405.348 471.506C411.041 493.863 426.076 496.558 426.076 496.558C426.076 496.558 449.563 465.079 449.192 454.147C448.825 443.22 448.732 424.047 415.076 419.181V419.176Z" fill="#FE9F73"/>
<path d="M429.065 492.41C429.065 492.41 438.48 482.863 447.23 462.022C445.778 461.122 443.073 460.339 441.346 459.826C436.035 458.251 432.655 459.341 429.784 463.068L418.974 478.891C418.974 478.891 416.896 482.931 421.459 487.602C423.215 489.397 429.07 492.41 429.07 492.41H429.065Z" fill="#F78A5E"/>
<path d="M331.702 722.322L331.482 765.794L332.969 765.801L333.189 722.33L331.702 722.322Z" fill="black"/>
<path d="M328.523 724.537L327.922 723.177C353.204 712.025 376.696 690.568 387.818 675.352C397.659 661.897 401.88 651.948 401.919 651.845L403.293 652.423C403.249 652.525 398.975 662.62 389.021 676.228C377.781 691.6 354.055 713.273 328.523 724.537Z" fill="black"/>
<path d="M226.069 444.712C224.587 440.516 213.871 439.958 210.721 440.521C208.686 440.883 210.814 480.393 209.161 482.193C209.161 482.193 208.862 482.687 214.062 482.868C219.794 483.068 223.77 480.652 223.77 480.652C223.77 480.652 227.546 448.909 226.064 444.712H226.069Z" fill="#F78A5E"/>
<path d="M426.389 497.394L425.9 497.277C419.116 495.673 413.736 489.632 413.511 489.373C412.992 488.766 401.088 474.563 403.465 458.031C405.832 441.577 419.625 428.18 420.212 427.618L421.244 428.694C421.102 428.826 407.231 442.311 404.937 458.246C402.658 474.098 414.514 488.258 414.636 488.4C414.68 488.448 419.664 494.034 425.763 495.707L439.165 476.788C453.188 456.544 446.721 440.702 446.658 440.54L448.027 439.958C448.101 440.129 449.808 444.204 449.725 450.919C449.646 457.077 447.959 466.708 440.388 477.644L426.394 497.394H426.389Z" fill="black"/>
<path d="M416.367 431.668L392.846 296.194L394.318 295.954L417.835 431.423L416.367 431.668Z" fill="black"/>
<path d="M433.54 356.536L432.327 355.675C432.43 355.528 442.633 340.948 435.149 332.422C427.563 323.785 400.755 329.688 400.486 329.747L400.158 328.294C401.293 328.04 428.101 322.141 436.265 331.439C444.526 340.845 433.99 355.9 433.54 356.536Z" fill="black"/>
<path d="M231.973 683.422C231.753 683.579 231.465 683.618 231.2 683.506C222.348 679.612 214.072 666.626 213.72 666.074C213.49 665.707 213.597 665.227 213.964 664.993C214.331 664.763 214.815 664.87 215.045 665.237C215.128 665.369 223.419 678.375 231.831 682.072C232.228 682.248 232.408 682.708 232.232 683.104C232.174 683.236 232.081 683.349 231.973 683.427V683.422Z" fill="#000100"/>
<path d="M242.685 681.784C242.513 681.906 242.293 681.96 242.073 681.916C232.589 680.023 221.702 669.126 221.247 668.666C220.944 668.358 220.944 667.859 221.252 667.556C221.56 667.247 222.059 667.252 222.362 667.556C222.47 667.663 233.372 678.575 242.381 680.37C242.807 680.453 243.081 680.869 242.998 681.295C242.958 681.5 242.841 681.666 242.685 681.779V681.784Z" fill="#000100"/>
<path d="M254.883 700.262L254.433 698.844C254.526 698.815 263.765 695.792 272.026 686.411C279.651 677.754 287.996 661.735 284.43 634.599C280.845 607.283 272.012 587.141 265.228 575.05C257.881 561.952 251.293 555.227 251.229 555.158L250.985 554.914L251.014 554.566C251.078 553.867 257.309 484.428 250.305 460.652C246.113 446.409 232.726 433.375 222.225 433.301C222.215 433.301 222.21 433.301 222.201 433.301C217.011 433.277 213.26 436.51 211.357 442.658C210.8 444.458 210.398 446.517 210.164 448.782C210.232 449.965 211.215 467.529 209.767 483.875C209.058 491.946 207.865 498.485 206.226 503.322C200.621 519.874 186.637 567.968 185.307 588.765C184.016 608.946 202.68 694.051 202.871 694.911L201.418 695.229C200.646 691.722 182.519 609.063 183.825 588.672C185.165 567.738 199.193 519.458 204.818 502.848C206.417 498.123 207.586 491.696 208.285 483.748C209.767 467.016 208.687 448.992 208.677 448.811V448.752V448.694C208.921 446.312 209.347 444.135 209.934 442.223C212.609 433.59 218.077 431.795 222.206 431.819C222.215 431.819 222.225 431.819 222.235 431.819C227.522 431.858 233.793 434.964 239.432 440.349C245.208 445.862 249.576 452.924 251.728 460.237C258.634 483.68 253.049 548.472 252.525 554.371C253.792 555.721 259.847 562.436 266.49 574.273C273.347 586.481 282.278 606.828 285.897 634.409C287.502 646.641 286.881 657.71 284.053 667.311C281.779 675.019 278.091 681.798 273.083 687.462C264.543 697.122 255.269 700.145 254.878 700.267L254.883 700.262Z" fill="black"/>
<path d="M665.437 351.077C665.437 351.077 635.616 349.336 629.326 361.583C623.036 373.83 648.807 399.685 664.679 399.147C680.55 398.609 665.437 351.077 665.437 351.077Z" fill="#FE9F73"/>
<path d="M818.699 731.668C818.699 731.668 739.601 709.736 717.141 662.361C694.681 614.991 778.993 592.927 777.805 593.152C776.616 593.377 868.907 600.533 877.525 613.651C886.148 626.769 923.452 681.168 912.77 683.188C902.093 685.203 818.699 731.668 818.699 731.668Z" fill="#ED7163"/>
<path d="M672.314 296.111C672.314 295.998 672.319 295.891 672.324 295.778C672.485 292.046 675.415 289.019 679.142 288.74C679.25 288.73 679.362 288.725 679.475 288.716C679.514 288.716 679.548 288.711 679.582 288.711L844.29 286.03C844.329 286.03 844.363 286.03 844.398 286.03C844.51 286.03 844.618 286.035 844.73 286.04C848.462 286.201 851.49 289.131 851.773 292.853C851.783 292.961 851.788 293.073 851.798 293.186C851.798 293.225 851.803 293.259 851.808 293.294L857.379 635.763C857.437 639.324 854.595 642.259 851.035 642.317L684.429 645.027C680.868 645.086 677.934 642.249 677.875 638.683L672.304 296.214C672.304 296.174 672.304 296.14 672.304 296.106L672.314 296.111Z" fill="#76ADE5"/>
<path d="M854.615 291.137L840.993 282.132L680.516 285.16L666.64 297.769C666.64 297.769 668.235 312.07 669.12 312.276C670.005 312.481 856.327 311.616 856.273 308.749C856.219 305.883 854.62 291.141 854.62 291.141L854.615 291.137Z" fill="#608FC0"/>
<g opacity="0.5">
<path d="M837.525 299.026C837.54 300.033 838.156 300.889 839.022 301.261C839.33 301.398 839.678 301.471 840.044 301.462C840.401 301.457 840.744 301.374 841.052 301.227C841.908 300.831 842.495 299.95 842.48 298.943C842.456 297.573 841.326 296.483 839.961 296.507C838.592 296.531 837.501 297.656 837.525 299.026Z" fill="white"/>
<path d="M829.861 299.148C829.876 300.156 830.492 301.012 831.358 301.383C831.666 301.52 832.013 301.594 832.38 301.584C832.742 301.579 833.089 301.496 833.392 301.349C834.248 300.948 834.835 300.073 834.816 299.065C834.791 297.696 833.666 296.605 832.297 296.629C830.927 296.654 829.837 297.779 829.861 299.148Z" fill="white"/>
<path d="M822.197 299.276C822.211 300.283 822.828 301.139 823.693 301.511C824.002 301.648 824.349 301.721 824.716 301.711C825.082 301.702 825.425 301.623 825.728 301.477C826.584 301.076 827.171 300.2 827.151 299.193C827.127 297.823 826.002 296.732 824.632 296.757C823.263 296.781 822.172 297.906 822.197 299.276Z" fill="white"/>
</g>
<path d="M672.368 299.98C672.27 293.822 677.18 288.75 683.333 288.647L840.533 286.089C846.691 285.991 851.763 290.897 851.866 297.055L857.32 632.217C857.408 637.739 853.006 642.283 847.489 642.371L687.98 644.969C682.463 645.057 677.914 640.659 677.826 635.137L672.373 299.975L672.368 299.98ZM664.791 299.916L670.304 638.532C670.47 648.691 678.839 656.79 688.997 656.624L846.853 654.056C857.012 653.89 865.111 645.521 864.945 635.362L859.433 296.747C859.266 286.588 850.898 278.488 840.739 278.655L682.884 281.222C672.725 281.389 664.625 289.757 664.791 299.916Z" fill="#20111D"/>
<path d="M931.278 787.774C893.612 819.693 848.814 841.483 800.373 855.653L800.451 790.635L800.475 768.273L802.295 726.136L802.27 726.004L802.192 725.564L802.647 725.334L803.64 724.83L845.801 703.632H845.811L873.455 689.732L874.575 689.169C874.575 689.169 855.534 686.763 843.135 667.071C843.121 667.052 843.116 667.032 843.101 667.013C843.091 666.998 843.086 666.988 843.082 666.974C840.793 663.34 838.738 659.114 837.066 654.213C835.872 650.701 834.869 646.837 834.136 642.596C833.49 638.918 833.045 634.961 832.825 630.691C832.492 624.132 832.517 617.916 832.81 612.051C833.026 607.874 833.378 603.883 833.842 600.068C834.395 595.475 835.114 591.157 835.936 587.112C838.21 575.936 841.301 566.872 844.119 560.137C847.953 550.952 851.264 546.1 851.264 546.1C851.264 546.1 847.259 531.769 843.194 513.853C842.857 512.39 842.529 510.908 842.201 509.407C837.775 489.28 833.652 465.925 834.987 453.325C836.396 439.885 844.95 426.865 853.92 422.247C856.449 420.937 859.022 420.306 861.467 420.521C864.774 420.814 867.87 422.649 870.369 426.488C870.741 427.055 871.098 427.672 871.44 428.327C871.885 429.188 872.311 430.122 872.707 431.135C872.707 431.135 872.707 431.144 872.717 431.154C873.103 432.142 873.465 433.194 873.793 434.328C873.793 434.328 874.409 439.401 875.661 446.615C875.72 446.957 875.784 447.309 875.842 447.666C875.901 447.999 875.96 448.332 876.018 448.655C877.031 454.201 878.376 460.75 880.083 467.162V467.182C880.083 467.182 880.083 467.182 880.083 467.192C880.215 467.7 880.357 468.219 880.499 468.723C882.386 475.57 884.695 482.144 887.424 487.045C896.717 503.728 918.502 547.538 923.501 567.494C928.495 587.439 925.414 675.264 925.414 675.264L931.283 787.764L931.278 787.774Z" fill="#FE9F73"/>
<path d="M667.692 516.538L667.936 529.069C667.936 529.069 688.273 543.234 686.713 566.246C685.153 589.264 670.851 594.629 670.851 594.629C670.851 594.629 642.067 567.909 640.458 557.09C638.849 546.276 635.474 527.401 667.697 516.538H667.692Z" fill="#FE9F73"/>
<path d="M667.154 591.098C667.154 591.098 656.168 583.409 643.799 564.49C645.065 563.341 647.584 562.089 649.193 561.272C654.133 558.763 657.65 559.228 661.152 562.373L674.642 575.984C674.642 575.984 677.415 579.584 673.771 584.999C672.372 587.082 667.154 591.103 667.154 591.103V591.098Z" fill="#F78A5E"/>
<path d="M670.695 595.52L653.366 578.621C643.935 569.23 640.541 560.059 639.348 554.019C638.052 547.43 638.996 543.111 639.035 542.93L640.487 543.258C640.448 543.424 636.951 560.176 654.407 577.559L670.998 593.739C677.303 590.677 680.58 584.632 680.614 584.568C680.721 584.387 689.824 568.32 684.718 553.138C679.587 537.878 663.505 527.122 663.343 527.015L664.165 525.772C664.845 526.218 680.834 536.909 686.131 552.664C691.453 568.491 682.311 584.612 681.915 585.292C681.783 585.547 678.237 592.11 671.154 595.309L670.69 595.52H670.695Z" fill="black"/>
<path d="M669.506 601.868L669.697 611.66C669.697 611.66 685.588 622.729 684.37 640.713C683.152 658.698 671.976 662.89 671.976 662.89C671.976 662.89 649.482 642.009 648.225 633.558C646.968 625.106 644.332 610.359 669.511 601.868H669.506Z" fill="#FE9F73"/>
<path d="M669.086 660.131C669.086 660.131 660.502 654.12 650.837 639.339C651.83 638.439 653.796 637.461 655.053 636.82C658.912 634.859 661.661 635.221 664.4 637.681L674.94 648.314C674.94 648.314 677.107 651.126 674.261 655.357C673.165 656.986 669.091 660.126 669.091 660.126L669.086 660.131Z" fill="#F78A5E"/>
<path d="M671.854 663.584L658.315 650.378C644.19 636.311 646.993 623.047 647.12 622.489L648.254 622.743C648.225 622.875 645.491 635.964 659.132 649.547L672.099 662.19C677.039 659.793 679.587 655.073 679.611 655.025C679.694 654.883 686.806 642.327 682.82 630.461C678.809 618.537 666.244 610.134 666.117 610.051L666.757 609.083C667.286 609.43 679.783 617.784 683.92 630.095C688.078 642.464 680.932 655.059 680.629 655.592C680.526 655.792 677.753 660.918 672.221 663.423L671.859 663.584H671.854Z" fill="black"/>
<path d="M842.133 665.34C842.133 665.34 859.203 693.146 845.806 703.637C832.409 714.124 883.687 708.988 883.413 707.526C883.14 706.063 910.09 656.296 900.904 655.758C891.714 655.22 862.362 650.163 857.393 657.915C852.419 665.668 842.133 665.34 842.133 665.34Z" fill="#FE9F73"/>
<path d="M666.161 442.374L666.405 454.905C666.405 454.905 686.743 469.07 685.182 492.083C683.622 515.1 669.32 520.466 669.32 520.466C669.32 520.466 640.536 493.741 638.927 482.926C637.318 472.112 633.943 453.237 666.166 442.374H666.161Z" fill="#FE9F73"/>
<path d="M665.623 516.929C665.623 516.929 654.637 509.24 642.268 490.322C643.535 489.172 646.054 487.92 647.663 487.103C652.603 484.594 656.119 485.059 659.621 488.204L673.111 501.816C673.111 501.816 675.884 505.416 672.24 510.83C670.842 512.914 665.623 516.934 665.623 516.934V516.929Z" fill="#F78A5E"/>
<path d="M801.414 725.531L799.688 790.599L801.174 790.638L802.901 725.57L801.414 725.531Z" fill="black"/>
<path d="M806.433 727.08C779.282 720.614 752.034 703.578 738.207 690.49C725.959 678.898 719.929 669.742 719.87 669.649L721.117 668.837C721.176 668.925 727.123 677.949 739.229 689.409C752.919 702.365 779.898 719.23 806.78 725.632L806.433 727.08Z" fill="black"/>
<path d="M856.674 433.36C857.373 428.968 867.811 426.478 871.01 426.464C873.074 426.454 878.117 465.695 880.068 467.172C880.068 467.172 880.45 467.603 875.368 468.723C869.767 469.955 865.414 468.297 865.414 468.297C865.414 468.297 855.97 437.757 856.669 433.36H856.674Z" fill="#F78A5E"/>
<path d="M669.159 521.346L651.835 504.452C642.405 495.061 639.01 485.89 637.817 479.85C636.521 473.262 637.465 468.943 637.504 468.762L638.957 469.089C638.917 469.256 635.42 486.008 652.877 503.391L669.472 519.57C675.165 516.827 679.064 510.429 679.103 510.365C679.191 510.214 688.293 494.151 683.187 478.969C678.056 463.709 661.974 452.954 661.813 452.846L662.634 451.604C663.314 452.049 679.303 462.741 684.6 478.495C689.922 494.323 680.78 510.444 680.384 511.124C680.203 511.427 675.997 518.338 669.619 521.145L669.159 521.346Z" fill="black"/>
<path d="M666.175 454.92L664.488 317.514L665.461 317.485L667.149 454.891L666.175 454.92Z" fill="black"/>
<path d="M636.687 384.097C636.129 383.554 623.051 370.651 629.473 359.905C635.826 349.287 663.256 350.245 664.42 350.294L664.361 351.781C664.087 351.772 636.648 350.808 630.749 360.673C624.929 370.407 637.592 382.908 637.719 383.031L636.682 384.097H636.687Z" fill="black"/>
<path d="M893.973 669.209C894.218 669.321 894.511 669.312 894.751 669.15C902.753 663.726 908.554 649.454 908.793 648.847C908.955 648.446 908.759 647.991 908.358 647.825C907.957 647.664 907.497 647.859 907.336 648.26C907.277 648.402 901.471 662.694 893.866 667.849C893.509 668.094 893.416 668.578 893.655 668.94C893.739 669.062 893.846 669.15 893.969 669.209H893.973Z" fill="#000100"/>
<path d="M883.14 669.532C883.33 669.62 883.555 669.634 883.766 669.551C892.751 665.981 901.491 653.293 901.858 652.755C902.102 652.398 902.009 651.909 901.652 651.664C901.295 651.42 900.806 651.513 900.562 651.87C900.474 651.997 891.723 664.694 883.184 668.089C882.783 668.25 882.582 668.705 882.743 669.106C882.822 669.297 882.963 669.444 883.14 669.527V669.532Z" fill="#000100"/>
<path d="M874.483 689.908C874.077 689.859 864.407 688.558 854.263 680.6C848.315 675.929 843.458 669.928 839.834 662.762C835.315 653.831 832.708 643.056 832.077 630.735C830.658 602.954 835.769 581.33 840.308 568.08C844.706 555.241 849.445 547.543 850.453 545.987C848.868 540.284 831.676 477.561 834.234 453.257C835.031 445.676 838.049 437.943 842.739 431.477C847.317 425.162 852.918 420.971 858.112 419.978C862.172 419.2 867.894 419.963 872.091 427.99C873.015 429.765 873.827 431.829 874.497 434.128L874.522 434.245C874.541 434.426 876.737 452.347 881.213 468.537C883.335 476.23 885.644 482.339 888.075 486.697C896.605 502.016 919.124 546.97 924.22 567.317C929.185 587.136 926.284 671.713 926.157 675.303L924.67 675.249C924.699 674.374 927.693 587.293 922.777 567.679C917.715 547.469 895.279 502.691 886.774 487.421C884.289 482.961 881.937 476.739 879.78 468.933C875.407 453.115 873.196 435.669 873.054 434.485C872.414 432.303 871.646 430.352 870.775 428.679C867.787 422.966 863.507 420.467 858.396 421.44C848.08 423.407 837.271 438.647 835.721 453.413C833.123 478.065 851.793 545.239 851.983 545.914L852.076 546.247L851.881 546.535C851.827 546.613 846.564 554.415 841.702 568.628C837.217 581.741 832.165 603.15 833.568 630.662C834.967 658.047 846.095 672.3 855.187 679.436C865.008 687.144 874.58 688.426 874.673 688.441L874.487 689.918L874.483 689.908Z" fill="black"/>
<path d="M500.983 501.111L287.066 544.882C283.1 545.694 279.226 543.136 278.414 539.169L251.982 409.995C251.17 406.028 253.728 402.155 257.695 401.343L471.612 357.572C475.579 356.76 479.453 359.318 480.265 363.285L506.696 492.459C507.508 496.426 504.95 500.299 500.983 501.111Z" fill="#3649DB"/>
<g opacity="0.1">
<path d="M416.024 487.915C436.286 467.653 436.286 434.801 416.024 414.539C395.762 394.277 362.91 394.277 342.648 414.539C322.386 434.801 322.386 467.653 342.648 487.915C362.91 508.177 395.762 508.177 416.024 487.915Z" fill="white"/>
</g>
<path d="M292.74 494.758C292.681 495.501 292.505 496.137 292.217 496.661C291.928 497.184 291.537 497.605 291.043 497.922C290.549 498.24 289.962 498.47 289.282 498.607C288.602 498.744 287.971 498.769 287.389 498.671C286.802 498.573 286.274 498.338 285.804 497.971C285.33 497.605 284.924 497.086 284.577 496.426C284.229 495.766 283.955 494.939 283.755 493.951L283.261 491.54C283.06 490.552 282.987 489.686 283.046 488.942C283.104 488.199 283.281 487.563 283.569 487.04C283.858 486.516 284.254 486.091 284.753 485.773C285.252 485.455 285.843 485.225 286.518 485.083C287.198 484.946 287.824 484.927 288.406 485.025C288.984 485.122 289.512 485.357 289.981 485.724C290.456 486.091 290.862 486.609 291.209 487.27C291.556 487.93 291.83 488.757 292.031 489.745L292.525 492.156C292.725 493.144 292.799 494.01 292.74 494.753V494.758ZM290.407 490.077C290.255 489.329 290.055 488.698 289.82 488.194C289.58 487.69 289.306 487.299 289.003 487.01C288.695 486.727 288.357 486.541 287.991 486.453C287.619 486.37 287.228 486.365 286.812 486.453C286.396 486.536 286.034 486.693 285.726 486.918C285.418 487.143 285.183 487.446 285.012 487.827C284.841 488.209 284.748 488.678 284.723 489.236C284.699 489.793 284.767 490.444 284.919 491.197L285.413 493.609C285.565 494.357 285.76 494.988 286 495.492C286.24 495.995 286.514 496.392 286.817 496.675C287.12 496.959 287.462 497.145 287.829 497.233C288.201 497.321 288.592 497.321 289.008 497.233C289.424 497.15 289.786 496.993 290.094 496.768C290.402 496.543 290.637 496.24 290.808 495.858C290.979 495.477 291.072 495.007 291.097 494.45C291.121 493.892 291.052 493.242 290.901 492.488L290.407 490.077Z" fill="white"/>
<path d="M303.549 492.547C303.491 493.291 303.314 493.926 303.026 494.45C302.737 494.973 302.346 495.394 301.852 495.712C301.358 496.03 300.771 496.259 300.091 496.396C299.411 496.533 298.78 496.558 298.198 496.46C297.611 496.362 297.083 496.127 296.614 495.761C296.139 495.394 295.733 494.875 295.386 494.215C295.039 493.555 294.765 492.728 294.564 491.74L294.07 489.329C293.87 488.341 293.796 487.475 293.855 486.732C293.914 485.988 294.09 485.352 294.378 484.829C294.667 484.306 295.063 483.88 295.562 483.562C296.061 483.244 296.653 483.014 297.328 482.873C298.008 482.736 298.634 482.716 299.216 482.814C299.793 482.912 300.321 483.146 300.791 483.513C301.265 483.88 301.671 484.399 302.018 485.059C302.366 485.719 302.639 486.546 302.84 487.534L303.334 489.945C303.535 490.933 303.608 491.799 303.549 492.542V492.547ZM301.216 487.866C301.065 487.118 300.864 486.487 300.629 485.983C300.39 485.48 300.116 485.088 299.812 484.8C299.504 484.516 299.167 484.33 298.8 484.242C298.428 484.159 298.037 484.154 297.621 484.242C297.205 484.325 296.844 484.482 296.535 484.707C296.227 484.932 295.992 485.235 295.821 485.616C295.65 485.998 295.557 486.468 295.533 487.025C295.508 487.583 295.577 488.233 295.728 488.986L296.222 491.398C296.374 492.146 296.575 492.777 296.809 493.281C297.049 493.785 297.323 494.181 297.626 494.464C297.929 494.748 298.272 494.934 298.639 495.022C299.01 495.11 299.402 495.11 299.817 495.022C300.233 494.939 300.595 494.782 300.903 494.557C301.211 494.332 301.446 494.029 301.617 493.648C301.788 493.266 301.881 492.797 301.906 492.239C301.93 491.681 301.862 491.031 301.71 490.278L301.216 487.866Z" fill="white"/>
<path d="M312.774 483.044C312.916 483.748 312.862 484.394 312.613 484.985C312.358 485.577 311.874 486.238 311.15 486.971L309.668 488.483C309.233 488.918 308.885 489.314 308.621 489.671C308.357 490.028 308.166 490.375 308.039 490.713C307.917 491.05 307.849 491.383 307.834 491.716C307.819 492.048 307.853 492.41 307.937 492.801L308.015 493.178L314.036 491.946C314.129 491.926 314.222 491.936 314.3 491.975C314.383 492.014 314.432 492.082 314.452 492.175L314.613 492.963C314.633 493.061 314.613 493.144 314.554 493.217C314.496 493.291 314.417 493.339 314.324 493.359L307.242 494.807C307.149 494.826 307.061 494.807 306.973 494.758C306.89 494.709 306.836 494.636 306.817 494.538L306.523 493.09C306.332 492.161 306.371 491.271 306.636 490.41C306.9 489.549 307.457 488.693 308.303 487.837L309.864 486.252C310.182 485.925 310.441 485.646 310.641 485.406C310.842 485.166 310.994 484.941 311.091 484.731C311.189 484.521 311.248 484.306 311.258 484.09C311.272 483.875 311.248 483.64 311.194 483.376C311.062 482.736 310.764 482.31 310.289 482.1C309.82 481.894 309.101 481.889 308.137 482.085C307.672 482.178 307.159 482.315 306.601 482.486C306.039 482.657 305.516 482.829 305.031 483.005L304.958 483.019C304.767 483.058 304.65 482.97 304.606 482.755L304.479 482.119C304.459 482.021 304.479 481.943 304.532 481.88C304.586 481.816 304.66 481.767 304.753 481.723C305.178 481.508 305.672 481.317 306.225 481.141C306.777 480.965 307.325 480.823 307.858 480.711C309.311 480.412 310.436 480.451 311.233 480.823C312.03 481.195 312.539 481.933 312.769 483.039L312.774 483.044Z" fill="white"/>
<path d="M322.83 491.505C322.786 491.589 322.713 491.642 322.62 491.662L321.637 491.862C321.539 491.882 321.456 491.862 321.382 491.804C321.309 491.745 321.26 491.667 321.241 491.574L318.942 480.334L316.843 481.806C316.765 481.86 316.692 481.894 316.623 481.909C316.516 481.929 316.447 481.875 316.423 481.748L316.237 480.838C316.227 480.779 316.232 480.73 316.256 480.696C316.281 480.662 316.32 480.618 316.369 480.569L318.805 478.73C318.932 478.627 319.049 478.568 319.157 478.544L319.891 478.392C319.983 478.373 320.072 478.392 320.15 478.441C320.228 478.495 320.277 478.568 320.297 478.661L322.869 491.241C322.889 491.339 322.874 491.427 322.83 491.51V491.505Z" fill="white"/>
<path d="M345.681 483.924C345.622 484.668 345.446 485.304 345.158 485.827C344.869 486.35 344.478 486.771 343.984 487.089C343.49 487.407 342.903 487.637 342.223 487.774C341.543 487.91 340.912 487.935 340.33 487.837C339.743 487.739 339.215 487.505 338.745 487.138C338.271 486.771 337.865 486.252 337.518 485.592C337.171 484.932 336.897 484.105 336.696 483.117L336.202 480.706C336.002 479.718 335.928 478.852 335.987 478.109C336.046 477.365 336.222 476.729 336.51 476.206C336.799 475.683 337.195 475.257 337.694 474.939C338.193 474.621 338.785 474.391 339.46 474.25C340.139 474.113 340.766 474.093 341.348 474.191C341.925 474.289 342.453 474.524 342.922 474.89C343.397 475.257 343.803 475.776 344.15 476.436C344.497 477.096 344.771 477.923 344.972 478.911L345.466 481.322C345.666 482.31 345.74 483.176 345.681 483.919V483.924ZM343.348 479.243C343.196 478.495 342.996 477.864 342.761 477.36C342.521 476.857 342.248 476.465 341.944 476.177C341.636 475.893 341.299 475.707 340.932 475.619C340.56 475.536 340.169 475.531 339.753 475.619C339.337 475.702 338.975 475.859 338.667 476.084C338.359 476.309 338.124 476.612 337.953 476.994C337.782 477.375 337.689 477.845 337.665 478.402C337.64 478.96 337.709 479.61 337.86 480.363L338.354 482.775C338.506 483.523 338.701 484.154 338.941 484.658C339.181 485.162 339.455 485.558 339.758 485.842C340.061 486.125 340.404 486.311 340.77 486.399C341.142 486.487 341.533 486.487 341.949 486.399C342.365 486.316 342.727 486.159 343.035 485.934C343.343 485.709 343.578 485.406 343.749 485.025C343.92 484.643 344.013 484.174 344.038 483.616C344.062 483.059 343.994 482.408 343.842 481.655L343.348 479.243Z" fill="white"/>
<path d="M356.168 482.736C356.045 483.264 355.82 483.724 355.493 484.11C355.165 484.501 354.744 484.824 354.231 485.083C353.717 485.343 353.135 485.538 352.48 485.675C351.907 485.793 351.36 485.866 350.841 485.895C350.318 485.925 349.834 485.939 349.389 485.93C349.286 485.93 349.198 485.9 349.124 485.861C349.046 485.822 348.997 485.753 348.978 485.656L348.851 485.039C348.811 484.839 348.89 484.717 349.09 484.673L349.144 484.663C349.697 484.624 350.235 484.575 350.773 484.516C351.306 484.457 351.78 484.384 352.201 484.301C353.179 484.1 353.844 483.763 354.206 483.279C354.568 482.794 354.661 482.129 354.485 481.273L354.407 480.901C354.358 480.662 354.275 480.427 354.157 480.182C354.04 479.943 353.879 479.728 353.673 479.547C353.468 479.366 353.218 479.234 352.925 479.155C352.626 479.072 352.279 479.072 351.873 479.155L348.621 479.821C348.396 479.865 348.259 479.781 348.215 479.566L348.087 478.94C348.043 478.715 348.132 478.578 348.357 478.529L351.609 477.864C352.04 477.776 352.377 477.639 352.622 477.453C352.871 477.267 353.047 477.052 353.15 476.817C353.257 476.578 353.311 476.328 353.321 476.069C353.331 475.81 353.311 475.56 353.262 475.321L353.213 475.071C353.062 474.338 352.744 473.844 352.25 473.589C351.756 473.34 351.007 473.315 349.995 473.521C349.472 473.628 348.992 473.756 348.557 473.897C348.122 474.044 347.618 474.21 347.051 474.401L346.997 474.411C346.796 474.45 346.674 474.372 346.63 474.166L346.498 473.531C346.478 473.447 346.498 473.369 346.552 473.296C346.606 473.222 346.674 473.164 346.767 473.12C347.178 472.934 347.628 472.758 348.117 472.577C348.606 472.401 349.139 472.254 349.711 472.137C350.377 472 350.998 471.931 351.57 471.931C352.142 471.931 352.646 472.029 353.091 472.225C353.536 472.42 353.908 472.714 354.211 473.11C354.514 473.506 354.734 474.039 354.871 474.704L354.92 474.954C355.043 475.56 355.013 476.138 354.827 476.685C354.642 477.233 354.294 477.698 353.791 478.089C354.143 478.177 354.451 478.309 354.71 478.48C354.969 478.652 355.189 478.847 355.37 479.072C355.551 479.297 355.698 479.532 355.815 479.781C355.928 480.031 356.011 480.285 356.065 480.549L356.143 480.926C356.28 481.591 356.285 482.193 356.168 482.716V482.736Z" fill="white"/>
<path d="M366.982 480.525C366.86 481.053 366.635 481.513 366.307 481.899C365.979 482.291 365.558 482.613 365.045 482.873C364.531 483.132 363.949 483.327 363.294 483.464C362.722 483.582 362.174 483.655 361.655 483.684C361.132 483.714 360.648 483.729 360.203 483.719C360.1 483.719 360.012 483.689 359.939 483.65C359.86 483.611 359.811 483.543 359.792 483.445L359.665 482.829C359.626 482.628 359.704 482.506 359.904 482.462L359.958 482.452C360.511 482.413 361.049 482.364 361.587 482.305C362.12 482.246 362.594 482.173 363.015 482.09C363.993 481.889 364.659 481.552 365.02 481.068C365.382 480.584 365.475 479.918 365.299 479.062L365.221 478.691C365.172 478.451 365.089 478.216 364.972 477.972C364.854 477.732 364.693 477.517 364.487 477.336C364.282 477.155 364.032 477.023 363.739 476.945C363.446 476.861 363.093 476.861 362.687 476.945L359.435 477.61C359.21 477.654 359.073 477.571 359.029 477.355L358.902 476.729C358.858 476.504 358.946 476.367 359.171 476.318L362.423 475.653C362.854 475.565 363.191 475.428 363.436 475.242C363.685 475.057 363.861 474.841 363.964 474.607C364.072 474.367 364.125 474.117 364.135 473.858C364.145 473.599 364.125 473.35 364.076 473.11L364.028 472.86C363.876 472.127 363.558 471.633 363.064 471.378C362.57 471.129 361.822 471.105 360.809 471.31C360.286 471.418 359.807 471.545 359.371 471.687C358.936 471.833 358.432 472 357.865 472.19L357.811 472.2C357.61 472.239 357.488 472.161 357.444 471.956L357.312 471.32C357.293 471.237 357.312 471.158 357.366 471.085C357.42 471.012 357.488 470.953 357.581 470.909C357.992 470.723 358.442 470.547 358.931 470.366C359.42 470.19 359.953 470.043 360.526 469.926C361.191 469.789 361.812 469.72 362.384 469.72C362.956 469.72 363.46 469.818 363.905 470.014C364.35 470.209 364.722 470.503 365.025 470.899C365.329 471.295 365.549 471.828 365.686 472.494L365.735 472.743C365.857 473.35 365.827 473.927 365.642 474.475C365.456 475.022 365.109 475.487 364.605 475.878C364.957 475.966 365.265 476.098 365.524 476.27C365.783 476.441 366.004 476.636 366.185 476.861C366.366 477.086 366.512 477.321 366.63 477.571C366.742 477.82 366.825 478.074 366.879 478.339L366.957 478.715C367.094 479.38 367.099 479.982 366.982 480.505V480.525Z" fill="white"/>
<path d="M375.766 480.672C375.722 480.755 375.649 480.809 375.556 480.828L374.573 481.029C374.475 481.048 374.392 481.029 374.319 480.97C374.245 480.911 374.196 480.833 374.177 480.74L371.878 469.5L369.78 470.973C369.701 471.026 369.628 471.061 369.56 471.075C369.452 471.095 369.383 471.041 369.359 470.914L369.173 470.004C369.163 469.945 369.168 469.897 369.193 469.862C369.217 469.828 369.256 469.784 369.305 469.735L371.741 467.896C371.868 467.793 371.986 467.735 372.093 467.71L372.827 467.559C372.92 467.539 373.008 467.559 373.086 467.608C373.164 467.661 373.213 467.735 373.233 467.828L375.806 480.408C375.825 480.5 375.81 480.593 375.766 480.677V480.672Z" fill="white"/>
<path d="M398.794 472.386L397.238 472.704L397.889 475.883C397.909 475.981 397.899 476.069 397.86 476.152C397.821 476.235 397.752 476.284 397.654 476.304L396.608 476.519C396.51 476.539 396.427 476.519 396.358 476.46C396.29 476.402 396.246 476.323 396.226 476.226L395.576 473.046L390.425 474.098C390.151 474.152 389.951 474.142 389.824 474.064C389.696 473.985 389.603 473.814 389.55 473.55L389.413 472.87C389.364 472.621 389.388 472.386 389.491 472.166L393.247 463.67C393.282 463.587 393.326 463.514 393.384 463.435C393.443 463.362 393.551 463.308 393.702 463.279L394.768 463.059C395.081 462.995 395.267 463.093 395.321 463.357L396.95 471.33L398.505 471.012C398.603 470.992 398.686 471.007 398.765 471.051C398.843 471.1 398.892 471.168 398.911 471.266L399.058 471.99C399.102 472.205 399.009 472.337 398.784 472.386H398.794ZM394.069 465.573C394.054 465.499 394.025 465.47 393.976 465.48H393.957C393.908 465.495 393.869 465.539 393.834 465.622L390.919 472.308C390.895 472.362 390.885 472.415 390.895 472.459C390.909 472.533 390.963 472.557 391.061 472.538L395.316 471.667L394.069 465.573Z" fill="white"/>
<path d="M409.27 471.056C409.212 471.77 409.031 472.381 408.723 472.89C408.419 473.399 407.994 473.814 407.451 474.127C406.908 474.445 406.253 474.68 405.494 474.837C404.78 474.983 404.174 475.076 403.68 475.115C403.186 475.154 402.746 475.169 402.359 475.159C402.237 475.159 402.124 475.145 402.032 475.115C401.939 475.086 401.88 475.013 401.86 474.905L401.714 474.201C401.694 474.093 401.704 474.005 401.753 473.941C401.802 473.878 401.875 473.834 401.968 473.814C401.992 473.814 402.012 473.809 402.022 473.814C402.036 473.814 402.051 473.814 402.076 473.814C402.55 473.814 403.044 473.79 403.558 473.736C404.071 473.682 404.619 473.594 405.191 473.477C405.881 473.335 406.409 473.125 406.776 472.846C407.143 472.567 407.397 472.234 407.539 471.848C407.681 471.462 407.735 471.017 407.695 470.518C407.656 470.019 407.578 469.481 407.456 468.899L407.417 468.703C407.055 468.864 406.663 469.031 406.243 469.197C405.822 469.363 405.338 469.5 404.79 469.613C404.208 469.73 403.636 469.789 403.083 469.774C402.53 469.764 402.022 469.657 401.557 469.456C401.092 469.251 400.691 468.933 400.359 468.503C400.021 468.067 399.782 467.495 399.635 466.781L399.615 466.673C399.327 465.255 399.459 464.076 400.016 463.127C400.574 462.183 401.586 461.557 403.049 461.259C404.394 460.985 405.538 461.176 406.478 461.831C407.417 462.487 408.067 463.695 408.429 465.446L409.07 468.571C409.265 469.525 409.334 470.356 409.275 471.07L409.27 471.056ZM406.815 465.749C406.668 465.025 406.482 464.433 406.267 463.978C406.052 463.523 405.798 463.176 405.504 462.936C405.216 462.697 404.888 462.555 404.521 462.506C404.159 462.457 403.763 462.477 403.333 462.565C402.917 462.648 402.55 462.78 402.232 462.956C401.914 463.132 401.66 463.372 401.464 463.67C401.269 463.969 401.151 464.335 401.102 464.766C401.053 465.196 401.092 465.715 401.215 466.321L401.234 466.429C401.332 466.903 401.489 467.285 401.709 467.573C401.929 467.862 402.188 468.072 402.491 468.204C402.79 468.336 403.112 468.405 403.455 468.414C403.797 468.424 404.149 468.395 404.506 468.322C404.722 468.278 404.952 468.224 405.196 468.15C405.441 468.082 405.685 468.009 405.925 467.925C406.164 467.847 406.389 467.764 406.6 467.676C406.81 467.588 406.991 467.515 407.138 467.446L406.81 465.749H406.815Z" fill="white"/>
<path d="M418.656 461.381C418.798 462.085 418.745 462.731 418.495 463.323C418.241 463.915 417.757 464.575 417.033 465.309L415.551 466.82C415.115 467.255 414.768 467.651 414.504 468.009C414.24 468.366 414.049 468.713 413.922 469.05C413.8 469.388 413.731 469.72 413.716 470.053C413.702 470.386 413.736 470.748 413.819 471.139L413.897 471.515L419.918 470.283C420.011 470.263 420.104 470.273 420.183 470.312C420.266 470.351 420.315 470.42 420.334 470.513L420.496 471.3C420.515 471.398 420.496 471.481 420.437 471.555C420.378 471.628 420.3 471.677 420.207 471.696L413.125 473.144C413.032 473.164 412.944 473.144 412.856 473.095C412.773 473.046 412.719 472.973 412.699 472.875L412.406 471.427C412.215 470.498 412.254 469.608 412.518 468.747C412.782 467.886 413.34 467.03 414.186 466.174L415.746 464.59C416.064 464.262 416.323 463.983 416.524 463.743C416.725 463.504 416.876 463.279 416.974 463.068C417.072 462.858 417.13 462.643 417.14 462.428C417.155 462.213 417.13 461.978 417.077 461.714C416.945 461.073 416.646 460.647 416.172 460.437C415.702 460.232 414.983 460.227 414.02 460.422C413.555 460.515 413.042 460.652 412.484 460.823C411.921 460.995 411.398 461.166 410.914 461.342L410.84 461.357C410.65 461.396 410.532 461.308 410.488 461.092L410.361 460.457C410.342 460.359 410.361 460.281 410.415 460.217C410.469 460.153 410.542 460.104 410.635 460.06C411.061 459.845 411.555 459.655 412.107 459.478C412.66 459.302 413.208 459.161 413.741 459.048C415.194 458.75 416.319 458.789 417.116 459.16C417.913 459.532 418.422 460.271 418.652 461.376L418.656 461.381Z" fill="white"/>
<path d="M428.708 469.843C428.664 469.926 428.59 469.98 428.497 469.999L427.514 470.2C427.417 470.219 427.333 470.2 427.26 470.141C427.187 470.082 427.138 470.004 427.118 469.911L424.819 458.671L422.721 460.144C422.643 460.198 422.569 460.232 422.501 460.246C422.393 460.266 422.325 460.212 422.3 460.085L422.115 459.175C422.105 459.117 422.11 459.068 422.134 459.033C422.159 458.999 422.198 458.955 422.247 458.906L424.682 457.067C424.81 456.965 424.927 456.906 425.035 456.881L425.768 456.73C425.861 456.71 425.949 456.73 426.027 456.779C426.106 456.832 426.155 456.906 426.174 456.999L428.747 469.579C428.766 469.672 428.752 469.764 428.708 469.848V469.843Z" fill="white"/>
<path d="M449.979 454.969C450.121 455.673 450.067 456.319 449.818 456.911C449.563 457.502 449.079 458.163 448.355 458.896L446.873 460.408C446.438 460.843 446.091 461.239 445.826 461.596C445.562 461.953 445.372 462.301 445.244 462.638C445.122 462.976 445.054 463.308 445.039 463.641C445.024 463.973 445.059 464.335 445.142 464.727L445.22 465.103L451.241 463.871C451.334 463.851 451.427 463.861 451.505 463.9C451.588 463.939 451.637 464.008 451.657 464.101L451.818 464.888C451.838 464.986 451.818 465.069 451.759 465.142C451.701 465.216 451.622 465.265 451.529 465.284L444.447 466.732C444.354 466.752 444.266 466.732 444.178 466.683C444.095 466.634 444.041 466.561 444.022 466.463L443.728 465.015C443.537 464.086 443.577 463.196 443.841 462.335C444.105 461.474 444.662 460.618 445.508 459.762L447.069 458.177C447.387 457.85 447.646 457.571 447.846 457.331C448.047 457.092 448.199 456.867 448.296 456.656C448.394 456.446 448.453 456.231 448.463 456.016C448.477 455.8 448.453 455.566 448.399 455.301C448.267 454.661 447.969 454.235 447.494 454.025C447.025 453.819 446.306 453.815 445.342 454.01C444.878 454.103 444.364 454.24 443.806 454.411C443.244 454.582 442.721 454.754 442.236 454.93L442.163 454.944C441.972 454.984 441.855 454.896 441.811 454.68L441.684 454.044C441.664 453.947 441.684 453.868 441.737 453.805C441.791 453.741 441.865 453.692 441.958 453.648C442.383 453.433 442.877 453.242 443.43 453.066C443.982 452.89 444.53 452.748 445.063 452.636C446.516 452.337 447.641 452.377 448.438 452.748C449.236 453.12 449.744 453.859 449.974 454.964L449.979 454.969Z" fill="white"/>
<path d="M462.373 460.046C462.315 460.789 462.138 461.425 461.85 461.948C461.561 462.472 461.17 462.892 460.676 463.21C460.182 463.528 459.595 463.758 458.915 463.895C458.235 464.032 457.604 464.057 457.022 463.959C456.435 463.861 455.907 463.626 455.438 463.259C454.963 462.892 454.557 462.374 454.21 461.714C453.863 461.053 453.589 460.227 453.388 459.239L452.894 456.827C452.694 455.839 452.62 454.974 452.679 454.23C452.738 453.487 452.914 452.851 453.202 452.328C453.491 451.804 453.887 451.379 454.386 451.061C454.885 450.743 455.477 450.513 456.152 450.371C456.832 450.234 457.458 450.215 458.04 450.313C458.617 450.41 459.145 450.645 459.615 451.012C460.089 451.379 460.495 451.897 460.842 452.558C461.19 453.218 461.463 454.044 461.664 455.032L462.158 457.444C462.359 458.432 462.432 459.297 462.373 460.041V460.046ZM460.04 455.365C459.889 454.617 459.688 453.986 459.453 453.482C459.214 452.978 458.94 452.587 458.636 452.298C458.328 452.015 457.991 451.829 457.624 451.741C457.252 451.658 456.861 451.653 456.445 451.741C456.029 451.824 455.667 451.98 455.359 452.205C455.051 452.43 454.816 452.734 454.645 453.115C454.474 453.497 454.381 453.966 454.357 454.524C454.332 455.081 454.401 455.732 454.552 456.485L455.046 458.896C455.198 459.645 455.394 460.276 455.633 460.779C455.873 461.283 456.147 461.679 456.45 461.963C456.753 462.247 457.096 462.433 457.463 462.521C457.834 462.609 458.226 462.609 458.641 462.521C459.057 462.438 459.419 462.281 459.727 462.056C460.035 461.831 460.27 461.528 460.441 461.146C460.612 460.765 460.705 460.295 460.73 459.738C460.754 459.18 460.686 458.53 460.534 457.776L460.04 455.365Z" fill="white"/>
<path d="M471.598 450.547C471.74 451.252 471.686 451.897 471.436 452.489C471.182 453.081 470.698 453.741 469.974 454.475L468.492 455.986C468.057 456.422 467.709 456.818 467.445 457.175C467.181 457.532 466.99 457.879 466.863 458.217C466.741 458.554 466.673 458.887 466.658 459.219C466.643 459.552 466.677 459.914 466.761 460.305L466.839 460.682L472.86 459.449C472.953 459.43 473.046 459.439 473.124 459.478C473.207 459.518 473.256 459.586 473.276 459.679L473.437 460.466C473.457 460.564 473.437 460.647 473.378 460.721C473.32 460.794 473.241 460.843 473.148 460.863L466.066 462.31C465.973 462.33 465.885 462.31 465.797 462.262C465.714 462.213 465.66 462.139 465.641 462.041L465.347 460.594C465.156 459.664 465.195 458.774 465.46 457.913C465.724 457.052 466.281 456.197 467.127 455.341L468.688 453.756C469.006 453.428 469.265 453.149 469.465 452.91C469.666 452.67 469.818 452.445 469.915 452.235C470.013 452.024 470.072 451.809 470.082 451.594C470.096 451.379 470.072 451.144 470.018 450.88C469.886 450.239 469.588 449.814 469.113 449.603C468.644 449.398 467.925 449.393 466.961 449.589C466.496 449.682 465.983 449.819 465.425 449.985C464.863 450.156 464.339 450.327 463.855 450.503L463.782 450.518C463.591 450.557 463.474 450.469 463.43 450.254L463.303 449.618C463.283 449.52 463.303 449.442 463.356 449.378C463.41 449.315 463.484 449.266 463.576 449.222C464.002 449.007 464.496 448.816 465.049 448.64C465.601 448.464 466.149 448.322 466.682 448.209C468.135 447.911 469.26 447.95 470.057 448.322C470.854 448.694 471.363 449.432 471.593 450.538L471.598 450.547Z" fill="white"/>
<path d="M481.649 459.009C481.605 459.092 481.531 459.146 481.438 459.165L480.455 459.366C480.357 459.386 480.274 459.366 480.201 459.307C480.128 459.249 480.079 459.17 480.059 459.077L477.76 447.838L475.662 449.31C475.584 449.364 475.51 449.398 475.442 449.413C475.334 449.432 475.266 449.378 475.241 449.251L475.056 448.341C475.046 448.283 475.051 448.234 475.075 448.2C475.1 448.165 475.139 448.121 475.188 448.072L477.623 446.233C477.751 446.131 477.868 446.072 477.975 446.047L478.709 445.896C478.807 445.876 478.89 445.896 478.968 445.945C479.047 445.999 479.096 446.072 479.115 446.165L481.688 458.745C481.707 458.838 481.693 458.931 481.649 459.014V459.009Z" fill="white"/>
<path d="M323.945 501.316L287.469 508.777L289.607 519.228L326.083 511.767L323.945 501.316Z" fill="white"/>
<path d="M467.224 365.389L430.748 372.85L432.03 379.117L468.506 371.657L467.224 365.389Z" fill="white"/>
<path d="M469.513 376.586L404.411 389.903L405.693 396.17L470.795 382.854L469.513 376.586Z" fill="white"/>
<path d="M450.357 491.293L290.581 523.974L292.719 534.425L452.495 501.744L450.357 491.293Z" fill="white"/>
<path d="M477.731 491.104C478.323 493.99 476.46 496.807 473.574 497.399C470.688 497.991 467.871 496.127 467.279 493.242C466.687 490.356 468.551 487.539 471.437 486.947C474.322 486.355 477.14 488.219 477.731 491.104Z" fill="white"/>
<path d="M492.361 488.111C492.952 490.997 491.089 493.814 488.203 494.406C485.317 494.998 482.5 493.134 481.908 490.248C481.316 487.363 483.18 484.545 486.066 483.954C488.951 483.362 491.769 485.225 492.361 488.111Z" fill="white"/>
<path d="M298.795 407.574L302.513 425.749C302.703 426.674 302.107 427.579 301.182 427.769L270.089 434.133C269.16 434.324 268.255 433.722 268.065 432.802L264.347 414.627C264.157 413.698 264.758 412.793 265.683 412.602L296.775 406.239C297.705 406.048 298.605 406.65 298.795 407.574Z" fill="#FECC86"/>
<path d="M282.268 419.415L266.01 422.741L265.834 421.885L281.241 418.736L280.121 413.272L280.977 413.096L282.268 419.415Z" fill="#EFA348"/>
<path d="M287.438 430.577L286.582 430.753L284.855 422.301L301.128 418.97L301.304 419.826L285.883 422.981L287.438 430.577Z" fill="#EFA348"/>
<path d="M287.57 408.1L286.717 408.274L288.571 417.33L289.424 417.156L287.57 408.1Z" fill="#EFA348"/>
<path d="M299.379 410.558L288.046 412.876L288.221 413.729L299.553 411.411L299.379 410.558Z" fill="#EFA348"/>
<path d="M277.118 428.733L276.262 428.909L275.66 425.979L267.033 427.745L266.856 426.889L276.34 424.947L277.118 428.733Z" fill="#EFA348"/>
<path d="M501.888 501.596L286.421 545.684C282.537 546.481 278.727 543.962 277.93 540.079L251.18 409.354C250.383 405.471 252.897 401.661 256.786 400.864L472.253 356.775C476.137 355.978 479.947 358.497 480.744 362.38L507.494 493.105C508.291 496.988 505.777 500.798 501.888 501.596ZM257.05 402.15C253.871 402.8 251.816 405.916 252.467 409.095L279.216 539.82C279.867 542.999 282.982 545.053 286.162 544.403L501.629 500.314C504.808 499.664 506.863 496.548 506.212 493.369L479.463 362.644C478.812 359.465 475.697 357.411 472.517 358.062L257.05 402.15Z" fill="#1D1D1B"/>
<path d="M808.975 509.243C833.949 484.268 833.949 443.776 808.975 418.802C784.001 393.827 743.509 393.827 718.534 418.802C693.56 443.776 693.56 484.268 718.534 509.242C743.509 534.217 784.001 534.217 808.975 509.243Z" fill="white"/>
<path d="M785.567 516.538L811.94 542.598L800.387 501.209L785.567 516.538Z" fill="white"/>
<path d="M820.744 577.134H711.374V582.568H820.744V577.134Z" fill="white"/>
<path d="M820.744 599.628H711.374V605.062H820.744V599.628Z" fill="white"/>
<path d="M480.798 280.078C475.286 279.623 469.935 278.126 464.902 275.622L466.227 272.956C470.923 275.289 475.907 276.688 481.042 277.109L480.798 280.078ZM497.212 278.801L496.498 275.911C501.575 274.654 506.315 272.541 510.599 269.621L512.277 272.081C507.704 275.201 502.637 277.461 497.212 278.801ZM451.583 265.962C447.886 262.308 444.472 257.985 441.439 253.113L443.968 251.538C446.878 256.214 450.14 260.352 453.677 263.844L451.583 265.962ZM524.089 260.592L521.682 258.836C524.69 254.722 527.087 250.076 528.819 245.023L531.636 245.987C529.811 251.323 527.268 256.239 524.089 260.597V260.592ZM292.158 254.615L289.184 254.419C289.541 249.058 290.216 243.639 291.199 238.318L294.129 238.856C293.165 244.065 292.505 249.367 292.158 254.615ZM434.151 238.523C432.2 233.588 430.586 228.359 429.353 222.979L432.259 222.314C433.457 227.547 435.027 232.634 436.925 237.427L434.156 238.523H434.151ZM534.82 229.895L531.851 229.695C531.944 228.281 531.993 226.833 531.993 225.39C531.993 221.654 531.67 217.834 531.034 214.038L533.974 213.549C534.634 217.506 534.972 221.492 534.972 225.39C534.972 226.897 534.923 228.413 534.82 229.89V229.895ZM297.905 223.424L295.058 222.554C296.628 217.413 298.516 212.287 300.664 207.328L303.398 208.511C301.294 213.368 299.446 218.386 297.91 223.424H297.905ZM426.82 206.951C426.242 201.512 425.836 196.093 425.607 190.845L428.58 190.713C428.81 195.897 429.211 201.253 429.784 206.633L426.82 206.946V206.951ZM526.833 198.89C524.969 194.107 522.597 189.363 519.78 184.794L522.313 183.229C525.229 187.954 527.679 192.86 529.606 197.81L526.833 198.89ZM310.509 194.298L307.922 192.821C310.597 188.135 313.566 183.557 316.741 179.204L319.147 180.96C316.036 185.225 313.131 189.715 310.509 194.303V194.298ZM796.43 194.229L793.593 193.329C795.222 188.194 796.494 183.019 797.369 177.942L800.304 178.446C799.404 183.655 798.103 188.962 796.435 194.229H796.43ZM428.424 174.768L425.445 174.689C425.582 169.221 425.929 163.797 426.477 158.568L429.441 158.876C428.903 164.027 428.561 169.373 428.424 174.768ZM510.428 172.053C507.083 168.16 503.331 164.374 499.286 160.794L501.262 158.563C505.41 162.232 509.254 166.12 512.688 170.111L510.428 172.053ZM329.218 168.659L327.022 166.643C330.69 162.647 334.603 158.837 338.658 155.33L340.604 157.58C336.633 161.014 332.803 164.741 329.213 168.654L329.218 168.659ZM801.854 162.251L798.876 162.197C798.885 161.606 798.89 161.014 798.89 160.422C798.89 155.746 798.553 151.046 797.883 146.453L800.827 146.023C801.517 150.757 801.869 155.599 801.864 160.422C801.864 161.028 801.859 161.64 801.85 162.251H801.854ZM486.794 151.002C483.101 148.434 479.154 145.944 475.065 143.601C474.474 143.264 473.887 142.931 473.295 142.604L474.733 139.997C475.334 140.329 475.941 140.667 476.543 141.014C480.71 143.396 484.73 145.935 488.491 148.556L486.789 151.002H486.794ZM353.218 147.93L351.555 145.46C356.075 142.418 360.79 139.654 365.568 137.248L366.909 139.909C362.242 142.256 357.64 144.956 353.223 147.93H353.218ZM431.779 143.142L428.854 142.574C429.896 137.209 431.197 131.922 432.708 126.859L435.56 127.71C434.073 132.68 432.801 137.874 431.774 143.142H431.779ZM458.974 135.8C454.019 133.819 448.947 132.176 443.899 130.919L444.618 128.028C449.798 129.319 454.997 131.007 460.074 133.037L458.969 135.8H458.974ZM381.499 133.746L380.525 130.929C385.666 129.153 390.943 127.735 396.206 126.713L396.774 129.637C391.648 130.635 386.507 132.014 381.494 133.746H381.499ZM794.342 131.08C792.772 126.14 790.771 121.215 788.394 116.446L791.06 115.116C793.505 120.022 795.564 125.089 797.183 130.175L794.347 131.075L794.342 131.08ZM428.302 128.19C423.058 127.661 417.732 127.515 412.484 127.754L412.347 124.781C417.742 124.531 423.215 124.683 428.605 125.226L428.306 128.19H428.302ZM440.906 112.768L438.162 111.614C440.27 106.605 442.667 101.709 445.288 97.0627L447.881 98.5251C445.313 103.074 442.965 107.867 440.906 112.773V112.768ZM780.338 102.82C777.418 98.574 774.127 94.3775 770.546 90.3423L772.777 88.3663C776.435 92.4895 779.805 96.7839 782.794 101.132L780.338 102.82ZM456.484 85.2018L454.083 83.441C457.267 79.1026 460.759 74.9109 464.457 70.9736L466.628 73.0132C463.014 76.8576 459.6 80.9612 456.484 85.2018ZM759.365 79.0586C755.536 75.581 751.403 72.1768 747.079 68.9438L748.864 66.5618C753.261 69.8535 757.468 73.3164 761.366 76.8576L759.365 79.0634V79.0586ZM478.161 62.1158L476.244 59.8365C480.323 56.4079 484.691 53.1455 489.225 50.1326L490.873 52.6124C486.432 55.5617 482.157 58.7605 478.161 62.1207V62.1158ZM733.932 59.949C729.515 57.1856 724.859 54.5199 720.095 52.0255L721.479 49.3891C726.306 51.9227 731.031 54.6275 735.512 57.4252L733.932 59.949ZM705.71 45.1143C700.907 43.0063 695.918 41.0107 690.89 39.1765L691.907 36.3788C696.999 38.2326 702.047 40.2526 706.908 42.3851L705.71 45.1143ZM504.554 44.5225L503.17 41.8862C507.865 39.426 512.805 37.1369 517.863 35.0778L518.987 37.8364C514.018 39.8613 509.166 42.1112 504.554 44.5225ZM675.713 34.1876C670.646 32.6909 665.447 31.3214 660.257 30.1182L660.927 27.2178C666.175 28.4357 671.433 29.8199 676.554 31.3361L675.708 34.1925L675.713 34.1876ZM533.984 32.4953L533.108 29.6487C538.165 28.0884 543.428 26.6993 548.75 25.5206L549.395 28.4259C544.152 29.59 538.968 30.9595 533.988 32.4953H533.984ZM644.586 26.9684C639.348 26.0733 634.021 25.3249 628.763 24.738L629.091 21.7789C634.408 22.3707 639.788 23.1288 645.085 24.0337L644.581 26.9684H644.586ZM565.076 25.5548L564.646 22.6055C569.894 21.8425 575.299 21.2458 580.708 20.8349L580.933 23.8038C575.592 24.2098 570.256 24.7967 565.071 25.5499L565.076 25.5548ZM612.843 23.4468C607.511 23.1729 602.161 23.0653 596.883 23.1239L596.854 20.1453C602.18 20.0866 607.604 20.1991 612.994 20.473L612.843 23.4468Z" fill="#76ADE5"/>
<path d="M786.888 216.992L784.246 215.618C785.479 213.246 786.653 210.839 787.739 208.457L790.448 209.69C789.343 212.116 788.145 214.571 786.888 216.988V216.992Z" fill="#6095AB"/>
<path d="M761.068 232.238L744.526 260.748C744.526 260.748 768.463 241.58 769.04 241.12C769.612 240.665 790.898 209.69 790.898 209.69L800.363 206.98L785.342 202.955L761.068 232.238Z" fill="#202C83"/>
<path d="M785.342 202.955L774.67 192.786L744.526 260.748L785.342 202.955Z" fill="#3649DB"/>
<path d="M805.029 223.106L790.898 209.69L744.526 260.748L805.029 223.106Z" fill="#3649DB"/>
<path d="M763.869 431.533C746.617 431.533 732.627 445.522 732.627 462.775C732.627 480.027 746.617 494.016 763.869 494.016C781.122 494.016 795.111 480.027 795.111 462.775C795.111 445.522 781.122 431.533 763.869 431.533ZM777.363 452.572L762.677 472.935C762.472 473.222 762.201 473.455 761.887 473.616C761.574 473.777 761.227 473.861 760.874 473.861C760.522 473.861 760.174 473.777 759.861 473.616C759.547 473.455 759.277 473.222 759.071 472.935L750.375 460.885C750.11 460.515 750.375 459.999 750.829 459.999H754.099C754.811 459.999 755.487 460.341 755.905 460.927L760.871 467.816L771.833 452.614C772.252 452.035 772.921 451.686 773.639 451.686H776.91C777.363 451.686 777.628 452.203 777.363 452.572Z" fill="#3649DB"/>
</g>
</svg>
