<svg width="1140" height="759" viewBox="0 0 1140 759" fill="none" xmlns="http://www.w3.org/2000/svg">
<mask id="mask0_23_1224" style="mask-type:alpha" maskUnits="userSpaceOnUse" x="0" y="0" width="1140" height="759">
<rect width="1140" height="758.587" fill="#D9D9D9"/>
</mask>
<g mask="url(#mask0_23_1224)">
<path d="M935.645 1088.46L1116.29 559.171C1134.3 506.464 1097.66 450.736 1045.04 450.736H756.333C724.481 450.736 696.001 471.978 685.088 503.887L504.445 1033.17C486.434 1085.88 523.077 1141.61 575.69 1141.61H864.4C896.252 1141.61 924.732 1120.37 935.645 1088.46Z" fill="#76ADE5"/>
<path d="M632.642 436.249L855.163 1088.1C877.344 1152.99 832.272 1221.6 767.415 1221.6H411.808C372.591 1221.6 337.545 1195.47 324.059 1156.1L101.538 504.244C79.3572 439.36 124.429 370.744 189.287 370.744H544.894C584.11 370.744 619.156 396.875 632.642 436.249Z" fill="#040A4F"/>
<path d="M271.623 1088.46L452.265 559.171C470.276 506.464 433.633 450.736 381.02 450.736H92.3109C60.4589 450.736 31.9787 471.978 21.0656 503.887L-159.577 1033.17C-177.588 1085.88 -140.945 1141.61 -88.3316 1141.61H200.377C232.229 1141.61 260.71 1120.37 271.623 1088.46Z" fill="#3649DB"/>
</g>
<path d="M844.523 445.37C841.758 445.918 839.054 446.854 836.472 448.155L827.934 438.661L817.546 448.033L825.739 457.12C823.848 459.6 822.364 462.324 821.307 465.17L807.036 464.438L806.304 478.404L819.477 479.096C819.843 483.019 820.921 486.861 822.75 490.46L813.257 499.018L822.628 509.406L831.715 501.214C834.683 503.47 837.956 505.117 841.392 506.194L840.782 518.046L854.748 518.778L855.338 507.333C859.444 506.743 863.47 505.32 867.149 503.064L875.322 512.151L885.71 502.779L877.151 493.285C878.716 490.866 879.916 488.264 880.77 485.581L894.268 486.292L895 472.326L881.908 471.655C881.319 467.549 879.896 463.523 877.639 459.844L886.726 451.672L877.354 441.283L867.861 449.822C864.954 447.931 861.803 446.549 858.53 445.735L859.221 432.643L845.255 431.912L844.563 445.41L844.523 445.37ZM860.278 467.61C865.015 472.855 864.588 480.986 859.343 485.723C854.098 490.46 845.966 490.033 841.229 484.788C836.493 479.543 836.92 471.411 842.165 466.674C847.41 461.938 855.541 462.365 860.278 467.61Z" fill="#040A4F"/>
<path d="M226.228 165.418C223.463 165.967 220.759 166.902 218.177 168.203L209.639 158.709L199.251 168.081L207.443 177.168C205.553 179.648 204.069 182.372 203.012 185.218L188.741 184.486L188.009 198.453L201.182 199.144C201.548 203.067 202.625 206.91 204.455 210.508L194.961 219.066L204.333 229.455L213.42 221.262C216.388 223.518 219.661 225.165 223.097 226.243L222.487 238.094L236.453 238.826L237.043 227.381C241.149 226.791 245.174 225.368 248.854 223.112L257.026 232.199L267.415 222.827L258.856 213.334C260.421 210.914 261.621 208.312 262.475 205.629L275.973 206.34L276.705 192.374L263.613 191.703C263.023 187.597 261.6 183.572 259.344 179.892L268.431 171.72L259.059 161.332L249.566 169.87C246.658 167.979 243.507 166.597 240.234 165.763L240.926 152.671L226.959 151.939L226.268 165.438L226.228 165.418ZM241.983 187.658C246.719 192.903 246.293 201.034 241.048 205.771C235.803 210.508 227.671 210.081 222.934 204.836C218.198 199.591 218.625 191.459 223.869 186.723C229.114 181.986 237.246 182.413 241.983 187.658Z" fill="#76ADE5"/>
<path d="M803 374.127C801.495 374.432 800.011 374.94 798.609 375.652L793.933 370.468L788.261 375.591L792.733 380.551C791.697 381.913 790.883 383.397 790.314 384.942L782.508 384.535L782.101 392.179L789.298 392.545C789.501 394.68 790.091 396.794 791.087 398.766L785.903 403.442L791.026 409.113L795.986 404.641C797.612 405.881 799.401 406.776 801.272 407.365L800.926 413.83L808.57 414.216L808.895 407.955C811.152 407.629 813.347 406.857 815.339 405.617L819.812 410.577L825.484 405.454L820.808 400.27C821.662 398.949 822.333 397.526 822.78 396.062L830.159 396.448L830.566 388.805L823.41 388.439C823.085 386.182 822.312 383.987 821.072 381.994L826.033 377.522L820.91 371.85L815.726 376.526C814.14 375.489 812.412 374.737 810.623 374.29L810.989 367.134L803.345 366.727L802.959 374.107L803 374.127ZM811.599 386.284C814.181 389.15 813.957 393.602 811.091 396.184C808.224 398.766 803.772 398.542 801.19 395.676C798.609 392.809 798.832 388.357 801.699 385.776C804.565 383.194 809.017 383.417 811.599 386.284Z" fill="#76ADE5"/>
<path d="M374.97 548.969C373.465 549.274 371.981 549.782 370.579 550.494L365.903 545.31L360.231 550.433L364.703 555.393C363.667 556.755 362.853 558.239 362.284 559.784L354.478 559.377L354.071 567.021L361.268 567.387C361.471 569.522 362.061 571.636 363.057 573.608L357.873 578.284L362.996 583.955L367.956 579.483C369.582 580.723 371.371 581.617 373.242 582.207L372.896 588.692L380.54 589.078L380.865 582.817C383.122 582.492 385.317 581.719 387.309 580.479L391.782 585.439L397.454 580.316L392.778 575.132C393.632 573.811 394.303 572.388 394.75 570.924L402.129 571.311L402.536 563.667L395.38 563.301C395.055 561.044 394.282 558.849 393.042 556.857L398.003 552.384L392.88 546.712L387.696 551.388C386.11 550.351 384.382 549.599 382.593 549.152L382.959 541.996L375.315 541.589L374.929 548.969H374.97ZM383.569 561.126C386.151 563.992 385.927 568.444 383.061 571.026C380.194 573.608 375.742 573.384 373.16 570.518C370.579 567.651 370.802 563.199 373.669 560.617C376.535 558.036 380.987 558.259 383.569 561.126Z" fill="#76ADE5"/>
<path d="M882.959 325.255C882.959 331.882 877.551 337.289 870.924 337.289C864.297 337.289 858.889 331.882 858.889 325.255C858.889 318.627 864.297 313.22 870.924 313.22C877.551 313.22 882.959 318.627 882.959 325.255ZM879.177 325.255C879.177 320.701 875.478 317.001 870.924 317.001C866.37 317.001 862.67 320.701 862.67 325.255C862.67 329.808 866.37 333.508 870.924 333.508C875.478 333.508 879.177 329.808 879.177 325.255Z" fill="#3649DB"/>
<path d="M882.959 238.864C882.959 245.492 877.551 250.899 870.924 250.899C864.297 250.899 858.889 245.492 858.889 238.864C858.889 232.237 864.297 226.83 870.924 226.83C877.551 226.83 882.959 232.237 882.959 238.864ZM879.177 238.864C879.177 234.311 875.478 230.611 870.924 230.611C866.37 230.611 862.67 234.311 862.67 238.864C862.67 243.418 866.37 247.118 870.924 247.118C875.478 247.118 879.177 243.418 879.177 238.864Z" fill="#76ADE5"/>
<path d="M828.147 139.22C827.111 139.22 826.257 140.074 826.257 141.11V149.445C826.257 150.482 827.111 151.336 828.147 151.336C829.184 151.336 830.038 150.482 830.038 149.445V141.11C830.038 140.074 829.184 139.22 828.147 139.22Z" fill="#3649DB"/>
<path d="M828.147 124.664C827.111 124.664 826.257 125.518 826.257 126.555V134.89C826.257 135.926 827.111 136.78 828.147 136.78C829.184 136.78 830.038 135.926 830.038 134.89V126.555C830.038 125.518 829.184 124.664 828.147 124.664Z" fill="#3649DB"/>
<path d="M839.817 136.109H832.335C831.299 136.109 830.445 136.963 830.445 138C830.445 139.037 831.299 139.891 832.335 139.891H839.817C840.853 139.891 841.707 139.037 841.707 138C841.707 136.963 840.853 136.109 839.817 136.109Z" fill="#3649DB"/>
<path d="M823.939 136.109H816.458C815.421 136.109 814.567 136.963 814.567 138C814.567 139.037 815.421 139.891 816.458 139.891H823.939C824.976 139.891 825.83 139.037 825.83 138C825.83 136.963 824.976 136.109 823.939 136.109Z" fill="#3649DB"/>
<path d="M356.629 128.809C350.002 128.809 344.594 123.401 344.594 116.774C344.594 110.147 350.002 104.739 356.629 104.739C363.257 104.739 368.664 110.147 368.664 116.774C368.664 123.401 363.257 128.809 356.629 128.809ZM356.629 125.028C361.183 125.028 364.883 121.328 364.883 116.774C364.883 112.22 361.183 108.52 356.629 108.52C352.076 108.52 348.376 112.22 348.376 116.774C348.376 121.328 352.076 125.028 356.629 125.028Z" fill="#76ADE5"/>
<path d="M394.41 48.0976C394.41 47.0609 393.556 46.207 392.519 46.207H384.184C383.147 46.207 382.293 47.0609 382.293 48.0976C382.293 49.1344 383.147 49.9883 384.184 49.9883H392.519C393.556 49.9883 394.41 49.1344 394.41 48.0976Z" fill="#040A4F"/>
<path d="M408.986 48.0976C408.986 47.0609 408.133 46.207 407.096 46.207H398.781C397.744 46.207 396.891 47.0609 396.891 48.0976C396.891 49.1344 397.744 49.9883 398.781 49.9883H407.096C408.133 49.9883 408.986 49.1344 408.986 48.0976Z" fill="#040A4F"/>
<path d="M397.541 59.7868V52.3057C397.541 51.2689 396.687 50.415 395.65 50.415C394.613 50.415 393.759 51.2689 393.759 52.3057V59.7868C393.759 60.8236 394.613 61.6774 395.65 61.6774C396.687 61.6774 397.541 60.8236 397.541 59.7868Z" fill="#040A4F"/>
<path d="M397.541 43.8898V36.4087C397.541 35.3719 396.687 34.5181 395.65 34.5181C394.613 34.5181 393.759 35.3719 393.759 36.4087V43.8898C393.759 44.9266 394.613 45.7804 395.65 45.7804C396.687 45.7804 397.541 44.9266 397.541 43.8898Z" fill="#040A4F"/>
<path d="M325.72 177.727C325.72 176.69 324.866 175.836 323.829 175.836H315.515C314.478 175.836 313.624 176.69 313.624 177.727C313.624 178.764 314.478 179.617 315.515 179.617H323.829C324.866 179.617 325.72 178.764 325.72 177.727Z" fill="#3649DB"/>
<path d="M340.297 177.727C340.297 176.69 339.443 175.836 338.406 175.836H330.091C329.055 175.836 328.201 176.69 328.201 177.727C328.201 178.764 329.055 179.617 330.091 179.617H338.406C339.443 179.617 340.297 178.764 340.297 177.727Z" fill="#3649DB"/>
<path d="M328.831 189.416V181.935C328.831 180.899 327.977 180.045 326.94 180.045C325.903 180.045 325.049 180.899 325.049 181.935V189.416C325.049 190.453 325.903 191.307 326.94 191.307C327.977 191.307 328.831 190.453 328.831 189.416Z" fill="#3649DB"/>
<path d="M328.831 173.539V166.058C328.831 165.021 327.977 164.167 326.94 164.167C325.903 164.167 325.049 165.021 325.049 166.058V173.539C325.049 174.576 325.903 175.43 326.94 175.43C327.977 175.43 328.831 174.576 328.831 173.539Z" fill="#3649DB"/>
<path d="M792.456 110.122V690.175C792.456 708.349 777.717 723.088 759.543 723.088H470.685C461.558 723.088 453.284 719.367 447.327 713.37C441.411 707.414 437.772 699.221 437.772 690.175V110.122C437.772 91.9481 452.511 77.2095 470.685 77.2095H759.543C764.909 77.2095 769.992 78.4902 774.485 80.7874C785.157 86.2356 792.476 97.315 792.476 110.122H792.456Z" fill="#3649DB"/>
<path d="M780.197 110.122V690.175C780.197 708.349 765.459 723.088 747.284 723.088H458.427C449.299 723.088 441.025 719.367 435.069 713.37C429.153 707.414 425.514 699.221 425.514 690.175V110.122C425.514 91.9481 440.253 77.2095 458.427 77.2095H747.284C752.651 77.2095 757.733 78.4902 762.226 80.7874C772.899 86.2356 780.218 97.315 780.218 110.122H780.197Z" fill="#040A4F"/>
<path d="M786.438 219.859H790.992C795.241 219.859 798.676 216.424 798.676 212.175V175.176C798.676 170.927 795.241 167.491 790.992 167.491H786.438V219.879V219.859Z" fill="#040A4F"/>
<path d="M425.494 219.859H421.916C418.582 219.859 415.878 217.155 415.878 213.821V173.488C415.878 170.154 418.582 167.45 421.895 167.45H425.473V219.838L425.494 219.859Z" fill="#18285D"/>
<path d="M425.494 288.592H421.916C418.582 288.592 415.878 285.888 415.878 282.554V242.221C415.878 238.887 418.582 236.184 421.916 236.184H425.494V288.572V288.592Z" fill="#1C2589"/>
<path d="M763.771 108.109V692.146C763.771 700.176 757.265 706.641 749.276 706.641H456.434C450.437 706.641 445.294 703.022 443.078 697.818C442.346 696.07 441.919 694.158 441.919 692.146V108.109C441.919 100.1 448.404 93.6145 456.414 93.6145H749.256C750.211 93.6145 751.146 93.6958 752.041 93.8788C753.057 94.0821 754.033 94.3667 754.968 94.7733C759.441 96.7045 762.754 100.811 763.567 105.731C763.71 106.503 763.771 107.296 763.771 108.109Z" fill="white"/>
<path d="M589.346 273.772H442.834V533.03H589.346V273.772Z" fill="#E9E2E8"/>
<path d="M635.026 253.585V522.987C635.026 535.429 626.895 546.041 615.673 549.802C612.868 550.737 609.879 551.245 606.769 551.245C591.217 551.245 578.511 538.539 578.511 522.987V253.585C578.511 238.033 591.217 225.328 606.769 225.328C609.879 225.328 612.868 225.836 615.673 226.771C619.881 228.174 623.662 230.552 626.732 233.622C631.855 238.745 635.026 245.799 635.026 253.585Z" fill="#040A4F"/>
<path d="M635.026 253.585V522.987C635.026 535.429 626.894 546.041 615.673 549.802C604.451 546.061 596.319 535.429 596.319 522.987V253.585C596.319 241.144 604.451 230.532 615.673 226.771C619.881 228.174 623.662 230.552 626.732 233.622C631.855 238.745 635.026 245.799 635.026 253.585Z" fill="#1C2589"/>
<path d="M763.771 108.109V168.162H441.919V108.109C441.919 100.1 448.404 93.6145 456.414 93.6145H749.256C750.211 93.6145 751.146 93.6958 752.041 93.8788C753.057 94.0821 754.033 94.3667 754.968 94.7733C759.441 96.7045 762.754 100.811 763.567 105.731C763.71 106.503 763.771 107.296 763.771 108.109Z" fill="#E9E2E8"/>
<path d="M433.686 170.195L433.585 170.297V190.382C433.585 198.717 430.23 206.259 424.762 211.727C419.293 217.196 411.751 220.571 403.416 220.571C387.885 220.571 375.098 208.841 373.431 193.756C373.309 192.659 373.248 191.52 373.248 190.382V170.703L446.941 97.0099C449.096 94.855 452.044 93.6353 455.093 93.6353H509.006L433.686 170.215V170.195Z" fill="#3649DB"/>
<path d="M433.605 170.297V190.382C433.605 198.717 430.251 206.259 424.782 211.728C419.314 217.196 411.772 220.571 403.437 220.571C387.905 220.571 375.118 208.841 373.451 193.757L373.268 170.703L433.727 170.195L433.626 170.297H433.605Z" fill="#005EC9"/>
<path d="M629.761 93.6145L554.361 169.015V190.361C554.361 198.696 550.986 206.238 545.517 211.707C540.049 217.175 532.507 220.55 524.172 220.55C507.502 220.55 493.983 207.031 493.983 190.361V169.686L569.363 93.6145H629.741H629.761Z" fill="#3649DB"/>
<path d="M554.361 169.199V190.382C554.361 198.717 550.986 206.259 545.517 211.727C540.049 217.196 532.507 220.571 524.172 220.571C507.502 220.571 493.983 207.052 493.983 190.382V169.707L554.361 169.219V169.199Z" fill="#005EC9"/>
<path d="M676.884 168.182V190.382C676.884 198.717 673.53 206.259 668.062 211.727C662.593 217.196 655.051 220.571 646.716 220.571C630.046 220.571 614.698 207.052 614.698 190.382L614.819 169.036L615.145 168.711L690.098 93.6353H752.306L676.884 168.203V168.182Z" fill="#3649DB"/>
<path d="M676.905 190.382C676.905 198.717 673.53 206.259 668.062 211.727C662.593 217.196 655.051 220.571 646.716 220.571C630.046 220.571 614.698 207.052 614.698 190.382L614.819 169.036L615.145 168.711L676.884 168.203V190.402L676.905 190.382Z" fill="#005EC9"/>
<path d="M737.241 167.674V190.361C737.241 198.696 733.867 206.239 728.398 211.707C722.95 217.176 715.388 220.55 707.053 220.55C690.383 220.55 676.864 207.031 676.864 190.361V168.162L752.021 93.8589C753.037 94.0622 754.013 94.3468 754.948 94.7534C759.421 96.6846 762.734 100.791 763.547 105.711C763.69 106.483 763.751 107.276 763.751 108.089V141.612L737.241 167.654V167.674Z" fill="white"/>
<path d="M737.262 190.382C737.262 198.717 733.888 206.259 728.419 211.728C722.95 217.196 715.408 220.571 707.073 220.571C690.403 220.571 676.885 207.052 676.885 190.382V168.182L737.242 167.695V190.382H737.262Z" fill="#E9E2E8"/>
<path d="M569.363 93.6146L493.962 169.686V190.361C493.962 198.696 490.587 206.238 485.119 211.707C479.65 217.175 472.108 220.55 463.773 220.55C447.103 220.55 433.584 207.031 433.584 190.361V170.276L433.686 170.174L509.005 93.5942H569.363V93.6146Z" fill="white"/>
<path d="M493.962 169.687V190.362C493.962 198.696 490.587 206.239 485.119 211.707C479.65 217.176 472.108 220.55 463.773 220.55C447.103 220.55 433.584 207.031 433.584 190.362V170.276L433.686 170.175L493.962 169.687Z" fill="#E9E2E8"/>
<path d="M690.098 93.6145L614.697 169.015V190.361C614.697 198.696 611.322 206.238 605.854 211.707C600.385 217.175 592.843 220.55 584.508 220.55C567.838 220.55 554.319 207.031 554.319 190.361V169.015L629.741 93.6145H690.098Z" fill="white"/>
<path d="M615.022 168.691L614.697 169.016V190.362C614.697 198.697 611.322 206.239 605.854 211.707C600.385 217.176 592.843 220.55 584.508 220.55C567.838 220.55 554.319 207.032 554.319 190.362V169.179L615.022 168.67V168.691Z" fill="#E9E2E8"/>
<path d="M513.094 620.007L521.265 635.26C521.783 636.25 522.564 637.602 522.931 637.968V620.007H531.778V646.501C534.747 646.239 537.817 644.993 539.64 642.855L542.453 648.528C539.692 651.65 535.737 653.316 530.583 653.316C524.963 653.316 521.003 650.817 518.195 645.558L511.847 633.637V652.792H503V620.007H513.099H513.094Z" fill="#EAEBF7"/>
<path d="M546.513 626.984V642.965C546.513 645.359 547.293 646.611 548.75 646.611C552.238 646.611 555.931 636.565 553.956 626.984H562.389C563.641 627.765 565.045 628.184 566.554 628.184C567.853 628.184 569.209 627.87 570.561 627.142L572.488 632.814C570.403 633.804 568.481 634.218 566.763 634.218C565.412 634.218 564.16 633.956 563.065 633.542C563.432 646.14 556.664 653.321 545.785 653.321C540.735 653.321 538.08 649.833 538.08 644.94V626.984H546.513Z" fill="#EAEBF7"/>
<path d="M580.972 626.466C584.147 626.466 587.169 627.246 589.563 628.86C590.395 628.964 591.176 629.017 592.009 629.017C594.612 629.017 597.163 628.446 599.923 626.984L602.684 632.191C600.081 633.857 597.063 634.585 593.936 634.689C594.507 636.146 594.822 637.916 594.822 639.896C594.822 649.267 588.264 653.326 580.972 653.326C573.681 653.326 567.076 649.267 567.076 639.896C567.076 630.525 573.686 626.466 580.972 626.466ZM575.509 639.844C575.509 644.736 577.798 647.077 580.972 647.077C584.147 647.077 586.388 644.736 586.388 639.844C586.388 634.951 584.152 632.71 580.972 632.71C577.793 632.71 575.509 634.946 575.509 639.844Z" fill="#EAEBF7"/>
<path d="M604.188 616C606.739 616 608.818 617.351 608.818 620.112C608.818 622.872 606.739 624.276 604.188 624.276C601.637 624.276 599.505 622.925 599.505 620.112C599.505 617.299 601.59 616 604.188 616ZM608.195 626.984V643.693C608.195 645.359 608.609 646.297 609.808 646.454C611.369 646.768 613.192 645.05 614.543 643.227L617.513 648.277C615.329 651.194 612.93 653.326 608.666 653.326C602.574 653.326 599.767 649.942 599.767 645.988V626.984H608.2H608.195Z" fill="#EAEBF7"/>
<path d="M626.051 626.466C633.028 626.466 637.035 630.164 637.192 636.617L629.277 638.021C629.434 634.689 628.287 632.71 626.103 632.71C623.238 632.71 621.625 634.742 621.625 638.854C621.625 644.631 624.746 647.077 630.162 647.077C634.845 647.077 638.91 645.93 642.294 642.808L645.887 647.182C641.828 651.556 636.83 653.326 629.539 653.326C619.702 653.326 613.191 648.224 613.191 639.168C613.191 630.111 619.231 626.466 626.051 626.466Z" fill="#EAEBF7"/>
<path d="M640.629 639.168C640.629 630.421 646.668 626.466 653.436 626.466C660.203 626.466 664.629 629.588 664.629 635.26C664.629 641.766 658.433 644.107 650.419 644.526C651.665 646.506 654.012 647.496 657.186 647.496C662.288 647.496 665.934 645.778 669.574 643.018L673.272 647.077C668.951 651.084 664.268 653.326 656.977 653.326C646.983 653.326 640.629 648.12 640.629 639.168ZM656.872 635.418C656.872 633.752 655.725 632.71 653.593 632.71C651.042 632.71 649.272 634.689 649.062 638.697C649.062 639.011 649.062 639.267 649.114 639.477C653.954 638.906 656.872 637.916 656.872 635.418Z" fill="#EAEBF7"/>
<path d="M684.403 641.976C687.006 644.736 689.971 646.559 692.679 646.559C695.387 646.559 698.299 644.684 699.394 642.965L702.411 648.224C700.379 651.142 696.896 653.326 692.627 653.326C686.692 653.326 681.381 649.995 677.321 645.464C676.331 647.392 676.122 649.785 676.593 652.802H668.474C667.018 646.244 668.474 641.818 673.005 639.477C670.559 635.156 669.155 630.63 668.998 626.984H677.431C677.693 630.211 678.783 633.542 680.448 636.512C682.685 633.857 683.884 631.101 684.455 626.984H692.941C691.951 633.438 689.348 638.487 684.403 641.976Z" fill="#EAEBF7"/>
<path d="M815.876 286.457V346.794C815.876 350.636 812.745 353.747 808.923 353.747H748.586C745.13 353.747 739.722 351.307 737.283 345.737C737.161 345.493 737.039 345.269 736.978 345.025C736.856 344.66 736.734 344.314 736.612 343.928C736.612 343.887 736.592 343.846 736.592 343.806C736.592 343.806 736.585 343.792 736.571 343.765V343.643L736.449 296.032V282.086C736.449 278.468 739.194 275.54 742.67 275.154C742.914 275.154 743.178 275.134 743.402 275.134L804.959 275.378C805.243 275.378 805.528 275.398 805.792 275.459H805.813C812.013 276.15 815.876 282.798 815.876 286.477V286.457Z" fill="#023E82"/>
<path d="M810.692 282.107V342.424C810.692 346.286 807.561 349.376 803.739 349.376H743.402C740.759 349.376 738.462 347.912 737.283 345.758C737.161 345.514 737.039 345.29 736.978 345.046C736.856 344.68 736.734 344.334 736.612 343.948C736.612 343.908 736.592 343.867 736.592 343.826C736.592 343.786 736.571 343.704 736.571 343.664C736.49 343.257 736.449 342.85 736.449 342.424V282.107C736.449 278.488 739.194 275.561 742.67 275.175C742.914 275.175 743.178 275.154 743.402 275.154H803.739C804.451 275.154 805.142 275.256 805.792 275.459H805.813C808.659 276.333 810.692 278.956 810.692 282.107Z" fill="#3649DB"/>
<path d="M777.981 332.726L777.94 338.744L770.297 338.683L770.337 332.929C764.93 332.564 759.685 331.059 756.452 329.026L760.64 319.736C764.198 321.87 768.955 323.273 773.122 323.314C776.761 323.334 778.062 322.602 778.062 321.301C778.103 316.524 757.103 320.203 757.225 306.075C757.266 299.955 761.758 294.833 770.662 293.674L770.703 287.778L778.347 287.839L778.306 293.633C782.311 294.04 786.214 295.097 789.284 296.865L785.36 306.095C781.64 304.164 778.123 303.228 774.81 303.188C771.069 303.168 769.87 304.225 769.87 305.526C769.829 310.079 790.829 306.461 790.727 320.427C790.687 326.282 786.418 331.344 778.001 332.726H777.981Z" fill="white"/>
<path d="M608.195 522.626L215.133 522.569C207.844 522.568 201.936 516.658 201.937 509.369L201.97 272.018C201.97 264.73 207.881 258.822 215.169 258.822L608.231 258.88C615.52 258.88 621.428 264.79 621.427 272.079L621.394 509.43C621.393 516.719 615.483 522.626 608.195 522.626Z" fill="#3649DB"/>
<g opacity="0.1">
<path d="M463.129 468.674C506.18 440.257 518.043 382.321 489.627 339.27C461.21 296.22 403.274 284.356 360.223 312.773C317.173 341.19 305.309 399.126 333.726 442.176C362.143 485.227 420.079 497.09 463.129 468.674Z" fill="white"/>
</g>
<path d="M243.239 436.222C242.867 437.512 242.327 438.569 241.629 439.388C240.931 440.207 240.089 440.807 239.103 441.19C238.117 441.572 236.999 441.766 235.75 441.762C234.502 441.758 233.38 441.573 232.389 441.19C231.39 440.806 230.543 440.201 229.847 439.384C229.143 438.566 228.614 437.505 228.24 436.215C227.866 434.925 227.682 433.369 227.685 431.554L227.684 427.123C227.688 425.308 227.871 423.755 228.243 422.465C228.615 421.175 229.155 420.117 229.853 419.299C230.551 418.48 231.403 417.873 232.398 417.492C233.392 417.111 234.519 416.92 235.761 416.913C237.009 416.917 238.12 417.109 239.111 417.492C240.094 417.873 240.941 418.477 241.636 419.294C242.34 420.112 242.869 421.173 243.243 422.463C243.617 423.753 243.802 425.309 243.799 427.124L243.799 431.555C243.796 433.37 243.613 434.923 243.241 436.213L243.239 436.222ZM240.815 427.124C240.818 425.75 240.692 424.565 240.46 423.592C240.219 422.617 239.877 421.828 239.447 421.209C239.006 420.598 238.478 420.148 237.862 419.86C237.237 419.579 236.549 419.429 235.784 419.435C235.02 419.431 234.326 419.576 233.701 419.862C233.076 420.147 232.553 420.597 232.113 421.208C231.673 421.819 231.34 422.614 231.095 423.588C230.851 424.563 230.737 425.735 230.732 427.118L230.733 431.549C230.73 432.923 230.847 434.107 231.088 435.082C231.328 436.057 231.668 436.854 232.101 437.464C232.533 438.074 233.07 438.525 233.685 438.813C234.309 439.103 234.999 439.244 235.764 439.239C236.527 439.242 237.222 439.097 237.846 438.811C238.471 438.526 238.995 438.076 239.434 437.465C239.874 436.854 240.207 436.059 240.452 435.085C240.696 434.11 240.811 432.938 240.815 431.555L240.815 427.124Z" fill="white"/>
<path d="M263.1 436.226C262.728 437.516 262.188 438.574 261.49 439.393C260.792 440.211 259.95 440.812 258.964 441.194C257.978 441.576 256.86 441.77 255.611 441.766C254.363 441.762 253.241 441.577 252.25 441.195C251.25 440.81 250.404 440.205 249.708 439.389C249.004 438.571 248.475 437.51 248.101 436.22C247.727 434.93 247.543 433.373 247.546 431.558L247.545 427.127C247.548 425.313 247.732 423.759 248.104 422.469C248.476 421.18 249.016 420.122 249.714 419.303C250.412 418.484 251.264 417.877 252.259 417.496C253.253 417.116 254.38 416.924 255.621 416.918C256.87 416.922 257.981 417.113 258.972 417.496C259.955 417.877 260.802 418.482 261.497 419.298C262.201 420.117 262.73 421.177 263.104 422.467C263.478 423.757 263.663 425.314 263.659 427.129L263.66 431.56C263.657 433.374 263.474 434.928 263.102 436.218L263.1 436.226ZM260.676 427.129C260.678 425.754 260.553 424.569 260.321 423.596C260.08 422.621 259.738 421.832 259.307 421.214C258.866 420.602 258.338 420.152 257.723 419.865C257.098 419.584 256.409 419.434 255.644 419.439C254.881 419.436 254.186 419.581 253.562 419.866C252.937 420.152 252.414 420.602 251.974 421.213C251.534 421.824 251.201 422.618 250.956 423.593C250.712 424.567 250.598 425.739 250.593 427.122L250.593 431.553C250.591 432.928 250.716 434.113 250.949 435.086C251.189 436.061 251.529 436.859 251.962 437.469C252.394 438.078 252.931 438.53 253.546 438.818C254.17 439.107 254.86 439.248 255.625 439.243C256.388 439.247 257.083 439.101 257.707 438.816C258.332 438.53 258.856 438.08 259.295 437.469C259.735 436.858 260.068 436.064 260.313 435.089C260.557 434.115 260.671 432.943 260.676 431.56L260.676 427.129Z" fill="white"/>
<path d="M282.8 422.797C282.796 424.091 282.468 425.21 281.814 426.163C281.152 427.115 280.059 428.105 278.518 429.137L275.358 431.268C274.433 431.878 273.678 432.451 273.083 432.986C272.488 433.52 272.027 434.064 271.681 434.613C271.343 435.164 271.102 435.726 270.956 436.307C270.81 436.888 270.74 437.539 270.745 438.259L270.747 438.951L281.811 438.952C281.982 438.951 282.142 439.002 282.266 439.099C282.398 439.198 282.46 439.336 282.461 439.507L282.461 440.954C282.46 441.134 282.396 441.274 282.266 441.382C282.136 441.49 281.98 441.548 281.809 441.549L268.796 441.545C268.625 441.546 268.477 441.479 268.339 441.361C268.21 441.245 268.142 441.096 268.143 440.917L268.148 438.257C268.147 436.55 268.538 434.994 269.314 433.571C270.091 432.148 271.384 430.84 273.185 429.636L276.509 427.405C277.188 426.942 277.746 426.544 278.186 426.193C278.626 425.843 278.975 425.501 279.223 425.166C279.472 424.83 279.653 424.472 279.748 424.096C279.851 423.721 279.893 423.299 279.894 422.813C279.892 421.636 279.52 420.778 278.759 420.235C278.005 419.703 276.739 419.435 274.969 419.432C274.116 419.428 273.161 419.484 272.115 419.585C271.062 419.684 270.077 419.797 269.159 419.932L269.025 419.932C268.674 419.932 268.499 419.734 268.499 419.339L268.504 418.171C268.505 417.992 268.568 417.861 268.686 417.768C268.804 417.676 268.951 417.616 269.13 417.572C269.959 417.346 270.899 417.188 271.937 417.077C272.975 416.966 273.993 416.914 274.973 416.908C277.643 416.906 279.613 417.381 280.885 418.325C282.156 419.268 282.787 420.755 282.793 422.787L282.8 422.797Z" fill="white"/>
<path d="M297.48 441.352C297.372 441.482 297.223 441.551 297.052 441.552L295.246 441.55C295.066 441.549 294.927 441.485 294.819 441.355C294.71 441.225 294.652 441.069 294.652 440.898L294.656 420.246L290.424 422.085C290.267 422.151 290.125 422.185 289.999 422.186C289.802 422.182 289.701 422.062 289.704 421.829L289.704 420.158C289.708 420.051 289.735 419.966 289.79 419.915C289.846 419.863 289.93 419.8 290.034 419.731L294.994 417.367C295.255 417.232 295.484 417.171 295.682 417.167L297.031 417.164C297.202 417.163 297.35 417.23 297.47 417.344C297.589 417.467 297.649 417.614 297.65 417.785L297.644 440.9C297.643 441.079 297.586 441.229 297.478 441.36L297.48 441.352Z" fill="white"/>
<path d="M340.516 436.234C340.144 437.523 339.604 438.581 338.906 439.4C338.208 440.219 337.366 440.819 336.38 441.201C335.394 441.584 334.276 441.777 333.028 441.773C331.779 441.769 330.658 441.585 329.666 441.202C328.667 440.817 327.82 440.213 327.124 439.396C326.42 438.578 325.891 437.517 325.517 436.227C325.143 434.937 324.959 433.38 324.962 431.566L324.962 427.135C324.965 425.32 325.148 423.767 325.52 422.477C325.892 421.187 326.432 420.129 327.13 419.31C327.828 418.492 328.68 417.884 329.675 417.504C330.669 417.123 331.796 416.932 333.038 416.925C334.286 416.929 335.397 417.121 336.388 417.503C337.371 417.884 338.218 418.489 338.913 419.306C339.618 420.124 340.146 421.185 340.52 422.475C340.894 423.765 341.079 425.321 341.076 427.136L341.076 431.567C341.073 433.382 340.89 434.935 340.518 436.225L340.516 436.234ZM338.092 427.136C338.095 425.762 337.969 424.577 337.737 423.603C337.496 422.628 337.154 421.839 336.724 421.221C336.283 420.609 335.755 420.16 335.14 419.872C334.514 419.591 333.826 419.441 333.061 419.446C332.298 419.443 331.603 419.588 330.978 419.874C330.353 420.159 329.83 420.609 329.39 421.22C328.95 421.831 328.617 422.626 328.373 423.6C328.128 424.575 328.014 425.747 328.009 427.13L328.01 431.561C328.007 432.935 328.124 434.118 328.365 435.093C328.606 436.068 328.946 436.866 329.378 437.476C329.81 438.086 330.347 438.537 330.962 438.825C331.586 439.114 332.276 439.256 333.041 439.25C333.804 439.254 334.499 439.109 335.124 438.823C335.748 438.538 336.272 438.088 336.711 437.477C337.151 436.866 337.485 436.071 337.729 435.097C337.974 434.122 338.088 432.95 338.092 431.567L338.092 427.136Z" fill="white"/>
<path d="M359.438 437.924C359.032 438.811 358.469 439.541 357.751 440.104C357.032 440.676 356.174 441.093 355.174 441.365C354.175 441.636 353.078 441.771 351.873 441.776C350.821 441.777 349.828 441.708 348.904 441.573C347.97 441.435 347.111 441.286 346.329 441.108C346.148 441.071 346.003 440.988 345.888 440.892C345.764 440.795 345.703 440.657 345.704 440.477L345.702 439.344C345.705 438.977 345.887 438.789 346.257 438.784L346.356 438.786C347.344 438.917 348.311 439.025 349.281 439.115C350.242 439.204 351.105 439.246 351.877 439.252C353.675 439.251 354.97 438.896 355.783 438.173C356.596 437.45 357 436.31 356.999 434.737L356.995 434.053C356.995 433.613 356.933 433.169 356.815 432.695C356.694 432.23 356.487 431.792 356.19 431.399C355.894 431.006 355.501 430.683 355.012 430.439C354.516 430.184 353.903 430.059 353.157 430.059L347.181 430.058C346.768 430.054 346.557 429.858 346.557 429.462L346.559 428.312C346.562 427.9 346.767 427.69 347.182 427.685L353.158 427.686C353.949 427.687 354.593 427.567 355.092 427.328C355.599 427.09 355.987 426.774 356.253 426.397C356.529 426.013 356.714 425.593 356.825 425.139C356.936 424.685 356.992 424.238 356.992 423.798L356.996 423.341C356.993 421.992 356.611 421.006 355.832 420.379C355.051 419.761 353.74 419.447 351.88 419.444C350.918 419.445 350.027 419.496 349.208 419.589C348.387 419.69 347.439 419.802 346.369 419.933L346.271 419.931C345.903 419.928 345.716 419.746 345.712 419.367L345.709 418.198C345.704 418.045 345.767 417.914 345.889 417.804C346.01 417.694 346.152 417.615 346.332 417.571C347.123 417.391 347.981 417.243 348.908 417.101C349.835 416.967 350.828 416.901 351.879 416.9C353.102 416.899 354.222 417.003 355.231 417.209C356.241 417.416 357.094 417.77 357.808 418.276C358.522 418.782 359.072 419.434 359.464 420.242C359.855 421.05 360.051 422.07 360.052 423.292L360.049 423.75C360.045 424.864 359.785 425.871 359.259 426.77C358.734 427.669 357.954 428.363 356.924 428.871C357.513 429.153 358.009 429.498 358.404 429.893C358.8 430.289 359.117 430.713 359.355 431.175C359.593 431.637 359.767 432.104 359.884 432.587C359.992 433.067 360.047 433.546 360.046 434.031L360.048 434.723C360.05 435.946 359.841 437.009 359.445 437.889L359.438 437.924Z" fill="white"/>
<path d="M379.309 437.931C378.902 438.818 378.34 439.548 377.622 440.111C376.903 440.682 376.045 441.1 375.045 441.372C374.046 441.643 372.949 441.778 371.743 441.783C370.692 441.783 369.699 441.715 368.774 441.579C367.841 441.442 366.982 441.293 366.2 441.115C366.019 441.078 365.874 440.995 365.759 440.899C365.635 440.802 365.574 440.663 365.574 440.484L365.573 439.351C365.576 438.983 365.758 438.796 366.128 438.791L366.226 438.793C367.215 438.923 368.182 439.031 369.152 439.122C370.113 439.211 370.976 439.253 371.748 439.258C373.546 439.258 374.841 438.903 375.654 438.18C376.467 437.457 376.871 436.317 376.87 434.744L376.866 434.06C376.866 433.62 376.804 433.176 376.686 432.702C376.565 432.237 376.358 431.799 376.061 431.406C375.764 431.013 375.372 430.69 374.883 430.446C374.395 430.193 373.774 430.066 373.028 430.066L367.052 430.064C366.639 430.061 366.428 429.865 366.428 429.469L366.43 428.319C366.433 427.907 366.638 427.697 367.052 427.692L373.029 427.693C373.82 427.693 374.464 427.574 374.963 427.334C375.47 427.097 375.858 426.781 376.124 426.404C376.4 426.02 376.585 425.599 376.696 425.146C376.807 424.692 376.862 424.245 376.863 423.805L376.867 423.347C376.864 421.999 376.482 421.013 375.702 420.386C374.921 419.767 373.61 419.454 371.751 419.451C370.789 419.452 369.898 419.503 369.079 419.596C368.258 419.697 367.31 419.809 366.24 419.94L366.142 419.938C365.774 419.935 365.586 419.752 365.583 419.374L365.58 418.205C365.575 418.051 365.638 417.92 365.759 417.811C365.881 417.701 366.023 417.622 366.203 417.578C366.994 417.398 367.851 417.25 368.779 417.108C369.705 416.974 370.699 416.908 371.75 416.907C372.973 416.906 374.093 417.009 375.102 417.216C376.111 417.423 376.965 417.777 377.679 418.283C378.393 418.789 378.943 419.44 379.334 420.249C379.726 421.057 379.922 422.077 379.923 423.299L379.919 423.757C379.916 424.87 379.656 425.878 379.13 426.777C378.605 427.676 377.824 428.37 376.795 428.878C377.384 429.16 377.88 429.504 378.275 429.9C378.67 430.295 378.988 430.72 379.226 431.182C379.464 431.644 379.638 432.111 379.755 432.594C379.863 433.074 379.918 433.553 379.917 434.038L379.919 434.73C379.92 435.953 379.712 437.016 379.316 437.896L379.309 437.931Z" fill="white"/>
<path d="M394.748 441.361C394.64 441.492 394.491 441.56 394.32 441.561L392.514 441.56C392.335 441.559 392.195 441.495 392.087 441.365C391.979 441.235 391.921 441.079 391.92 440.908L391.925 420.256L387.692 422.095C387.535 422.161 387.393 422.195 387.267 422.196C387.07 422.192 386.969 422.072 386.972 421.839L386.973 420.168C386.977 420.061 387.003 419.976 387.058 419.925C387.114 419.873 387.199 419.81 387.303 419.741L392.262 417.377C392.524 417.242 392.752 417.181 392.951 417.177L394.299 417.174C394.47 417.173 394.618 417.24 394.739 417.354C394.857 417.477 394.917 417.624 394.918 417.795L394.912 440.91C394.913 441.081 394.854 441.239 394.746 441.37L394.748 441.361Z" fill="white"/>
<path d="M438.351 435.065L435.493 435.064L435.492 440.905C435.491 441.085 435.442 441.237 435.343 441.369C435.244 441.502 435.106 441.563 434.926 441.562L433.003 441.564C432.823 441.563 432.684 441.499 432.584 441.37C432.484 441.242 432.435 441.088 432.436 440.909L432.437 435.067L422.974 435.062C422.472 435.058 422.121 434.968 421.925 434.784C421.729 434.6 421.627 434.265 421.628 433.78L421.632 432.531C421.636 432.074 421.764 431.668 422.024 431.317L431.717 417.691C431.807 417.557 431.911 417.443 432.043 417.326C432.173 417.218 432.382 417.162 432.66 417.165L434.62 417.162C435.195 417.163 435.488 417.402 435.487 417.888L435.481 432.536L438.338 432.537C438.518 432.538 438.659 432.594 438.781 432.699C438.902 432.814 438.963 432.952 438.962 433.132L438.96 434.461C438.96 434.857 438.748 435.056 438.334 435.061L438.351 435.065ZM432.479 421.343C432.479 421.208 432.438 421.146 432.349 421.145L432.314 421.138C432.222 421.147 432.138 421.21 432.047 421.344L424.492 432.083C424.429 432.169 424.392 432.261 424.394 432.342C424.393 432.476 424.479 432.539 424.659 432.54L432.478 432.541L432.479 421.343Z" fill="white"/>
<path d="M457.307 436.502C456.945 437.74 456.405 438.753 455.678 439.539C454.96 440.326 454.059 440.906 452.989 441.262C451.916 441.626 450.676 441.804 449.282 441.806C447.97 441.807 446.867 441.752 445.981 441.642C445.096 441.533 444.314 441.4 443.636 441.243C443.421 441.199 443.228 441.132 443.074 441.047C442.921 440.962 442.844 440.811 442.848 440.614L442.844 439.319C442.848 439.122 442.897 438.971 443.007 438.876C443.116 438.782 443.261 438.731 443.432 438.73C443.475 438.739 443.512 438.737 443.527 438.749C443.553 438.754 443.579 438.76 443.622 438.769C444.459 438.94 445.339 439.075 446.264 439.166C447.189 439.256 448.187 439.299 449.238 439.298C450.506 439.297 451.513 439.117 452.261 438.758C453.009 438.399 453.577 437.904 453.967 437.274C454.357 436.644 454.612 435.878 454.723 434.984C454.834 434.09 454.891 433.113 454.885 432.043L454.887 431.683C454.19 431.837 453.44 431.989 452.638 432.131C451.837 432.272 450.933 432.339 449.926 432.339C448.858 432.336 447.827 432.233 446.858 432.008C445.887 431.791 445.028 431.417 444.281 430.896C443.536 430.366 442.944 429.66 442.512 428.781C442.074 427.891 441.858 426.796 441.858 425.483L441.862 425.287C441.865 422.681 442.524 420.65 443.85 419.178C445.174 417.714 447.186 416.976 449.872 416.978C452.343 416.98 454.293 417.73 455.712 419.225C457.132 420.72 457.843 423.085 457.849 426.304L457.85 432.047C457.851 433.8 457.671 435.291 457.31 436.529L457.307 436.502ZM454.893 426.256C454.895 424.927 454.781 423.816 454.566 422.936C454.351 422.056 454.028 421.352 453.597 420.823C453.174 420.296 452.648 419.928 452.018 419.709C451.398 419.492 450.692 419.383 449.901 419.383C449.138 419.38 448.443 419.48 447.819 419.676C447.195 419.872 446.66 420.202 446.207 420.658C445.754 421.113 445.415 421.718 445.173 422.459C444.931 423.201 444.813 424.129 444.81 425.243L444.805 425.44C444.807 426.312 444.945 427.041 445.229 427.63C445.513 428.218 445.894 428.683 446.381 429.025C446.859 429.366 447.404 429.603 448.004 429.744C448.605 429.885 449.236 429.96 449.892 429.96C450.288 429.96 450.713 429.948 451.17 429.907C451.626 429.874 452.084 429.833 452.537 429.773C452.988 429.722 453.415 429.656 453.817 429.577C454.22 429.498 454.566 429.434 454.849 429.366L454.884 426.254L454.893 426.256Z" fill="white"/>
<path d="M477.353 422.83C477.348 424.123 477.02 425.243 476.367 426.196C475.704 427.148 474.612 428.138 473.07 429.17L469.911 431.3C468.986 431.911 468.231 432.484 467.636 433.018C467.041 433.553 466.579 434.096 466.233 434.645C465.896 435.197 465.655 435.758 465.509 436.34C465.363 436.921 465.293 437.571 465.298 438.292L465.3 438.984L476.363 438.985C476.534 438.984 476.695 439.034 476.819 439.132C476.951 439.231 477.013 439.369 477.014 439.54L477.014 440.987C477.013 441.167 476.949 441.306 476.819 441.415C476.689 441.523 476.533 441.581 476.362 441.582L463.349 441.577C463.178 441.578 463.03 441.512 462.892 441.394C462.763 441.278 462.695 441.129 462.696 440.949L462.701 438.29C462.7 436.582 463.091 435.026 463.867 433.604C464.644 432.181 465.936 430.873 467.738 429.669L471.062 427.438C471.741 426.974 472.298 426.576 472.739 426.226C473.179 425.876 473.527 425.534 473.776 425.198C474.024 424.863 474.206 424.504 474.301 424.128C474.404 423.754 474.446 423.331 474.446 422.846C474.445 421.668 474.072 420.81 473.312 420.268C472.558 419.736 471.291 419.468 469.521 419.465C468.668 419.461 467.713 419.517 466.668 419.618C465.614 419.716 464.63 419.829 463.712 419.965L463.577 419.964C463.227 419.965 463.052 419.767 463.052 419.371L463.057 418.204C463.058 418.025 463.121 417.894 463.238 417.801C463.356 417.708 463.503 417.649 463.683 417.604C464.511 417.379 465.451 417.221 466.49 417.11C467.528 416.999 468.545 416.946 469.526 416.94C472.196 416.939 474.166 417.414 475.437 418.358C476.709 419.301 477.339 420.787 477.346 422.82L477.353 422.83Z" fill="white"/>
<path d="M492.024 441.382C491.916 441.513 491.767 441.581 491.596 441.582L489.79 441.581C489.611 441.58 489.471 441.516 489.363 441.386C489.255 441.256 489.197 441.1 489.196 440.929L489.2 420.277L484.968 422.116C484.811 422.182 484.669 422.216 484.543 422.217C484.346 422.213 484.245 422.093 484.248 421.86L484.248 420.189C484.252 420.082 484.279 419.997 484.334 419.946C484.39 419.894 484.475 419.83 484.578 419.762L489.538 417.398C489.8 417.263 490.028 417.202 490.226 417.198L491.575 417.195C491.746 417.194 491.894 417.26 492.015 417.375C492.133 417.498 492.193 417.645 492.194 417.816L492.188 440.931C492.189 441.102 492.13 441.26 492.022 441.391L492.024 441.382Z" fill="white"/>
<path d="M534.908 422.832C534.903 424.125 534.575 425.244 533.922 426.198C533.26 427.15 532.167 428.14 530.626 429.172L527.466 431.302C526.541 431.913 525.786 432.486 525.191 433.02C524.596 433.555 524.135 434.098 523.788 434.647C523.451 435.198 523.21 435.76 523.064 436.342C522.918 436.923 522.848 437.573 522.853 438.293L522.855 438.986L533.919 438.987C534.089 438.986 534.25 439.036 534.374 439.134C534.506 439.233 534.568 439.371 534.569 439.542L534.569 440.989C534.568 441.169 534.504 441.308 534.374 441.416C534.244 441.525 534.088 441.583 533.917 441.584L520.904 441.579C520.733 441.58 520.585 441.514 520.447 441.396C520.318 441.28 520.25 441.131 520.251 440.951L520.256 438.292C520.255 436.584 520.646 435.028 521.422 433.606C522.199 432.183 523.491 430.875 525.293 429.671L528.617 427.44C529.296 426.976 529.854 426.578 530.294 426.228C530.734 425.878 531.083 425.536 531.331 425.2C531.58 424.865 531.761 424.506 531.856 424.13C531.959 423.756 532.001 423.333 532.001 422.848C532 421.67 531.627 420.812 530.867 420.27C530.113 419.738 528.847 419.47 527.077 419.467C526.224 419.463 525.268 419.519 524.223 419.62C523.17 419.718 522.185 419.831 521.267 419.967L521.133 419.966C520.782 419.966 520.607 419.769 520.607 419.373L520.612 418.206C520.613 418.027 520.676 417.896 520.794 417.803C520.912 417.71 521.059 417.65 521.238 417.606C522.067 417.38 523.007 417.222 524.045 417.111C525.083 417.001 526.1 416.948 527.081 416.942C529.751 416.941 531.721 417.416 532.992 418.36C534.264 419.303 534.895 420.789 534.901 422.822L534.908 422.832Z" fill="white"/>
<path d="M554.932 436.262C554.56 437.552 554.02 438.609 553.322 439.428C552.624 440.247 551.782 440.847 550.796 441.23C549.81 441.612 548.692 441.805 547.443 441.802C546.195 441.798 545.073 441.613 544.082 441.23C543.082 440.846 542.236 440.241 541.54 439.424C540.836 438.606 540.307 437.545 539.933 436.255C539.559 434.965 539.375 433.409 539.378 431.594L539.377 427.163C539.38 425.348 539.564 423.795 539.936 422.505C540.308 421.215 540.848 420.157 541.546 419.339C542.244 418.52 543.096 417.913 544.091 417.532C545.085 417.151 546.212 416.96 547.453 416.953C548.702 416.957 549.813 417.149 550.804 417.532C551.787 417.913 552.634 418.517 553.329 419.334C554.033 420.152 554.562 421.213 554.936 422.503C555.31 423.793 555.495 425.349 555.491 427.164L555.492 431.595C555.489 433.41 555.306 434.963 554.934 436.253L554.932 436.262ZM552.508 427.164C552.51 425.79 552.385 424.605 552.153 423.632C551.912 422.657 551.57 421.868 551.139 421.249C550.698 420.638 550.17 420.188 549.555 419.9C548.93 419.619 548.241 419.469 547.477 419.475C546.713 419.471 546.018 419.616 545.394 419.902C544.769 420.187 544.246 420.637 543.806 421.248C543.366 421.859 543.033 422.654 542.788 423.628C542.544 424.603 542.43 425.775 542.425 427.158L542.425 431.589C542.423 432.963 542.54 434.147 542.781 435.122C543.021 436.097 543.361 436.894 543.794 437.504C544.226 438.114 544.763 438.565 545.378 438.853C546.002 439.143 546.692 439.284 547.457 439.279C548.22 439.282 548.915 439.137 549.539 438.851C550.164 438.566 550.688 438.116 551.127 437.505C551.567 436.894 551.9 436.099 552.145 435.125C552.389 434.15 552.503 432.978 552.508 431.595L552.508 427.164Z" fill="white"/>
<path d="M574.63 422.842C574.626 424.135 574.298 425.255 573.644 426.208C572.982 427.16 571.89 428.15 570.348 429.182L567.189 431.312C566.264 431.923 565.509 432.496 564.914 433.03C564.319 433.565 563.857 434.108 563.511 434.658C563.174 435.209 562.933 435.77 562.787 436.352C562.641 436.933 562.57 437.584 562.576 438.304L562.578 438.996L573.641 438.997C573.812 438.996 573.972 439.047 574.096 439.144C574.229 439.243 574.29 439.381 574.291 439.552L574.292 440.999C574.291 441.179 574.226 441.318 574.096 441.427C573.966 441.535 573.811 441.593 573.64 441.594L560.627 441.589C560.456 441.59 560.308 441.524 560.17 441.406C560.041 441.29 559.973 441.141 559.973 440.961L559.979 438.302C559.978 436.594 560.368 435.039 561.145 433.616C561.922 432.193 563.214 430.885 565.015 429.681L568.339 427.45C569.018 426.987 569.576 426.588 570.016 426.238C570.457 425.888 570.805 425.546 571.054 425.21C571.302 424.875 571.483 424.516 571.578 424.14C571.682 423.766 571.724 423.343 571.724 422.858C571.723 421.68 571.35 420.822 570.589 420.28C569.835 419.748 568.569 419.48 566.799 419.477C565.946 419.473 564.991 419.529 563.948 419.621C562.894 419.72 561.909 419.833 560.992 419.968L560.857 419.968C560.506 419.968 560.331 419.77 560.331 419.375L560.337 418.208C560.337 418.028 560.4 417.897 560.518 417.804C560.636 417.712 560.783 417.652 560.963 417.608C561.791 417.382 562.731 417.224 563.769 417.113C564.808 417.002 565.825 416.95 566.806 416.944C569.475 416.942 571.445 417.418 572.717 418.361C573.989 419.304 574.619 420.791 574.625 422.823L574.63 422.842Z" fill="white"/>
<path d="M589.301 441.394C589.193 441.525 589.044 441.593 588.873 441.594L587.067 441.593C586.887 441.592 586.748 441.527 586.64 441.397C586.532 441.267 586.473 441.112 586.473 440.941L586.477 420.289L582.245 422.127C582.088 422.194 581.946 422.228 581.82 422.229C581.623 422.225 581.522 422.105 581.525 421.872L581.525 420.2C581.529 420.093 581.556 420.009 581.611 419.957C581.667 419.906 581.751 419.842 581.855 419.774L586.815 417.41C587.076 417.275 587.305 417.214 587.503 417.209L588.852 417.207C589.031 417.208 589.171 417.272 589.291 417.387C589.41 417.51 589.47 417.657 589.471 417.828L589.465 440.942C589.466 441.113 589.407 441.272 589.299 441.403L589.301 441.394Z" fill="white"/>
<path d="M295.903 459.055L228.881 459.041L228.877 478.244L295.899 478.258L295.903 459.055Z" fill="white"/>
<path d="M597.669 271.08L530.647 271.065L530.645 282.582L597.666 282.596L597.669 271.08Z" fill="white"/>
<path d="M597.663 291.654L478.042 291.629L478.04 303.146L597.661 303.171L597.663 291.654Z" fill="white"/>
<path d="M522.457 487.029L228.881 486.966L228.877 506.169L522.453 506.232L522.457 487.029Z" fill="white"/>
<path d="M570.802 496.582C570.803 501.884 566.5 506.18 561.197 506.182C555.894 506.183 551.598 501.879 551.597 496.576C551.595 491.274 555.899 486.978 561.202 486.976C566.505 486.975 570.8 491.279 570.802 496.582Z" fill="white"/>
<path d="M597.683 496.585C597.684 501.888 593.381 506.184 588.078 506.185C582.775 506.187 578.479 501.883 578.478 496.58C578.476 491.277 582.78 486.982 588.083 486.98C593.386 486.979 597.681 491.283 597.683 496.585Z" fill="white"/>
<path d="M285.402 284.654L285.394 318.049C285.396 319.749 284.017 321.129 282.318 321.131L225.186 321.125C223.478 321.126 222.1 319.739 222.096 318.048L222.103 284.652C222.103 282.945 223.49 281.566 225.189 281.563L282.321 281.569C284.029 281.569 285.399 282.955 285.402 284.654Z" fill="#FECC86"/>
<path d="M251.979 299.568L222.106 299.563L222.104 297.99L250.413 297.998L250.411 287.959L251.984 287.958L251.979 299.568Z" fill="#EFA348"/>
<path d="M257.065 321.12L255.492 321.122L255.499 305.593L285.4 305.595L285.401 307.168L257.065 307.163L257.065 321.12Z" fill="#EFA348"/>
<path d="M265.414 281.527L263.847 281.527L263.847 298.168L265.414 298.168L265.414 281.527Z" fill="#EFA348"/>
<path d="M285.353 290.127L264.53 290.123L264.529 291.69L285.352 291.694L285.353 290.127Z" fill="#EFA348"/>
<path d="M239.531 314.141L237.958 314.143L237.955 308.759L222.102 308.757L222.1 307.184L239.527 307.184L239.531 314.141Z" fill="#EFA348"/>
<path d="M609.616 523.808L213.705 523.751C206.568 523.755 200.758 517.937 200.754 510.8L200.787 270.6C200.783 263.463 206.593 257.652 213.738 257.65L609.649 257.706C616.786 257.703 622.596 263.521 622.599 270.657L622.567 510.858C622.571 517.994 616.761 523.806 609.616 523.808ZM213.739 260.014C207.898 260.013 203.15 264.766 203.149 270.607L203.117 510.807C203.116 516.649 207.869 521.397 213.71 521.398L609.621 521.454C615.463 521.455 620.211 516.702 620.212 510.861L620.244 270.66C620.245 264.819 615.492 260.071 609.651 260.07L213.739 260.014Z" fill="#1D1D1B"/>
<path d="M708.661 541.62C702.034 541.62 696.626 536.212 696.626 529.585C696.626 522.958 702.034 517.55 708.661 517.55C715.288 517.55 720.696 522.958 720.696 529.585C720.696 536.212 715.288 541.62 708.661 541.62ZM708.661 537.839C713.215 537.839 716.915 534.139 716.915 529.585C716.915 525.031 713.215 521.332 708.661 521.332C704.107 521.332 700.407 525.031 700.407 529.585C700.407 534.139 704.107 537.839 708.661 537.839Z" fill="#3649DB"/>
<path d="M688.42 429.941C687.383 429.941 686.53 430.795 686.53 431.832V440.166C686.53 441.203 687.383 442.057 688.42 442.057C689.457 442.057 690.311 441.203 690.311 440.166V431.832C690.311 430.795 689.457 429.941 688.42 429.941Z" fill="#040A4F"/>
<path d="M688.42 415.385C687.383 415.385 686.53 416.239 686.53 417.276V425.591C686.53 426.627 687.383 427.481 688.42 427.481C689.457 427.481 690.311 426.627 690.311 425.591V417.276C690.311 416.239 689.457 415.385 688.42 415.385Z" fill="#040A4F"/>
<path d="M700.11 426.83H692.628C691.592 426.83 690.738 427.684 690.738 428.721C690.738 429.757 691.592 430.611 692.628 430.611H700.11C701.146 430.611 702 429.757 702 428.721C702 427.684 701.146 426.83 700.11 426.83Z" fill="#040A4F"/>
<path d="M684.212 426.83H676.731C675.694 426.83 674.84 427.684 674.84 428.721C674.84 429.757 675.694 430.611 676.731 430.611H684.212C685.249 430.611 686.103 429.757 686.103 428.721C686.103 427.684 685.249 426.83 684.212 426.83Z" fill="#040A4F"/>
</svg>
