<svg width="1153" height="1003" viewBox="0 0 1153 1003" fill="none" xmlns="http://www.w3.org/2000/svg">
<mask id="mask0_22_846" style="mask-type:alpha" maskUnits="userSpaceOnUse" x="0" y="0" width="1153" height="1003">
<rect width="1153" height="1003" fill="#D9D9D9"/>
</mask>
<g mask="url(#mask0_22_846)">
<path d="M343.984 305.092C343.984 305.092 324.829 273.422 278.874 281.636C278.874 281.636 309.811 327.517 343.984 305.092Z" fill="#ADCEEF"/>
<path d="M373.897 313.454C373.897 313.454 368.192 249.969 290.873 227.946C290.873 227.946 304.07 322.324 373.897 313.454Z" fill="#E4EFFA"/>
<path d="M466.417 304.908C466.417 304.908 488.281 299.557 494.609 307.779C500.936 316 485.355 338.668 473.518 340.426C461.682 342.187 466.417 304.908 466.417 304.908Z" fill="#FE9F73"/>
<path d="M404.624 607.801C404.624 607.801 460.259 580.785 470.456 542.624C480.656 504.464 415.171 499.585 416.081 499.593C416.991 499.596 349.574 517.455 344.972 528.352C340.369 539.245 320.126 584.636 328.315 584.676C336.503 584.717 404.624 607.804 404.624 607.804V607.801Z" fill="#ED7163"/>
<path d="M453.843 265.108C453.829 265.027 453.81 264.946 453.788 264.865C453.162 262.119 450.578 260.277 447.777 260.575C447.696 260.582 447.612 260.594 447.527 260.605C447.501 260.608 447.472 260.608 447.446 260.616L325.024 281.039C324.998 281.043 324.969 281.05 324.943 281.057C324.862 281.072 324.777 281.091 324.7 281.113C321.954 281.739 320.108 284.322 320.406 287.12C320.414 287.201 320.425 287.285 320.436 287.366C320.44 287.392 320.44 287.422 320.447 287.447L362.911 541.994C363.354 544.64 365.856 546.428 368.502 545.985L492.335 525.326C494.981 524.884 496.768 522.382 496.326 519.736L453.862 265.189C453.858 265.163 453.851 265.134 453.843 265.108Z" fill="#76ADE5"/>
<path d="M318.07 286.228L326.94 277.7L446.278 258.106L458.277 265.565C458.277 265.565 459.043 276.381 458.413 276.654C457.783 276.926 319.592 301.635 319.242 299.502C318.892 297.372 318.074 286.228 318.074 286.228H318.07Z" fill="#608FC0"/>
<g opacity="0.5">
<path d="M331.805 289.747C331.93 290.495 331.591 291.214 330.998 291.608C330.787 291.752 330.541 291.851 330.268 291.895C330.003 291.94 329.737 291.925 329.487 291.859C328.797 291.682 328.241 291.111 328.119 290.362C327.95 289.345 328.639 288.383 329.652 288.214C330.67 288.044 331.631 288.73 331.801 289.747H331.805Z" fill="white"/>
<path d="M337.502 288.796C337.627 289.544 337.288 290.263 336.695 290.657C336.485 290.801 336.238 290.901 335.965 290.945C335.696 290.989 335.427 290.974 335.184 290.908C334.495 290.727 333.942 290.16 333.817 289.412C333.647 288.395 334.333 287.433 335.35 287.263C336.367 287.094 337.329 287.779 337.498 288.796H337.502Z" fill="white"/>
<path d="M343.199 287.845C343.324 288.593 342.985 289.312 342.392 289.706C342.182 289.85 341.935 289.95 341.662 289.994C341.393 290.038 341.124 290.023 340.881 289.957C340.192 289.776 339.639 289.209 339.514 288.461C339.344 287.444 340.03 286.482 341.047 286.312C342.064 286.143 343.026 286.828 343.195 287.845H343.199Z" fill="white"/>
</g>
<path d="M495.888 517.105C496.573 521.206 493.798 525.087 489.7 525.772L371.14 545.551C367.039 546.236 363.155 543.465 362.473 539.363L320.911 290.244C320.149 285.667 323.24 281.337 327.817 280.575L444.66 261.08C449.237 260.317 453.567 263.405 454.33 267.986L495.891 517.105H495.888ZM443.982 255.515L326.649 275.091C319.098 276.351 313.998 283.493 315.258 291.044L357.247 542.728C358.508 550.279 365.65 555.379 373.2 554.119L490.533 534.543C498.084 533.283 503.184 526.141 501.924 518.59L459.935 266.906C458.675 259.355 451.533 254.255 443.982 255.515Z" fill="#20111D"/>
<path d="M416.026 601.035V601.37V601.477L415.864 633.789L415.588 688.683C398.057 684.305 383.055 680.112 371.328 676.644C351.535 670.788 332.778 661.848 315.87 650.007C315.782 649.945 315.693 649.882 315.605 649.823L317.871 580.53C317.871 580.53 303.639 515.859 304.627 500.396C305.618 484.933 315.8 449.504 320.414 435.879C321.77 431.874 322.584 426.685 323.052 421.356C323.089 420.958 323.122 420.56 323.152 420.158C323.152 420.147 323.152 420.144 323.152 420.144C323.557 415.029 323.657 409.858 323.642 405.543C323.642 405.407 323.642 405.274 323.642 405.134C323.642 404.754 323.642 404.39 323.635 404.025C323.635 403.929 323.635 403.833 323.635 403.737C323.572 398.526 323.351 394.952 323.351 394.952C323.439 394.067 323.565 393.238 323.716 392.461C323.871 391.646 324.062 390.891 324.28 390.187C324.445 389.653 324.63 389.148 324.825 388.68C326.155 385.499 328.197 383.712 330.607 383.049C332.391 382.555 334.381 382.676 336.437 383.299C343.712 385.503 351.823 393.99 354.697 403.756C360.066 421.983 355.254 474.725 355.254 474.725C355.254 474.725 367.695 487.292 375.507 512.347C377.578 518.988 379.325 526.506 380.427 534.9C380.844 538.092 381.054 541.088 381.076 543.9C381.109 547.146 380.891 550.146 380.482 552.91C379.904 556.842 378.931 560.302 377.704 563.343C371.17 579.561 357.439 583.917 357.439 583.917L358.345 584.182L380.744 590.727L414.858 600.696L416.03 601.039H416.037L416.026 601.035Z" fill="#FE9F73"/>
<path d="M487.257 427.831L488.783 437.151C488.783 437.151 475.637 450.414 479.927 467.259C484.217 484.104 495.545 486.134 495.545 486.134C495.545 486.134 513.241 462.417 512.961 454.18C512.681 445.944 512.615 431.502 487.257 427.835V427.831Z" fill="#FE9F73"/>
<path d="M497.8 483.009C497.8 483.009 504.894 475.816 511.487 460.113C510.392 459.435 508.355 458.845 507.054 458.459C503.052 457.272 500.505 458.094 498.342 460.902L490.198 472.823C490.198 472.823 488.631 475.867 492.07 479.387C493.393 480.739 497.804 483.009 497.804 483.009H497.8Z" fill="#F78A5E"/>
<path d="M495.781 486.768L495.409 486.676C489.726 485.268 486.207 480.887 486.059 480.699C485.691 480.264 476.721 469.562 478.508 457.11C480.292 444.713 490.684 434.619 491.126 434.195L491.904 435.006C491.797 435.106 481.346 445.266 479.618 457.272C477.9 469.219 486.833 479.884 486.925 479.991C486.97 480.046 490.22 484.082 495.309 485.493L505.407 471.243C515.972 455.99 511.1 444.053 511.052 443.932L512.084 443.493C512.139 443.622 513.426 446.692 513.363 451.752C513.304 456.391 512.033 463.647 506.328 471.887L495.781 486.772V486.768Z" fill="black"/>
<path d="M497.524 491.312L498.714 498.594C498.714 498.594 488.443 508.957 491.793 522.12C495.143 535.284 503.995 536.868 503.995 536.868C503.995 536.868 517.822 518.332 517.604 511.901C517.387 505.467 517.335 494.179 497.52 491.312H497.524Z" fill="#FE9F73"/>
<path d="M505.76 534.429C505.76 534.429 511.307 528.809 516.455 516.537C515.6 516.007 514.008 515.55 512.991 515.247C509.862 514.319 507.876 514.96 506.184 517.156L499.82 526.472C499.82 526.472 498.596 528.849 501.283 531.599C502.315 532.656 505.764 534.429 505.764 534.429H505.76Z" fill="#F78A5E"/>
<path d="M504.183 537.366L503.892 537.296C499.451 536.197 496.702 532.77 496.588 532.626C496.3 532.287 489.291 523.926 490.688 514.193C492.081 504.509 500.203 496.619 500.549 496.287L501.157 496.921C501.076 496.998 492.906 504.936 491.557 514.319C490.216 523.653 497.196 531.989 497.266 532.074C497.303 532.118 499.842 535.269 503.818 536.374L511.708 525.238C519.963 513.32 516.16 503.989 516.119 503.897L516.926 503.554C517.096 503.948 520.976 513.397 512.427 525.743L504.187 537.373L504.183 537.366Z" fill="black"/>
<path d="M378.234 561.836C378.234 561.836 369.368 584.765 380.722 590.716C392.076 596.668 353.374 599.837 353.381 598.713C353.389 597.593 326.642 564.378 333.378 562.731C340.115 561.084 361.179 553.338 365.918 558.408C370.658 563.479 378.234 561.836 378.234 561.836Z" fill="#FE9F73"/>
<path d="M478.302 372.66L479.828 381.98C479.828 381.98 466.683 395.243 470.972 412.088C475.262 428.933 486.59 430.964 486.59 430.964C486.59 430.964 504.286 407.246 504.006 399.009C503.73 390.777 503.66 376.331 478.302 372.664V372.66Z" fill="#FE9F73"/>
<path d="M488.842 427.838C488.842 427.838 495.936 420.645 502.528 404.942C501.434 404.264 499.396 403.675 498.095 403.288C494.093 402.101 491.546 402.923 489.383 405.731L481.239 417.652C481.239 417.652 479.673 420.696 483.111 424.216C484.434 425.568 488.845 427.838 488.845 427.838H488.842Z" fill="#F78A5E"/>
<path d="M415.484 601.065L415.318 633.818L416.438 633.824L416.604 601.071L415.484 601.065Z" fill="black"/>
<path d="M413.089 602.734L412.635 601.709C431.684 593.307 449.384 577.14 457.764 565.675C465.179 555.537 468.359 548.042 468.389 547.964L469.424 548.399C469.391 548.477 466.17 556.083 458.671 566.335C450.202 577.918 432.325 594.247 413.089 602.734Z" fill="black"/>
<path d="M335.895 391.901C334.778 388.739 326.704 388.319 324.331 388.742C322.798 389.015 324.401 418.784 323.155 420.14C323.155 420.14 322.931 420.512 326.848 420.649C331.167 420.8 334.163 418.979 334.163 418.979C334.163 418.979 337.008 395.062 335.891 391.901H335.895Z" fill="#F78A5E"/>
<path d="M486.826 431.594L486.457 431.505C481.346 430.296 477.292 425.745 477.123 425.55C476.732 425.093 467.762 414.391 469.553 401.935C471.337 389.538 481.729 379.445 482.171 379.021L482.949 379.831C482.842 379.931 472.391 390.091 470.663 402.097C468.945 414.041 477.878 424.71 477.97 424.817C478.003 424.853 481.759 429.062 486.354 430.322L496.452 416.068C507.017 400.815 502.145 388.879 502.097 388.757L503.129 388.318C503.184 388.447 504.47 391.517 504.408 396.577C504.349 401.217 503.077 408.473 497.373 416.713L486.829 431.594H486.826Z" fill="black"/>
<path d="M479.275 382.072L461.553 280L462.662 279.819L480.38 381.888L479.275 382.072Z" fill="black"/>
<path d="M492.214 325.464L491.3 324.815C491.377 324.705 499.064 313.719 493.426 307.296C487.71 300.788 467.512 305.236 467.309 305.28L467.062 304.186C467.917 303.994 488.116 299.55 494.266 306.555C500.49 313.642 492.553 324.985 492.214 325.464Z" fill="black"/>
<path d="M340.343 571.756C340.178 571.874 339.96 571.903 339.761 571.818C333.091 568.885 326.856 559.101 326.59 558.684C326.417 558.408 326.498 558.047 326.774 557.87C327.051 557.697 327.416 557.778 327.589 558.054C327.652 558.154 333.898 567.953 340.236 570.739C340.535 570.871 340.671 571.218 340.539 571.516C340.494 571.616 340.424 571.701 340.343 571.76V571.756Z" fill="#000100"/>
<path d="M348.414 570.521C348.285 570.614 348.119 570.654 347.953 570.621C340.808 569.195 332.604 560.984 332.262 560.638C332.033 560.406 332.033 560.03 332.265 559.801C332.497 559.569 332.873 559.573 333.102 559.801C333.183 559.882 341.397 568.104 348.185 569.456C348.506 569.519 348.712 569.832 348.65 570.153C348.62 570.308 348.532 570.433 348.414 570.518V570.521Z" fill="#000100"/>
<path d="M357.605 584.444L357.266 583.375C357.336 583.353 364.297 581.076 370.521 574.008C376.266 567.485 382.553 555.416 379.867 534.97C377.166 514.389 370.51 499.213 365.399 490.103C359.864 480.234 354.9 475.167 354.852 475.116L354.668 474.931L354.69 474.67C354.738 474.143 359.433 421.824 354.155 403.91C350.997 393.179 340.911 383.358 332.999 383.303C332.991 383.303 332.988 383.303 332.98 383.303C329.07 383.284 326.244 385.72 324.81 390.353C324.39 391.709 324.088 393.26 323.911 394.966C323.963 395.858 324.703 409.092 323.613 421.408C323.078 427.488 322.179 432.415 320.944 436.06C316.721 448.531 306.185 484.767 305.183 500.437C304.21 515.642 318.273 579.764 318.416 580.412L317.322 580.652C316.74 578.01 303.082 515.73 304.066 500.367C305.076 484.594 315.645 448.217 319.883 435.703C321.088 432.143 321.969 427.3 322.496 421.312C323.613 408.705 322.798 395.125 322.791 394.989V394.944V394.9C322.975 393.105 323.296 391.466 323.738 390.025C325.754 383.52 329.874 382.168 332.984 382.186C332.991 382.186 332.999 382.186 333.006 382.186C336.99 382.216 341.714 384.556 345.963 388.613C350.315 392.766 353.606 398.088 355.228 403.597C360.431 421.26 356.223 470.078 355.828 474.522C356.783 475.539 361.345 480.599 366.35 489.517C371.516 498.716 378.245 514.046 380.972 534.827C382.181 544.043 381.713 552.383 379.583 559.617C377.87 565.425 375.091 570.532 371.317 574.8C364.883 582.078 357.896 584.356 357.601 584.448L357.605 584.444Z" fill="black"/>
<path d="M666.936 321.351C666.936 321.351 644.467 320.039 639.728 329.267C634.989 338.495 654.406 357.975 666.364 357.569C678.323 357.164 666.936 321.351 666.936 321.351Z" fill="#FE9F73"/>
<path d="M782.411 608.107C782.411 608.107 722.814 591.582 705.892 555.887C688.969 520.196 752.495 503.572 751.599 503.742C750.704 503.912 820.239 509.303 826.733 519.187C833.23 529.07 861.337 570.057 853.288 571.579C845.243 573.097 782.411 608.107 782.411 608.107Z" fill="#ED7163"/>
<path d="M672.117 279.937C672.117 279.852 672.121 279.771 672.124 279.686C672.246 276.875 674.454 274.593 677.262 274.383C677.343 274.376 677.427 274.372 677.512 274.365C677.542 274.365 677.568 274.361 677.593 274.361L801.692 272.342C801.721 272.342 801.747 272.342 801.773 272.342C801.858 272.342 801.939 272.345 802.024 272.349C804.835 272.471 807.117 274.678 807.33 277.483C807.338 277.564 807.341 277.648 807.349 277.733C807.349 277.763 807.352 277.788 807.356 277.814L811.554 535.847C811.598 538.53 809.457 540.741 806.774 540.786L681.245 542.827C678.562 542.871 676.351 540.734 676.307 538.047L672.11 280.014C672.11 279.985 672.11 279.959 672.11 279.933L672.117 279.937Z" fill="#76ADE5"/>
<path d="M809.471 276.189L799.208 269.405L678.297 271.686L667.842 281.186C667.842 281.186 669.044 291.962 669.711 292.117C670.378 292.271 810.761 291.619 810.721 289.46C810.68 287.3 809.475 276.193 809.475 276.193L809.471 276.189Z" fill="#608FC0"/>
<g opacity="0.5">
<path d="M796.595 282.133C796.606 282.892 797.071 283.537 797.723 283.817C797.955 283.921 798.217 283.976 798.493 283.969C798.762 283.965 799.02 283.902 799.252 283.792C799.897 283.493 800.34 282.83 800.328 282.071C800.31 281.039 799.459 280.217 798.431 280.235C797.399 280.254 796.577 281.101 796.595 282.133Z" fill="white"/>
<path d="M790.821 282.226C790.832 282.985 791.296 283.63 791.948 283.91C792.181 284.013 792.442 284.068 792.719 284.061C792.991 284.057 793.253 283.994 793.481 283.884C794.126 283.582 794.569 282.922 794.554 282.163C794.535 281.131 793.688 280.309 792.656 280.328C791.624 280.346 790.802 281.194 790.821 282.226Z" fill="white"/>
<path d="M785.046 282.322C785.057 283.081 785.521 283.726 786.174 284.006C786.406 284.109 786.667 284.164 786.944 284.157C787.22 284.149 787.478 284.09 787.707 283.98C788.352 283.678 788.794 283.018 788.779 282.259C788.761 281.227 787.913 280.405 786.881 280.424C785.849 280.442 785.028 281.29 785.046 282.322Z" fill="white"/>
</g>
<path d="M672.158 282.852C672.084 278.212 675.784 274.391 680.42 274.313L798.862 272.386C803.501 272.312 807.323 276.009 807.4 280.648L811.509 533.176C811.576 537.336 808.259 540.76 804.102 540.826L683.921 542.783C679.764 542.849 676.336 539.536 676.27 535.376L672.161 282.848L672.158 282.852ZM666.449 282.804L670.602 537.933C670.728 545.587 677.033 551.69 684.687 551.565L803.623 549.63C811.277 549.505 817.38 543.199 817.254 535.545L813.101 280.416C812.976 272.762 806.671 266.659 799.016 266.785L680.081 268.719C672.427 268.845 666.324 275.15 666.449 282.804Z" fill="#20111D"/>
<path d="M867.233 650.38C838.853 674.429 805.101 690.847 768.603 701.523L768.662 652.535L768.68 635.687L770.051 603.939L770.032 603.839L769.973 603.508L770.316 603.334L771.064 602.955L802.831 586.983H802.838L823.667 576.51L824.51 576.086C824.51 576.086 810.164 574.273 800.822 559.436C800.811 559.422 800.807 559.407 800.796 559.392C800.789 559.381 800.785 559.374 800.782 559.363C799.057 556.625 797.509 553.441 796.249 549.748C795.35 547.102 794.594 544.191 794.041 540.996C793.555 538.225 793.22 535.243 793.054 532.026C792.803 527.084 792.822 522.4 793.043 517.982C793.205 514.835 793.47 511.828 793.82 508.953C794.237 505.493 794.778 502.239 795.398 499.191C797.111 490.77 799.44 483.942 801.563 478.867C804.452 471.946 806.947 468.291 806.947 468.291C806.947 468.291 803.929 457.493 800.866 443.994C800.612 442.892 800.365 441.776 800.118 440.644C796.783 425.48 793.677 407.883 794.683 398.39C795.744 388.263 802.189 378.453 808.948 374.974C810.853 373.987 812.792 373.511 814.634 373.674C817.125 373.895 819.458 375.277 821.341 378.169C821.621 378.597 821.89 379.061 822.148 379.555C822.484 380.204 822.804 380.908 823.103 381.67C823.103 381.67 823.103 381.678 823.11 381.685C823.401 382.43 823.674 383.222 823.921 384.077C823.921 384.077 824.385 387.898 825.329 393.334C825.373 393.592 825.421 393.857 825.465 394.126C825.509 394.377 825.553 394.628 825.598 394.871C826.36 399.05 827.374 403.984 828.66 408.815V408.83C828.66 408.83 828.66 408.83 828.66 408.838C828.76 409.221 828.866 409.611 828.973 409.991C830.396 415.15 832.135 420.103 834.191 423.796C841.193 436.366 857.607 469.374 861.373 484.41C865.136 499.438 862.814 565.609 862.814 565.609L867.237 650.372L867.233 650.38Z" fill="#FE9F73"/>
<path d="M668.634 446.017L668.819 455.459C668.819 455.459 684.142 466.131 682.966 483.47C681.791 500.812 671.015 504.855 671.015 504.855C671.015 504.855 649.328 484.723 648.115 476.571C646.903 468.423 644.36 454.202 668.638 446.017H668.634Z" fill="#FE9F73"/>
<path d="M668.229 502.194C668.229 502.194 659.952 496.401 650.632 482.147C651.587 481.281 653.485 480.337 654.697 479.722C658.419 477.832 661.069 478.182 663.707 480.551L673.871 490.807C673.871 490.807 675.961 493.519 673.215 497.599C672.161 499.169 668.229 502.198 668.229 502.198V502.194Z" fill="#F78A5E"/>
<path d="M670.897 505.526L657.841 492.794C650.735 485.718 648.178 478.808 647.279 474.257C646.302 469.293 647.013 466.039 647.043 465.903L648.137 466.15C648.108 466.275 645.473 478.897 658.625 491.994L671.126 504.184C675.876 501.878 678.345 497.323 678.371 497.275C678.452 497.138 685.31 485.033 681.463 473.594C677.597 462.096 665.48 453.992 665.358 453.911L665.977 452.975C666.49 453.31 678.537 461.366 682.528 473.236C686.537 485.162 679.649 497.308 679.351 497.82C679.251 498.012 676.58 502.957 671.244 505.367L670.893 505.526H670.897Z" fill="black"/>
<path d="M670.002 510.309L670.145 517.687C670.145 517.687 682.118 526.026 681.201 539.577C680.283 553.127 671.863 556.285 671.863 556.285C671.863 556.285 654.914 540.553 653.967 534.185C653.02 527.817 651.034 516.707 670.005 510.309H670.002Z" fill="#FE9F73"/>
<path d="M669.685 554.207C669.685 554.207 663.217 549.678 655.935 538.542C656.684 537.863 658.165 537.126 659.112 536.644C662.02 535.166 664.091 535.439 666.154 537.292L674.096 545.304C674.096 545.304 675.729 547.423 673.584 550.611C672.758 551.838 669.689 554.204 669.689 554.204L669.685 554.207Z" fill="#F78A5E"/>
<path d="M671.771 556.809L661.57 546.859C650.927 536.26 653.039 526.266 653.135 525.846L653.99 526.038C653.967 526.137 651.907 535.999 662.185 546.232L671.955 555.759C675.677 553.953 677.597 550.397 677.615 550.36C677.678 550.253 683.036 540.793 680.033 531.853C677.011 522.868 667.544 516.537 667.448 516.475L667.931 515.745C668.329 516.007 677.744 522.301 680.862 531.576C683.994 540.896 678.61 550.386 678.382 550.787C678.304 550.938 676.215 554.8 672.047 556.687L671.774 556.809H671.771Z" fill="black"/>
<path d="M800.067 558.132C800.067 558.132 812.928 579.082 802.834 586.987C792.741 594.888 831.376 591.018 831.17 589.916C830.963 588.815 851.269 551.318 844.348 550.912C837.423 550.507 815.309 546.697 811.564 552.538C807.817 558.379 800.067 558.132 800.067 558.132Z" fill="#FE9F73"/>
<path d="M667.481 390.139L667.665 399.58C667.665 399.58 682.988 410.253 681.813 427.591C680.637 444.934 669.862 448.977 669.862 448.977C669.862 448.977 648.174 428.841 646.962 420.693C645.749 412.545 643.207 398.324 667.485 390.139H667.481Z" fill="#FE9F73"/>
<path d="M667.076 446.312C667.076 446.312 658.799 440.519 649.479 426.265C650.433 425.399 652.331 424.455 653.544 423.84C657.266 421.949 659.915 422.3 662.554 424.669L672.718 434.925C672.718 434.925 674.807 437.637 672.062 441.717C671.008 443.287 667.076 446.316 667.076 446.316V446.312Z" fill="#F78A5E"/>
<path d="M769.387 603.482L768.087 652.508L769.206 652.537L770.507 603.512L769.387 603.482Z" fill="black"/>
<path d="M773.169 604.65C752.712 599.778 732.182 586.943 721.764 577.081C712.536 568.347 707.992 561.449 707.948 561.379L708.888 560.767C708.932 560.833 713.413 567.632 722.534 576.267C732.849 586.029 753.176 598.735 773.43 603.559L773.169 604.65Z" fill="black"/>
<path d="M811.023 383.347C811.55 380.038 819.414 378.162 821.824 378.151C823.379 378.144 827.179 407.71 828.649 408.823C828.649 408.823 828.936 409.147 825.108 409.991C820.888 410.92 817.608 409.671 817.608 409.671C817.608 409.671 810.492 386.66 811.019 383.347H811.023Z" fill="#F78A5E"/>
<path d="M669.74 449.64L656.687 436.911C649.582 429.836 647.025 422.926 646.125 418.375C645.149 413.411 645.86 410.157 645.89 410.02L646.984 410.267C646.955 410.393 644.32 423.014 657.472 436.112L669.976 448.302C674.266 446.235 677.203 441.415 677.232 441.367C677.298 441.252 684.157 429.15 680.309 417.711C676.444 406.214 664.327 398.11 664.205 398.029L664.824 397.093C665.336 397.428 677.383 405.484 681.374 417.354C685.384 429.279 678.496 441.426 678.198 441.938C678.061 442.166 674.892 447.373 670.087 449.489L669.74 449.64Z" fill="black"/>
<path d="M667.492 399.591L666.221 296.063L666.954 296.041L668.225 399.569L667.492 399.591Z" fill="black"/>
<path d="M645.274 346.23C644.854 345.821 635 336.099 639.838 328.003C644.626 320.002 665.292 320.725 666.169 320.761L666.125 321.882C665.919 321.874 645.245 321.148 640.8 328.581C636.415 335.915 645.956 345.334 646.052 345.426L645.27 346.23H645.274Z" fill="black"/>
<path d="M839.126 561.047C839.31 561.132 839.531 561.124 839.712 561.003C845.741 556.916 850.112 546.162 850.292 545.705C850.414 545.403 850.266 545.061 849.964 544.935C849.662 544.814 849.315 544.961 849.194 545.263C849.15 545.37 844.775 556.138 839.045 560.022C838.776 560.207 838.706 560.571 838.886 560.844C838.949 560.936 839.03 561.003 839.122 561.047H839.126Z" fill="#000100"/>
<path d="M830.963 561.29C831.107 561.356 831.276 561.367 831.435 561.305C838.205 558.615 844.79 549.055 845.066 548.65C845.251 548.381 845.181 548.012 844.912 547.828C844.643 547.644 844.274 547.714 844.09 547.983C844.023 548.079 837.431 557.645 830.996 560.203C830.694 560.325 830.543 560.667 830.665 560.969C830.724 561.113 830.831 561.224 830.963 561.286V561.29Z" fill="#000100"/>
<path d="M824.441 576.643C824.135 576.606 816.849 575.625 809.206 569.63C804.725 566.11 801.065 561.589 798.335 556.19C794.93 549.461 792.965 541.342 792.49 532.059C791.421 511.127 795.272 494.835 798.692 484.852C802.005 475.178 805.576 469.378 806.335 468.206C805.141 463.909 792.188 416.65 794.115 398.338C794.716 392.626 796.99 386.8 800.524 381.928C803.973 377.171 808.193 374.013 812.106 373.264C815.165 372.678 819.477 373.253 822.639 379.301C823.335 380.638 823.947 382.194 824.452 383.926L824.47 384.014C824.485 384.15 826.139 397.653 829.511 409.851C831.111 415.648 832.85 420.251 834.682 423.534C841.109 435.076 858.075 468.947 861.915 484.277C865.656 499.209 863.47 562.934 863.375 565.639L862.254 565.598C862.276 564.938 864.532 499.327 860.828 484.55C857.014 469.323 840.11 435.585 833.701 424.079C831.829 420.719 830.057 416.031 828.432 410.149C825.137 398.232 823.471 385.087 823.365 384.195C822.882 382.551 822.303 381.081 821.647 379.82C819.396 375.516 816.171 373.633 812.32 374.366C804.548 375.848 796.404 387.331 795.236 398.456C793.279 417.03 807.345 467.642 807.489 468.151L807.559 468.401L807.411 468.619C807.371 468.678 803.406 474.555 799.742 485.265C796.363 495.145 792.556 511.275 793.614 532.004C794.668 552.637 803.052 563.376 809.903 568.753C817.302 574.56 824.514 575.526 824.584 575.537L824.444 576.65L824.441 576.643Z" fill="black"/>
<path d="M543.029 434.394L381.853 467.373C378.864 467.985 375.946 466.057 375.334 463.069L355.419 365.743C354.808 362.754 356.735 359.836 359.724 359.224L520.899 326.245C523.888 325.633 526.806 327.561 527.418 330.549L547.333 427.875C547.945 430.864 546.017 433.783 543.029 434.394Z" fill="#3649DB"/>
<g opacity="0.1">
<path d="M479.016 424.452C494.283 409.185 494.283 384.433 479.016 369.167C463.75 353.9 438.998 353.9 423.731 369.167C408.464 384.433 408.464 409.185 423.731 424.452C438.998 439.718 463.75 439.718 479.016 424.452Z" fill="white"/>
</g>
<path d="M386.128 429.607C386.084 430.168 385.951 430.647 385.734 431.041C385.516 431.435 385.221 431.752 384.849 431.992C384.477 432.231 384.035 432.404 383.522 432.508C383.01 432.611 382.535 432.629 382.096 432.556C381.654 432.482 381.256 432.305 380.902 432.029C380.545 431.752 380.239 431.362 379.977 430.864C379.716 430.367 379.509 429.744 379.358 428.999L378.986 427.183C378.835 426.438 378.78 425.786 378.824 425.226C378.868 424.666 379.001 424.186 379.218 423.792C379.436 423.398 379.734 423.077 380.11 422.838C380.486 422.598 380.932 422.425 381.44 422.318C381.953 422.215 382.424 422.2 382.863 422.274C383.298 422.348 383.696 422.524 384.049 422.801C384.407 423.077 384.713 423.468 384.974 423.965C385.236 424.463 385.442 425.086 385.594 425.83L385.966 427.647C386.117 428.391 386.172 429.044 386.128 429.604V429.607ZM384.37 426.081C384.256 425.517 384.105 425.041 383.928 424.662C383.747 424.282 383.541 423.987 383.312 423.77C383.08 423.556 382.826 423.416 382.55 423.35C382.27 423.287 381.975 423.284 381.661 423.35C381.348 423.413 381.076 423.53 380.843 423.7C380.611 423.87 380.434 424.098 380.305 424.385C380.176 424.673 380.106 425.027 380.088 425.447C380.069 425.867 380.121 426.357 380.235 426.925L380.608 428.741C380.722 429.305 380.869 429.781 381.05 430.16C381.23 430.54 381.437 430.838 381.665 431.052C381.894 431.266 382.152 431.406 382.428 431.472C382.708 431.538 383.003 431.538 383.316 431.472C383.629 431.409 383.902 431.292 384.134 431.122C384.366 430.952 384.543 430.724 384.672 430.437C384.801 430.149 384.871 429.795 384.89 429.375C384.908 428.955 384.857 428.465 384.742 427.897L384.37 426.081Z" fill="white"/>
<path d="M394.272 427.942C394.228 428.502 394.095 428.981 393.878 429.375C393.66 429.769 393.366 430.086 392.993 430.326C392.621 430.565 392.179 430.739 391.667 430.842C391.155 430.945 390.679 430.963 390.241 430.89C389.798 430.816 389.4 430.639 389.047 430.363C388.689 430.086 388.383 429.696 388.122 429.198C387.86 428.701 387.654 428.078 387.503 427.334L387.13 425.517C386.979 424.772 386.924 424.12 386.968 423.56C387.012 423 387.145 422.521 387.362 422.126C387.58 421.732 387.878 421.411 388.254 421.172C388.63 420.932 389.076 420.759 389.585 420.652C390.097 420.549 390.569 420.534 391.007 420.608C391.442 420.682 391.84 420.859 392.194 421.135C392.551 421.411 392.857 421.802 393.119 422.3C393.38 422.797 393.587 423.42 393.738 424.164L394.11 425.981C394.261 426.725 394.316 427.378 394.272 427.938V427.942ZM392.514 424.415C392.4 423.851 392.249 423.376 392.072 422.996C391.892 422.617 391.685 422.322 391.457 422.104C391.225 421.891 390.97 421.751 390.694 421.684C390.414 421.622 390.119 421.618 389.806 421.684C389.493 421.747 389.22 421.865 388.988 422.034C388.755 422.204 388.579 422.432 388.45 422.72C388.321 423.007 388.251 423.361 388.232 423.781C388.214 424.201 388.265 424.691 388.38 425.259L388.752 427.076C388.866 427.639 389.017 428.115 389.194 428.494C389.375 428.874 389.581 429.172 389.809 429.386C390.038 429.6 390.296 429.74 390.572 429.806C390.852 429.873 391.147 429.873 391.46 429.806C391.774 429.744 392.046 429.626 392.279 429.456C392.511 429.287 392.688 429.058 392.817 428.771C392.946 428.483 393.016 428.13 393.034 427.709C393.052 427.289 393.001 426.799 392.887 426.232L392.514 424.415Z" fill="white"/>
<path d="M401.223 420.781C401.329 421.312 401.289 421.798 401.101 422.244C400.909 422.69 400.545 423.188 399.999 423.74L398.882 424.879C398.555 425.207 398.293 425.506 398.094 425.775C397.895 426.044 397.751 426.305 397.655 426.56C397.563 426.814 397.512 427.064 397.501 427.315C397.489 427.566 397.515 427.838 397.578 428.133L397.637 428.417L402.173 427.488C402.243 427.474 402.313 427.481 402.372 427.51C402.435 427.54 402.472 427.591 402.487 427.661L402.608 428.255C402.623 428.328 402.608 428.391 402.564 428.446C402.52 428.502 402.461 428.539 402.391 428.553L397.055 429.644C396.985 429.659 396.918 429.644 396.852 429.607C396.789 429.57 396.749 429.515 396.734 429.441L396.513 428.351C396.369 427.65 396.399 426.98 396.598 426.331C396.797 425.683 397.217 425.038 397.854 424.393L399.03 423.199C399.269 422.952 399.465 422.742 399.616 422.561C399.767 422.381 399.881 422.211 399.955 422.053C400.029 421.894 400.073 421.732 400.08 421.57C400.091 421.408 400.073 421.231 400.032 421.032C399.933 420.549 399.708 420.228 399.351 420.07C398.997 419.915 398.455 419.912 397.729 420.059C397.379 420.129 396.992 420.232 396.572 420.361C396.148 420.49 395.754 420.619 395.389 420.752L395.334 420.763C395.19 420.792 395.101 420.726 395.068 420.564L394.973 420.085C394.958 420.011 394.973 419.952 395.013 419.904C395.054 419.856 395.109 419.819 395.179 419.786C395.499 419.624 395.872 419.48 396.288 419.348C396.705 419.215 397.117 419.108 397.519 419.023C398.613 418.799 399.461 418.828 400.062 419.108C400.662 419.388 401.046 419.945 401.219 420.778L401.223 420.781Z" fill="white"/>
<path d="M408.799 427.157C408.766 427.219 408.711 427.26 408.641 427.275L407.9 427.426C407.826 427.44 407.764 427.426 407.709 427.381C407.653 427.337 407.616 427.278 407.602 427.208L405.87 418.74L404.289 419.849C404.23 419.889 404.174 419.915 404.123 419.926C404.042 419.941 403.99 419.9 403.972 419.805L403.832 419.119C403.824 419.075 403.828 419.038 403.846 419.012C403.865 418.987 403.894 418.953 403.931 418.917L405.766 417.531C405.862 417.454 405.951 417.409 406.032 417.391L406.585 417.277C406.655 417.262 406.721 417.277 406.78 417.313C406.839 417.354 406.876 417.409 406.89 417.479L408.829 426.958C408.844 427.031 408.832 427.098 408.799 427.16V427.157Z" fill="white"/>
<path d="M426.016 421.445C425.972 422.005 425.84 422.484 425.622 422.878C425.405 423.272 425.11 423.589 424.738 423.829C424.366 424.068 423.923 424.242 423.411 424.345C422.899 424.448 422.423 424.466 421.985 424.393C421.543 424.319 421.145 424.142 420.791 423.866C420.433 423.589 420.128 423.199 419.866 422.701C419.604 422.204 419.398 421.581 419.247 420.836L418.875 419.02C418.723 418.275 418.668 417.623 418.712 417.063C418.757 416.503 418.889 416.024 419.107 415.629C419.324 415.235 419.623 414.914 419.999 414.675C420.374 414.435 420.82 414.262 421.329 414.155C421.841 414.052 422.313 414.037 422.751 414.111C423.186 414.185 423.584 414.362 423.938 414.638C424.295 414.914 424.601 415.305 424.863 415.803C425.125 416.3 425.331 416.923 425.482 417.667L425.854 419.484C426.005 420.228 426.061 420.881 426.016 421.441V421.445ZM424.259 417.918C424.144 417.354 423.993 416.879 423.816 416.499C423.636 416.119 423.429 415.825 423.201 415.607C422.969 415.393 422.715 415.253 422.438 415.187C422.158 415.124 421.863 415.121 421.55 415.187C421.237 415.25 420.964 415.368 420.732 415.537C420.5 415.707 420.323 415.935 420.194 416.223C420.065 416.51 419.995 416.864 419.976 417.284C419.958 417.704 420.01 418.194 420.124 418.762L420.496 420.579C420.61 421.142 420.758 421.618 420.938 421.997C421.119 422.377 421.325 422.675 421.554 422.889C421.782 423.103 422.04 423.243 422.317 423.309C422.597 423.376 422.891 423.376 423.205 423.309C423.518 423.247 423.791 423.129 424.023 422.959C424.255 422.79 424.432 422.561 424.561 422.274C424.69 421.986 424.76 421.632 424.778 421.212C424.797 420.792 424.745 420.302 424.631 419.735L424.259 417.918Z" fill="white"/>
<path d="M433.917 420.549C433.825 420.947 433.656 421.293 433.409 421.585C433.162 421.879 432.845 422.123 432.458 422.318C432.071 422.513 431.633 422.661 431.139 422.764C430.708 422.852 430.295 422.908 429.904 422.93C429.51 422.952 429.145 422.963 428.81 422.955C428.732 422.955 428.666 422.933 428.611 422.904C428.552 422.874 428.515 422.823 428.5 422.749L428.404 422.285C428.375 422.134 428.434 422.042 428.585 422.008L428.626 422.001C429.042 421.972 429.447 421.935 429.853 421.89C430.254 421.846 430.612 421.791 430.929 421.728C431.666 421.577 432.167 421.323 432.44 420.958C432.712 420.593 432.782 420.092 432.65 419.447L432.591 419.167C432.554 418.987 432.491 418.81 432.403 418.625C432.314 418.445 432.193 418.283 432.038 418.146C431.883 418.01 431.695 417.91 431.474 417.851C431.249 417.789 430.988 417.789 430.682 417.851L428.231 418.353C428.062 418.386 427.958 418.323 427.925 418.161L427.829 417.689C427.796 417.52 427.863 417.417 428.032 417.38L430.483 416.879C430.807 416.812 431.061 416.709 431.246 416.569C431.434 416.429 431.566 416.267 431.644 416.09C431.725 415.909 431.765 415.721 431.773 415.526C431.78 415.331 431.765 415.143 431.728 414.962L431.692 414.774C431.577 414.222 431.338 413.849 430.966 413.658C430.593 413.47 430.03 413.451 429.267 413.606C428.872 413.687 428.511 413.783 428.183 413.89C427.855 414 427.476 414.126 427.048 414.269L427.008 414.277C426.857 414.306 426.764 414.247 426.731 414.093L426.632 413.614C426.617 413.551 426.632 413.492 426.672 413.437C426.713 413.381 426.764 413.337 426.834 413.304C427.144 413.164 427.483 413.031 427.852 412.895C428.22 412.762 428.622 412.652 429.053 412.563C429.554 412.46 430.022 412.408 430.453 412.408C430.885 412.408 431.264 412.482 431.599 412.63C431.935 412.777 432.215 412.998 432.443 413.297C432.672 413.595 432.838 413.997 432.941 414.498L432.978 414.686C433.07 415.143 433.048 415.578 432.908 415.99C432.768 416.403 432.506 416.753 432.126 417.048C432.392 417.114 432.624 417.214 432.819 417.343C433.015 417.472 433.18 417.619 433.317 417.789C433.453 417.958 433.564 418.135 433.652 418.323C433.737 418.511 433.799 418.703 433.84 418.902L433.899 419.186C434.002 419.687 434.006 420.14 433.917 420.534V420.549Z" fill="white"/>
<path d="M442.065 418.883C441.973 419.281 441.804 419.628 441.557 419.919C441.31 420.214 440.993 420.457 440.606 420.652C440.219 420.847 439.781 420.995 439.287 421.098C438.856 421.186 438.443 421.242 438.052 421.264C437.658 421.286 437.293 421.297 436.958 421.29C436.88 421.29 436.814 421.268 436.759 421.238C436.7 421.209 436.663 421.157 436.648 421.083L436.552 420.619C436.523 420.468 436.582 420.376 436.733 420.343L436.773 420.335C437.19 420.306 437.595 420.269 438.001 420.225C438.402 420.18 438.76 420.125 439.077 420.063C439.814 419.911 440.315 419.657 440.588 419.292C440.86 418.927 440.93 418.426 440.798 417.781L440.739 417.501C440.702 417.321 440.639 417.144 440.551 416.96C440.462 416.779 440.341 416.617 440.186 416.481C440.031 416.344 439.843 416.245 439.622 416.186C439.401 416.123 439.136 416.123 438.83 416.186L436.379 416.687C436.21 416.72 436.106 416.657 436.073 416.495L435.977 416.024C435.944 415.854 436.011 415.751 436.18 415.714L438.631 415.213C438.955 415.146 439.209 415.043 439.394 414.903C439.582 414.763 439.714 414.601 439.792 414.424C439.873 414.244 439.913 414.056 439.921 413.86C439.928 413.665 439.913 413.477 439.876 413.297L439.84 413.109C439.725 412.556 439.486 412.184 439.114 411.992C438.741 411.804 438.177 411.786 437.415 411.94C437.02 412.021 436.659 412.117 436.331 412.224C436.003 412.335 435.624 412.46 435.196 412.604L435.156 412.611C435.005 412.641 434.912 412.582 434.879 412.427L434.78 411.948C434.765 411.885 434.78 411.826 434.82 411.771C434.861 411.716 434.912 411.671 434.982 411.638C435.292 411.498 435.631 411.365 436 411.229C436.368 411.096 436.77 410.986 437.201 410.897C437.702 410.794 438.17 410.743 438.601 410.743C439.032 410.743 439.412 410.816 439.747 410.964C440.083 411.111 440.363 411.332 440.591 411.631C440.82 411.929 440.986 412.331 441.089 412.832L441.126 413.02C441.218 413.477 441.196 413.912 441.056 414.325C440.916 414.737 440.654 415.087 440.274 415.382C440.54 415.449 440.772 415.548 440.967 415.677C441.162 415.806 441.328 415.954 441.465 416.123C441.601 416.293 441.712 416.469 441.8 416.657C441.885 416.845 441.947 417.037 441.988 417.236L442.047 417.52C442.15 418.021 442.154 418.474 442.065 418.869V418.883Z" fill="white"/>
<path d="M448.684 418.994C448.651 419.056 448.596 419.097 448.525 419.112L447.785 419.263C447.711 419.278 447.648 419.263 447.593 419.219C447.538 419.174 447.501 419.115 447.486 419.045L445.754 410.577L444.173 411.686C444.114 411.727 444.059 411.752 444.007 411.763C443.926 411.778 443.875 411.738 443.856 411.642L443.716 410.956C443.709 410.912 443.713 410.875 443.731 410.85C443.749 410.824 443.779 410.791 443.816 410.754L445.651 409.368C445.747 409.291 445.835 409.246 445.916 409.228L446.469 409.114C446.539 409.099 446.606 409.114 446.664 409.151C446.723 409.191 446.76 409.246 446.775 409.317L448.713 418.795C448.728 418.865 448.717 418.935 448.684 418.997V418.994Z" fill="white"/>
<path d="M466.034 412.751L464.862 412.991L465.352 415.386C465.367 415.46 465.36 415.526 465.33 415.589C465.301 415.651 465.249 415.688 465.175 415.703L464.387 415.865C464.313 415.88 464.25 415.865 464.199 415.821C464.147 415.777 464.114 415.718 464.099 415.644L463.609 413.249L459.729 414.041C459.522 414.082 459.371 414.074 459.275 414.015C459.18 413.956 459.11 413.827 459.069 413.628L458.966 413.116C458.929 412.928 458.947 412.751 459.025 412.585L461.855 406.184C461.881 406.122 461.914 406.066 461.958 406.007C462.002 405.952 462.083 405.912 462.198 405.889L463.001 405.724C463.237 405.676 463.377 405.749 463.418 405.948L464.645 411.955L465.817 411.716C465.89 411.701 465.953 411.712 466.012 411.745C466.071 411.782 466.108 411.834 466.122 411.907L466.233 412.453C466.266 412.615 466.196 412.714 466.027 412.751H466.034ZM462.474 407.618C462.463 407.562 462.441 407.54 462.404 407.548H462.389C462.352 407.559 462.323 407.592 462.297 407.655L460.101 412.692C460.082 412.733 460.075 412.773 460.082 412.807C460.093 412.862 460.134 412.88 460.208 412.865L463.414 412.21L462.474 407.618Z" fill="white"/>
<path d="M473.928 411.749C473.883 412.287 473.747 412.747 473.515 413.131C473.286 413.514 472.966 413.827 472.557 414.063C472.148 414.303 471.654 414.48 471.083 414.597C470.545 414.708 470.088 414.778 469.715 414.807C469.343 414.837 469.011 414.848 468.72 414.841C468.628 414.841 468.543 414.83 468.473 414.807C468.403 414.785 468.359 414.73 468.344 414.649L468.234 414.118C468.219 414.037 468.227 413.971 468.263 413.923C468.3 413.875 468.356 413.842 468.426 413.827C468.444 413.827 468.459 413.824 468.466 413.827C468.477 413.827 468.488 413.827 468.507 413.827C468.864 413.827 469.236 413.809 469.623 413.768C470.01 413.728 470.423 413.661 470.854 413.573C471.374 413.466 471.772 413.308 472.048 413.098C472.324 412.888 472.516 412.637 472.623 412.346C472.73 412.055 472.77 411.719 472.741 411.343C472.711 410.968 472.652 410.562 472.56 410.124L472.531 409.976C472.258 410.098 471.963 410.223 471.646 410.348C471.329 410.474 470.965 410.577 470.552 410.662C470.113 410.75 469.682 410.794 469.266 410.783C468.849 410.776 468.466 410.695 468.116 410.544C467.766 410.389 467.464 410.149 467.213 409.825C466.959 409.497 466.778 409.066 466.668 408.528L466.653 408.447C466.436 407.378 466.535 406.49 466.955 405.775C467.375 405.064 468.138 404.592 469.24 404.367C470.253 404.161 471.116 404.305 471.823 404.799C472.531 405.292 473.021 406.203 473.294 407.522L473.776 409.877C473.924 410.595 473.975 411.222 473.931 411.76L473.928 411.749ZM472.078 407.75C471.967 407.205 471.827 406.759 471.665 406.416C471.503 406.074 471.311 405.812 471.09 405.631C470.873 405.451 470.626 405.344 470.349 405.307C470.077 405.27 469.778 405.285 469.454 405.351C469.14 405.414 468.864 405.513 468.625 405.646C468.385 405.779 468.193 405.959 468.046 406.184C467.899 406.409 467.81 406.685 467.773 407.01C467.736 407.334 467.766 407.725 467.858 408.182L467.873 408.263C467.946 408.62 468.064 408.908 468.23 409.125C468.396 409.342 468.591 409.501 468.82 409.6C469.045 409.7 469.288 409.751 469.546 409.759C469.804 409.766 470.069 409.744 470.338 409.689C470.5 409.656 470.674 409.615 470.858 409.56C471.042 409.508 471.226 409.453 471.407 409.39C471.587 409.331 471.757 409.269 471.915 409.202C472.074 409.136 472.21 409.081 472.321 409.029L472.074 407.75H472.078Z" fill="white"/>
<path d="M480.999 404.459C481.106 404.99 481.066 405.477 480.878 405.922C480.686 406.368 480.321 406.866 479.776 407.419L478.659 408.557C478.331 408.885 478.07 409.184 477.871 409.453C477.672 409.722 477.528 409.984 477.432 410.238C477.34 410.492 477.288 410.743 477.277 410.993C477.266 411.244 477.292 411.517 477.355 411.811L477.414 412.095L481.95 411.166C482.02 411.152 482.09 411.159 482.149 411.189C482.212 411.218 482.249 411.27 482.263 411.34L482.385 411.933C482.4 412.007 482.385 412.069 482.341 412.125C482.297 412.18 482.238 412.217 482.168 412.232L476.831 413.322C476.761 413.337 476.695 413.322 476.629 413.285C476.566 413.249 476.526 413.193 476.511 413.12L476.29 412.029C476.146 411.329 476.175 410.658 476.374 410.009C476.573 409.361 476.994 408.716 477.631 408.071L478.807 406.877C479.046 406.63 479.241 406.42 479.393 406.239C479.544 406.059 479.658 405.889 479.732 405.731C479.805 405.572 479.85 405.41 479.857 405.248C479.868 405.086 479.85 404.909 479.809 404.71C479.709 404.227 479.485 403.907 479.127 403.748C478.773 403.593 478.232 403.59 477.506 403.737C477.156 403.807 476.769 403.91 476.349 404.039C475.925 404.168 475.531 404.297 475.166 404.43L475.11 404.441C474.967 404.47 474.878 404.404 474.845 404.242L474.749 403.763C474.734 403.689 474.749 403.63 474.79 403.582C474.83 403.534 474.886 403.498 474.956 403.464C475.276 403.302 475.648 403.159 476.065 403.026C476.481 402.893 476.894 402.786 477.296 402.702C478.39 402.477 479.238 402.506 479.838 402.786C480.439 403.066 480.822 403.623 480.996 404.456L480.999 404.459Z" fill="white"/>
<path d="M488.573 410.835C488.539 410.898 488.484 410.938 488.414 410.953L487.673 411.104C487.6 411.119 487.537 411.104 487.482 411.06C487.426 411.015 487.39 410.956 487.375 410.886L485.643 402.418L484.062 403.527C484.003 403.568 483.948 403.593 483.896 403.605C483.815 403.619 483.763 403.579 483.745 403.483L483.605 402.797C483.598 402.753 483.601 402.716 483.62 402.691C483.638 402.665 483.668 402.632 483.704 402.595L485.54 401.209C485.635 401.132 485.724 401.088 485.805 401.069L486.358 400.955C486.428 400.94 486.494 400.955 486.553 400.992C486.612 401.032 486.649 401.088 486.664 401.158L488.602 410.636C488.617 410.706 488.606 410.776 488.573 410.839V410.835Z" fill="white"/>
<path d="M504.599 399.628C504.706 400.159 504.666 400.645 504.478 401.091C504.286 401.537 503.921 402.035 503.376 402.587L502.259 403.726C501.931 404.054 501.67 404.353 501.471 404.622C501.272 404.891 501.128 405.152 501.032 405.407C500.94 405.661 500.888 405.911 500.877 406.162C500.866 406.413 500.892 406.685 500.955 406.98L501.014 407.264L505.55 406.335C505.62 406.32 505.69 406.328 505.749 406.357C505.812 406.387 505.849 406.438 505.863 406.508L505.985 407.102C506 407.175 505.985 407.238 505.941 407.293C505.896 407.349 505.837 407.385 505.767 407.4L500.431 408.491C500.361 408.506 500.295 408.491 500.229 408.454C500.166 408.417 500.125 408.362 500.111 408.288L499.89 407.198C499.746 406.497 499.775 405.827 499.974 405.178C500.173 404.529 500.593 403.885 501.231 403.24L502.407 402.046C502.646 401.799 502.841 401.589 502.993 401.408C503.144 401.228 503.258 401.058 503.332 400.9C503.405 400.741 503.45 400.579 503.457 400.417C503.468 400.255 503.45 400.078 503.409 399.879C503.309 399.396 503.085 399.075 502.727 398.917C502.373 398.762 501.832 398.758 501.106 398.906C500.756 398.976 500.369 399.079 499.949 399.208C499.525 399.337 499.13 399.466 498.766 399.599L498.71 399.61C498.567 399.639 498.478 399.573 498.445 399.411L498.349 398.932C498.334 398.858 498.349 398.799 498.39 398.751C498.43 398.703 498.486 398.666 498.556 398.633C498.876 398.471 499.248 398.327 499.665 398.195C500.081 398.062 500.494 397.955 500.896 397.87C501.99 397.646 502.838 397.675 503.438 397.955C504.039 398.235 504.422 398.792 504.596 399.624L504.599 399.628Z" fill="white"/>
<path d="M513.938 403.454C513.893 404.014 513.761 404.493 513.543 404.887C513.326 405.281 513.031 405.598 512.659 405.838C512.287 406.077 511.845 406.251 511.332 406.354C510.82 406.457 510.345 406.475 509.906 406.402C509.464 406.328 509.066 406.151 508.712 405.875C508.355 405.598 508.049 405.208 507.787 404.71C507.525 404.213 507.319 403.59 507.168 402.846L506.796 401.029C506.645 400.284 506.589 399.632 506.634 399.072C506.678 398.512 506.811 398.033 507.028 397.638C507.245 397.244 507.544 396.923 507.92 396.684C508.296 396.444 508.742 396.271 509.25 396.164C509.762 396.061 510.234 396.046 510.673 396.12C511.107 396.194 511.505 396.371 511.859 396.647C512.217 396.923 512.523 397.314 512.784 397.812C513.046 398.309 513.252 398.932 513.403 399.676L513.776 401.493C513.927 402.237 513.982 402.89 513.938 403.45V403.454ZM512.18 399.927C512.066 399.363 511.915 398.888 511.738 398.508C511.557 398.128 511.351 397.834 511.122 397.616C510.89 397.402 510.636 397.262 510.359 397.196C510.079 397.133 509.785 397.13 509.471 397.196C509.158 397.259 508.885 397.377 508.653 397.546C508.421 397.716 508.244 397.944 508.115 398.232C507.986 398.519 507.916 398.873 507.898 399.293C507.879 399.713 507.931 400.203 508.045 400.771L508.417 402.588C508.532 403.151 508.679 403.627 508.86 404.006C509.04 404.386 509.246 404.684 509.475 404.898C509.703 405.112 509.961 405.252 510.238 405.318C510.518 405.385 510.813 405.385 511.126 405.318C511.439 405.256 511.712 405.138 511.944 404.968C512.176 404.799 512.353 404.57 512.482 404.283C512.611 403.995 512.681 403.641 512.699 403.221C512.718 402.801 512.666 402.311 512.552 401.744L512.18 399.927Z" fill="white"/>
<path d="M520.888 396.297C520.995 396.828 520.954 397.314 520.766 397.76C520.575 398.206 520.21 398.703 519.665 399.256L518.548 400.395C518.22 400.723 517.958 401.021 517.759 401.29C517.56 401.559 517.417 401.821 517.321 402.075C517.229 402.33 517.177 402.58 517.166 402.831C517.155 403.081 517.181 403.354 517.243 403.649L517.302 403.933L521.839 403.004C521.909 402.989 521.979 402.997 522.038 403.026C522.1 403.056 522.137 403.107 522.152 403.177L522.274 403.77C522.288 403.844 522.274 403.907 522.229 403.962C522.185 404.017 522.126 404.054 522.056 404.069L516.72 405.16C516.65 405.174 516.584 405.16 516.517 405.123C516.455 405.086 516.414 405.031 516.399 404.957L516.178 403.866C516.035 403.166 516.064 402.495 516.263 401.847C516.462 401.198 516.882 400.553 517.52 399.908L518.695 398.714C518.935 398.467 519.13 398.257 519.281 398.077C519.432 397.896 519.547 397.727 519.62 397.568C519.694 397.41 519.738 397.248 519.746 397.086C519.757 396.923 519.738 396.746 519.698 396.547C519.598 396.065 519.373 395.744 519.016 395.586C518.662 395.431 518.12 395.427 517.394 395.575C517.044 395.645 516.657 395.748 516.237 395.873C515.813 396.002 515.419 396.131 515.054 396.264L514.999 396.275C514.855 396.304 514.767 396.238 514.734 396.076L514.638 395.597C514.623 395.523 514.638 395.464 514.678 395.416C514.719 395.368 514.774 395.331 514.844 395.298C515.165 395.136 515.537 394.992 515.954 394.86C516.37 394.727 516.783 394.62 517.184 394.535C518.279 394.311 519.126 394.34 519.727 394.62C520.328 394.9 520.711 395.457 520.884 396.29L520.888 396.297Z" fill="white"/>
<path d="M528.461 402.672C528.428 402.735 528.372 402.775 528.302 402.79L527.562 402.941C527.488 402.956 527.425 402.941 527.37 402.897C527.315 402.853 527.278 402.794 527.263 402.724L525.531 394.255L523.95 395.365C523.891 395.405 523.836 395.431 523.784 395.442C523.703 395.457 523.652 395.416 523.633 395.32L523.493 394.635C523.486 394.591 523.489 394.554 523.508 394.528C523.526 394.502 523.556 394.469 523.593 394.432L525.428 393.047C525.524 392.969 525.612 392.925 525.693 392.907L526.246 392.792C526.32 392.778 526.382 392.792 526.441 392.829C526.5 392.87 526.537 392.925 526.552 392.995L528.49 402.473C528.505 402.543 528.494 402.613 528.461 402.676V402.672Z" fill="white"/>
<path d="M409.639 434.548L382.157 440.169L383.767 448.044L411.25 442.422L409.639 434.548Z" fill="white"/>
<path d="M517.593 332.134L490.11 337.756L491.076 342.478L518.559 336.857L517.593 332.134Z" fill="white"/>
<path d="M519.317 340.571L470.266 350.604L471.232 355.327L520.283 345.294L519.317 340.571Z" fill="white"/>
<path d="M504.884 426.997L384.501 451.62L386.112 459.494L506.495 434.871L504.884 426.997Z" fill="white"/>
<path d="M525.509 426.854C525.955 429.029 524.551 431.151 522.377 431.597C520.203 432.043 518.08 430.639 517.634 428.465C517.188 426.291 518.592 424.168 520.767 423.722C522.941 423.276 525.063 424.68 525.509 426.854Z" fill="white"/>
<path d="M536.532 424.599C536.977 426.774 535.573 428.896 533.399 429.342C531.225 429.788 529.102 428.384 528.656 426.21C528.21 424.035 529.614 421.913 531.789 421.467C533.963 421.021 536.086 422.425 536.532 424.599Z" fill="white"/>
<path d="M390.69 363.919L393.491 377.613C393.635 378.31 393.185 378.991 392.489 379.135L369.062 383.929C368.362 384.073 367.68 383.62 367.536 382.927L364.735 369.233C364.592 368.533 365.045 367.851 365.742 367.707L389.168 362.913C389.868 362.769 390.547 363.222 390.69 363.919Z" fill="#FECC86"/>
<path d="M378.238 372.841L365.989 375.347L365.856 374.702L377.464 372.328L376.62 368.212L377.265 368.079L378.238 372.841Z" fill="#EFA348"/>
<path d="M382.133 381.25L381.488 381.383L380.187 375.015L392.448 372.505L392.581 373.15L380.961 375.527L382.133 381.25Z" fill="#EFA348"/>
<path d="M382.233 364.315L381.59 364.446L382.987 371.27L383.63 371.138L382.233 364.315Z" fill="#EFA348"/>
<path d="M391.13 366.167L382.591 367.914L382.723 368.556L391.262 366.81L391.13 366.167Z" fill="#EFA348"/>
<path d="M374.358 379.861L373.713 379.994L373.259 377.786L366.759 379.116L366.626 378.472L373.772 377.009L374.358 379.861Z" fill="#EFA348"/>
<path d="M543.71 434.759L381.367 467.977C378.441 468.578 375.57 466.68 374.969 463.754L354.815 365.26C354.214 362.334 356.109 359.463 359.038 358.862L521.382 325.644C524.308 325.044 527.179 326.941 527.779 329.867L547.934 428.361C548.534 431.288 546.64 434.158 543.71 434.759ZM359.237 359.832C356.842 360.322 355.294 362.669 355.784 365.065L375.939 463.559C376.429 465.954 378.776 467.502 381.172 467.012L543.515 433.793C545.911 433.303 547.458 430.956 546.968 428.56L526.814 330.066C526.324 327.671 523.976 326.123 521.581 326.613L359.237 359.832Z" fill="#1D1D1B"/>
<path d="M775.084 440.521C793.901 421.704 793.901 391.195 775.084 372.378C756.267 353.561 725.759 353.561 706.942 372.378C688.125 391.195 688.125 421.704 706.942 440.521C725.759 459.338 756.267 459.338 775.084 440.521Z" fill="white"/>
<path d="M757.448 446.017L777.318 465.652L768.614 434.468L757.448 446.017Z" fill="white"/>
<path d="M783.951 491.673H701.547V495.767H783.951V491.673Z" fill="white"/>
<path d="M783.951 508.621H701.547V512.716H783.951V508.621Z" fill="white"/>
<path d="M527.82 267.857C523.667 267.514 519.635 266.387 515.843 264.5L516.842 262.491C520.379 264.249 524.135 265.303 528.004 265.62L527.82 267.857ZM540.187 266.895L539.649 264.717C543.474 263.77 547.045 262.178 550.274 259.978L551.538 261.832C548.092 264.183 544.274 265.885 540.187 266.895ZM505.808 257.222C503.022 254.469 500.45 251.211 498.165 247.541L500.07 246.354C502.263 249.877 504.721 252.995 507.385 255.626L505.808 257.222ZM560.437 253.175L558.624 251.852C560.891 248.753 562.696 245.252 564.001 241.445L566.124 242.171C564.749 246.192 562.833 249.895 560.437 253.179V253.175ZM385.689 248.672L383.449 248.524C383.718 244.486 384.226 240.402 384.967 236.393L387.175 236.798C386.449 240.723 385.951 244.718 385.689 248.672ZM492.674 236.548C491.204 232.829 489.988 228.89 489.059 224.836L491.248 224.335C492.151 228.278 493.334 232.111 494.764 235.722L492.678 236.548H492.674ZM568.523 230.047L566.286 229.896C566.356 228.831 566.393 227.74 566.393 226.653C566.393 223.837 566.149 220.959 565.67 218.1L567.885 217.731C568.383 220.712 568.637 223.716 568.637 226.653C568.637 227.788 568.6 228.93 568.523 230.043V230.047ZM390.02 225.171L387.875 224.516C389.058 220.642 390.48 216.78 392.098 213.044L394.158 213.935C392.573 217.595 391.18 221.376 390.023 225.171H390.02ZM487.15 212.76C486.715 208.662 486.409 204.579 486.236 200.624L488.477 200.525C488.65 204.431 488.952 208.467 489.383 212.52L487.15 212.756V212.76ZM562.505 206.687C561.101 203.082 559.313 199.508 557.191 196.066L559.1 194.887C561.296 198.446 563.142 202.143 564.594 205.872L562.505 206.687ZM399.516 203.226L397.567 202.113C399.583 198.583 401.82 195.134 404.211 191.854L406.024 193.177C403.681 196.39 401.492 199.773 399.516 203.23V203.226ZM765.632 203.175L763.495 202.497C764.722 198.627 765.68 194.728 766.34 190.903L768.551 191.282C767.873 195.207 766.893 199.206 765.636 203.175H765.632ZM488.359 188.511L486.114 188.452C486.218 184.332 486.479 180.245 486.892 176.306L489.125 176.538C488.72 180.419 488.462 184.446 488.359 188.511ZM550.145 186.466C547.624 183.533 544.797 180.68 541.75 177.983L543.239 176.302C546.364 179.066 549.26 181.996 551.847 185.003L550.145 186.466ZM413.612 183.908L411.957 182.39C414.721 179.379 417.67 176.509 420.725 173.866L422.191 175.561C419.199 178.148 416.313 180.957 413.608 183.905L413.612 183.908ZM769.719 179.081L767.475 179.04C767.482 178.594 767.486 178.148 767.486 177.703C767.486 174.18 767.232 170.638 766.727 167.178L768.945 166.853C769.465 170.421 769.73 174.069 769.727 177.703C769.727 178.16 769.723 178.62 769.715 179.081H769.719ZM532.338 170.605C529.555 168.67 526.582 166.794 523.501 165.029C523.055 164.775 522.613 164.524 522.167 164.277L523.25 162.313C523.703 162.564 524.16 162.818 524.614 163.08C527.753 164.874 530.783 166.787 533.617 168.762L532.334 170.605H532.338ZM431.695 168.291L430.442 166.43C433.847 164.137 437.4 162.055 441 160.242L442.01 162.247C438.495 164.016 435.027 166.05 431.699 168.291H431.695ZM490.887 164.683L488.683 164.255C489.468 160.213 490.448 156.229 491.587 152.415L493.735 153.056C492.615 156.8 491.657 160.714 490.883 164.683H490.887ZM511.376 159.151C507.643 157.659 503.822 156.421 500.019 155.474L500.56 153.296C504.463 154.268 508.38 155.54 512.206 157.069L511.373 159.151H511.376ZM453.003 157.604L452.27 155.481C456.143 154.143 460.119 153.074 464.084 152.304L464.512 154.508C460.65 155.26 456.777 156.299 452.999 157.604H453.003ZM764.059 155.595C762.876 151.873 761.368 148.162 759.577 144.569L761.586 143.567C763.428 147.263 764.98 151.081 766.2 154.913L764.062 155.591L764.059 155.595ZM488.267 153.417C484.316 153.019 480.303 152.909 476.349 153.089L476.246 150.849C480.31 150.661 484.434 150.775 488.495 151.184L488.27 153.417H488.267ZM497.763 141.798L495.696 140.928C497.284 137.154 499.09 133.466 501.065 129.965L503.018 131.067C501.084 134.494 499.315 138.105 497.763 141.801V141.798ZM753.508 134.302C751.308 131.103 748.828 127.941 746.13 124.901L747.811 123.412C750.567 126.519 753.106 129.755 755.358 133.031L753.508 134.302ZM509.501 121.028L507.691 119.701C510.09 116.433 512.722 113.274 515.508 110.308L517.144 111.845C514.42 114.741 511.848 117.833 509.501 121.028ZM737.706 116.399C734.82 113.779 731.706 111.214 728.449 108.779L729.794 106.984C733.107 109.464 736.276 112.073 739.213 114.741L737.706 116.403V116.399ZM525.833 103.634L524.389 101.917C527.462 99.3334 530.753 96.8754 534.169 94.6053L535.411 96.4737C532.065 98.6958 528.844 101.106 525.833 103.638V103.634ZM718.543 102.001C715.215 99.9193 711.707 97.9109 708.118 96.0315L709.16 94.0451C712.798 95.9541 716.358 97.992 719.733 100.1L718.543 102.001ZM697.279 90.8243C693.661 89.236 689.902 87.7324 686.113 86.3505L686.88 84.2425C690.716 85.6392 694.519 87.1612 698.182 88.768L697.279 90.8243ZM545.719 90.3784L544.676 88.3921C548.214 86.5384 551.936 84.8137 555.746 83.2623L556.594 85.3407C552.85 86.8664 549.194 88.5616 545.719 90.3784ZM674.678 82.5916C670.86 81.4639 666.943 80.4321 663.033 79.5255L663.538 77.3402C667.492 78.2578 671.454 79.3007 675.312 80.4431L674.674 82.5953L674.678 82.5916ZM567.892 81.3165L567.233 79.1717C571.043 77.9962 575.009 76.9496 579.018 76.0614L579.504 78.2504C575.554 79.1275 571.648 80.1594 567.896 81.3165H567.892ZM651.226 77.1522C647.279 76.4779 643.266 75.914 639.304 75.4718L639.551 73.2423C643.557 73.6882 647.61 74.2594 651.602 74.9411L651.222 77.1522H651.226ZM591.319 76.0872L590.995 73.8651C594.949 73.2902 599.021 72.8406 603.097 72.531L603.267 74.7679C599.242 75.0738 595.222 75.516 591.316 76.0835L591.319 76.0872ZM627.309 74.4989C623.292 74.2925 619.26 74.2115 615.284 74.2557L615.262 72.0114C619.275 71.9672 623.362 72.0519 627.423 72.2583L627.309 74.4989Z" fill="#76ADE5"/>
<path d="M758.442 220.325L756.452 219.29C757.381 217.503 758.265 215.689 759.083 213.895L761.125 214.823C760.292 216.651 759.389 218.501 758.442 220.322V220.325Z" fill="#6095AB"/>
<path d="M738.988 231.812L726.525 253.293C726.525 253.293 744.56 238.851 744.995 238.505C745.426 238.162 761.464 214.824 761.464 214.824L768.595 212.782L757.278 209.749L738.988 231.812Z" fill="#202C83"/>
<path d="M757.278 209.749L749.237 202.087L726.525 253.293L757.278 209.749Z" fill="#3649DB"/>
<path d="M772.111 224.932L761.464 214.823L726.525 253.293L772.111 224.932Z" fill="#3649DB"/>
<path d="M741.099 381.97C728.1 381.97 717.56 392.511 717.56 405.51C717.56 418.509 728.1 429.049 741.099 429.049C754.099 429.049 764.639 418.509 764.639 405.51C764.639 392.511 754.099 381.97 741.099 381.97ZM751.266 397.823L740.201 413.165C740.046 413.381 739.842 413.557 739.606 413.678C739.37 413.799 739.108 413.863 738.843 413.863C738.577 413.863 738.315 413.799 738.079 413.678C737.843 413.557 737.639 413.381 737.484 413.165L730.932 404.086C730.733 403.807 730.932 403.418 731.274 403.418H733.738C734.274 403.418 734.784 403.676 735.099 404.117L738.84 409.308L747.1 397.854C747.415 397.418 747.919 397.155 748.461 397.155H750.925C751.266 397.155 751.466 397.544 751.266 397.823Z" fill="#3649DB"/>
<path d="M967.864 1286.46L1148.51 757.171C1166.52 704.465 1129.87 648.736 1077.26 648.736H788.553C756.701 648.736 728.22 669.979 717.307 701.887L536.664 1231.17C518.653 1283.88 555.296 1339.61 607.91 1339.61H896.619C928.471 1339.61 956.951 1318.37 967.864 1286.46Z" fill="#76ADE5"/>
<path d="M664.862 634.249L887.382 1286.1C909.563 1350.99 864.491 1419.6 799.634 1419.6H444.027C404.811 1419.6 369.764 1393.47 356.278 1354.1L133.758 702.244C111.576 637.36 156.649 568.744 221.506 568.744H577.113C616.329 568.744 651.376 594.875 664.862 634.249Z" fill="#040A4F"/>
<path d="M303.842 1286.46L484.485 757.171C502.496 704.465 465.852 648.736 413.239 648.736H124.53C92.6782 648.736 64.1979 669.979 53.2849 701.887L-127.358 1231.17C-145.369 1283.88 -108.726 1339.61 -56.1123 1339.61H232.596C264.448 1339.61 292.929 1318.37 303.842 1286.46Z" fill="#3649DB"/>
</g>
</svg>
