<svg width="8836" height="1492" viewBox="0 0 8836 1492" fill="none" xmlns="http://www.w3.org/2000/svg">
<path d="M3203.85 285.319L3446.94 739.087C3462.36 768.538 3485.58 808.742 3496.49 819.649V285.319H3759.68V1073.49C3848.03 1065.7 3939.35 1028.61 3993.58 965.036L4077.25 1133.8C3995.13 1226.67 3877.48 1276.22 3724.15 1276.22C3556.95 1276.22 3439.14 1201.89 3355.62 1045.44L3166.76 690.781V1260.64H2903.57V285.319H3204H3203.85Z" fill="white"/>
<path d="M4198.02 492.878V968.305C4198.02 1039.52 4221.24 1076.76 4264.56 1076.76C4368.34 1076.76 4478.2 777.885 4419.45 492.878H4670.33C4707.58 516.096 4749.34 528.562 4794.22 528.562C4832.86 528.562 4873.22 519.213 4913.42 497.553L4970.77 666.313C4908.75 695.764 4851.56 708.075 4800.45 708.075C4760.25 708.075 4723 700.283 4690.44 687.973C4701.34 1062.74 4500.02 1276.38 4176.36 1276.38C4026.15 1276.38 3947.14 1172.59 3947.14 1027.05V492.878H4198.02Z" fill="white"/>
<path d="M5223.21 477.455C5317.64 477.455 5407.55 500.673 5478.76 548.668C5503.54 551.784 5526.76 553.343 5551.53 553.343C5628.98 553.343 5704.87 536.358 5786.99 492.882L5869.11 647.774C5791.66 697.327 5701.91 718.987 5608.88 722.103C5625.86 765.423 5635.21 818.092 5635.21 876.995C5635.21 1155.77 5440.12 1276.53 5223.21 1276.53C5006.3 1276.53 4809.8 1155.77 4809.8 876.995C4809.8 598.221 5006.45 477.455 5223.21 477.455ZM5060.68 875.437C5060.68 1020.98 5128.78 1090.63 5223.21 1090.63C5317.64 1090.63 5384.33 1020.98 5384.33 875.437C5384.33 729.895 5317.79 663.201 5223.21 663.201C5128.62 663.201 5060.68 729.739 5060.68 875.437Z" fill="white"/>
<path d="M5913.83 166.114C5989.72 166.114 6051.58 206.318 6051.58 288.438C6051.58 370.559 5989.72 412.321 5913.83 412.321C5837.95 412.321 5774.52 372.117 5774.52 288.438C5774.52 204.759 5836.54 166.114 5913.83 166.114ZM6033.04 492.883V989.97C6033.04 1039.52 6045.35 1067.42 6081.04 1072.09C6127.47 1081.44 6181.7 1030.33 6221.9 976.102L6310.26 1126.32C6245.28 1213.11 6173.91 1276.54 6047.07 1276.54C5865.84 1276.54 5782.32 1175.87 5782.32 1058.22V492.883H6033.2H6033.04Z" fill="white"/>
<path d="M6564.25 477.455C6771.81 477.455 6891.02 587.469 6895.7 779.447L6660.24 821.209C6664.92 722.103 6630.79 663.201 6565.81 663.201C6480.57 663.201 6432.58 723.661 6432.58 845.986C6432.58 1017.86 6525.45 1090.63 6686.58 1090.63C6825.89 1090.63 6946.81 1056.51 7047.47 963.635L7154.37 1093.75C7033.6 1223.87 6884.94 1276.53 6668.03 1276.53C6375.39 1276.53 6181.7 1124.76 6181.7 855.335C6181.7 585.911 6361.37 477.455 6564.25 477.455Z" fill="white"/>
<path d="M6997.92 855.335C6997.92 595.104 7177.59 477.455 7378.91 477.455C7580.24 477.455 7711.92 570.328 7711.92 739.088C7711.92 932.625 7527.57 1002.28 7289.16 1014.75C7326.24 1073.65 7396.05 1103.1 7490.49 1103.1C7642.26 1103.1 7750.72 1051.99 7859.02 969.868L7969.03 1090.63C7840.47 1209.84 7701.16 1276.53 7484.25 1276.53C7186.94 1276.53 6997.92 1121.64 6997.92 855.335ZM7481.14 743.763C7481.14 694.21 7447.01 663.201 7383.59 663.201C7307.7 663.201 7255.03 722.103 7248.8 841.311C7248.8 850.66 7248.8 858.296 7250.36 864.529C7394.34 847.544 7481.14 818.092 7481.14 743.763Z" fill="white"/>
<path d="M8300.17 938.854C8377.61 1020.97 8465.81 1075.2 8546.37 1075.2C8626.93 1075.2 8713.57 1019.42 8746.14 968.306L8835.9 1124.76C8775.44 1211.55 8671.81 1276.53 8544.81 1276.53C8368.26 1276.53 8210.25 1177.43 8089.49 1042.64C8060.04 1099.98 8053.8 1171.19 8067.83 1260.95H7826.3C7782.98 1065.85 7826.3 934.179 7961.09 864.525C7888.32 735.968 7846.55 601.333 7841.88 492.878H8092.76C8100.55 588.867 8132.96 687.973 8182.52 776.327C8249.05 697.323 8284.74 615.358 8301.72 492.878H8554.16C8524.71 684.857 8447.27 835.074 8300.17 938.854Z" fill="white"/>
<path fill-rule="evenodd" clip-rule="evenodd" d="M1399.38 114.844L1465.78 309.016L1174.36 1161.38C1142.72 1253.78 1207.08 1351.49 1299.49 1351.49H1797.06C1782.37 1429.1 1718.27 1491.73 1636.08 1491.73H1011.52C942.648 1491.73 881.097 1445.92 857.411 1376.89L791.097 1182.89L1082.58 330.353C1114.21 237.948 1049.85 140.244 957.449 140.244H459.885C474.575 62.6315 538.675 0 620.866 0H1245.42C1314.3 0 1375.85 45.8131 1399.53 114.844H1399.38ZM791.097 1182.89L765.315 1258.3H765.471C746.304 1314.24 696.284 1351.49 640.342 1351.49H133.281C40.8761 1351.49 -23.4804 1253.78 8.15246 1161.38L325.416 233.429C344.582 177.487 394.603 140.244 450.545 140.244H459.885C454.216 170.195 455.906 202.377 466.753 234.052L791.097 1182.89ZM1797.06 1351.49H1806.55C1862.49 1351.49 1912.51 1314.24 1931.68 1258.3L2248.94 330.353C2280.57 237.948 2216.22 140.244 2123.81 140.244H1616.75C1560.81 140.244 1510.79 177.487 1491.62 233.429L1465.78 309.016L1790.19 1257.68C1801.04 1289.35 1802.73 1321.53 1797.06 1351.49Z" fill="#3649DB"/>
</svg>
