<svg width="568" height="96" viewBox="0 0 568 96" fill="none" xmlns="http://www.w3.org/2000/svg">
<path d="M205.603 18.31L221.203 47.43C222.193 49.32 223.683 51.9 224.383 52.6V18.31H241.273V68.89C246.943 68.39 252.803 66.01 256.283 61.93L261.653 72.76C256.383 78.72 248.833 81.9 238.993 81.9C228.263 81.9 220.703 77.13 215.343 67.09L203.223 44.33V80.9H186.333V18.31H205.613H205.603Z" fill="#040A4F"/>
<path d="M269.403 31.63V62.14C269.403 66.71 270.893 69.1 273.673 69.1C280.333 69.1 287.383 49.92 283.613 31.63H299.713C302.103 33.12 304.783 33.92 307.663 33.92C310.143 33.92 312.733 33.32 315.313 31.93L318.993 42.76C315.013 44.65 311.343 45.44 308.063 45.44C305.483 45.44 303.093 44.94 301.003 44.15C301.703 68.2 288.783 81.91 268.013 81.91C258.373 81.91 253.303 75.25 253.303 65.91V31.63H269.403Z" fill="#040A4F"/>
<path d="M335.193 30.64C341.253 30.64 347.023 32.13 351.593 35.21C353.183 35.41 354.673 35.51 356.263 35.51C361.233 35.51 366.103 34.42 371.373 31.63L376.643 41.57C371.673 44.75 365.913 46.14 359.943 46.34C361.033 49.12 361.633 52.5 361.633 56.28C361.633 74.17 349.113 81.92 335.193 81.92C321.273 81.92 308.663 74.17 308.663 56.28C308.663 38.39 321.283 30.64 335.193 30.64ZM324.763 56.18C324.763 65.52 329.133 69.99 335.193 69.99C341.253 69.99 345.533 65.52 345.533 56.18C345.533 46.84 341.263 42.56 335.193 42.56C329.123 42.56 324.763 46.83 324.763 56.18Z" fill="#040A4F"/>
<path d="M379.513 10.66C384.383 10.66 388.353 13.24 388.353 18.51C388.353 23.78 384.383 26.46 379.513 26.46C374.643 26.46 370.573 23.88 370.573 18.51C370.573 13.14 374.553 10.66 379.513 10.66ZM387.163 31.63V63.53C387.163 66.71 387.953 68.5 390.243 68.8C393.223 69.4 396.703 66.12 399.283 62.64L404.953 72.28C400.783 77.85 396.203 81.92 388.063 81.92C376.433 81.92 371.073 75.46 371.073 67.91V31.63H387.173H387.163Z" fill="#040A4F"/>
<path d="M421.253 30.64C434.573 30.64 442.223 37.7 442.523 50.02L427.413 52.7C427.713 46.34 425.523 42.56 421.353 42.56C415.883 42.56 412.803 46.44 412.803 54.29C412.803 65.32 418.763 69.99 429.103 69.99C438.043 69.99 445.803 67.8 452.263 61.84L459.123 70.19C451.373 78.54 441.833 81.92 427.913 81.92C409.133 81.92 396.703 72.18 396.703 54.89C396.703 37.6 408.233 30.64 421.253 30.64Z" fill="#040A4F"/>
<path d="M449.083 54.89C449.083 38.19 460.613 30.64 473.533 30.64C486.453 30.64 494.903 36.6 494.903 47.43C494.903 59.85 483.073 64.32 467.773 65.12C470.153 68.9 474.633 70.79 480.693 70.79C490.433 70.79 497.393 67.51 504.343 62.24L511.403 69.99C503.153 77.64 494.213 81.92 480.293 81.92C461.213 81.92 449.083 71.98 449.083 54.89ZM480.093 47.73C480.093 44.55 477.903 42.56 473.833 42.56C468.963 42.56 465.583 46.34 465.183 53.99C465.183 54.59 465.183 55.08 465.283 55.48C474.523 54.39 480.093 52.5 480.093 47.73Z" fill="#040A4F"/>
<path d="M532.653 60.25C537.623 65.52 543.283 69 548.453 69C553.623 69 559.183 65.42 561.273 62.14L567.033 72.18C563.153 77.75 556.503 81.92 548.353 81.92C537.023 81.92 526.883 75.56 519.133 66.91C517.243 70.59 516.843 75.16 517.743 80.92H502.243C499.463 68.4 502.243 59.95 510.893 55.48C506.223 47.23 503.543 38.59 503.243 31.63H519.343C519.843 37.79 521.923 44.15 525.103 49.82C529.373 44.75 531.663 39.49 532.753 31.63H548.953C547.063 43.95 542.093 53.59 532.653 60.25Z" fill="#040A4F"/>
<path d="M123.963 80.75L144.323 21.2C146.353 15.27 142.223 9 136.293 9H103.753C100.163 9 96.9531 11.39 95.7231 14.98L75.3631 74.53C73.3331 80.46 77.4631 86.73 83.3931 86.73H115.933C119.523 86.73 122.733 84.34 123.963 80.75Z" fill="#76ADE5"/>
<path d="M89.8031 7.37L114.883 80.71C117.383 88.01 112.303 95.73 104.993 95.73H64.9131C60.4931 95.73 56.5431 92.79 55.0231 88.36L29.9531 15.02C27.4531 7.72 32.5331 0 39.8431 0H79.9231C84.3431 0 88.2931 2.94 89.8131 7.37H89.8031Z" fill="#040A4F"/>
<path d="M49.1132 80.75L69.4732 21.2C71.5032 15.27 67.3732 9 61.4432 9H28.9132C25.3232 9 22.1132 11.39 20.8832 14.98L0.523175 74.53C-1.50683 80.46 2.62318 86.73 8.55317 86.73H41.0932C44.6832 86.73 47.8932 84.34 49.1232 80.75H49.1132Z" fill="#23319B"/>
</svg>
