<?xml version="1.0" encoding="UTF-8"?><svg id="a" xmlns="http://www.w3.org/2000/svg" viewBox="0 0 174.5 52.16"><path d="m49.03,34.45c.04-.19.05-.4.03-.6-.04-.48-.27-.88-.61-1.2-.27-.26-.57-.5-.85-.75-.11-.09-.2-.18-.21-.35-.02-.38-.14-.73-.32-1.07-.07-.14-.1-.32-.09-.47.04-.41.08-.82.17-1.22.09-.46-.08-.81-.39-1.11-.36-.35-.63-.76-.89-1.18-.22-.36-.44-.72-.69-1.07-.19-.26-.29-.53-.26-.85.04-.34.01-.69-.15-1-.42-.79-.82-1.59-1.43-2.27-.33-.37-.54-.79-.68-1.26-.3-1-.84-1.84-1.74-2.41-.26-.16-.4-.38-.48-.67-.15-.54-.32-1.08-.48-1.62-.04-.12-.1-.24-.15-.36-.12-.3-.27-.6-.35-.92-.13-.46-.19-.94-.32-1.41-.27-.99-.79-1.86-1.38-2.69-.42-.6-.85-1.19-1.27-1.79-.17-.24-.32-.5-.3-.81.05-.79-.19-1.51-.5-2.22-.18-.42-.48-.74-.84-1.02-.34-.26-.66-.57-.94-.9-.19-.22-.34-.48-.46-.75-.27-.58-.69-.96-1.32-1.12-.69-.18-1.35-.42-2.03-.61-.31-.09-.56-.21-.74-.5-.14-.23-.37-.31-.65-.26-.22.04-.44.07-.67.1-.94.12-1.88.24-2.81.36-.49.06-.98.13-1.48.15-.46.02-.8.19-1.03.57-.1.17-.18.36-.25.54-.11.27-.26.49-.5.67-.58.45-1.15.9-1.72,1.36-.29.23-.6.41-.97.5-.35.09-.65.26-.91.51-.29.28-.59.55-.88.82-.47.44-.7.45-1.26.13-.69-.4-1.4-.79-2.19-.98-.45-.11-.9-.08-1.3.16-.29.17-.58.37-.82.61-.27.25-.49.54-.72.82-.22.27-.48.45-.83.49-.23.03-.47.08-.7.11-1.08.11-.97.27-1.48.86-.43.51-.62,1.12-.68,1.75-.04.33-.11.64-.23.95-.1.26-.21.52-.33.78-.36.81-.67,1.63-.78,2.52-.02.14-.06.28-.13.4-.18.34-.17.68,0,1.01.04.08.06.17.11.3h.9c0,.1.01.15.02.21.07.55.49.94,1.04.98.12,0,.24,0,.35,0,.26-.01.52.02.75.17.06.04.14.03.22.04.09-.56-.2-.83-.72-.73-.33.07-.65,0-.96-.05-.13-.42.03-.78.09-1.14.05-.28.42-.47.67-.34.74.37,1.49.73,2.12,1.28.06.05.12.09.22.15-.41-.86-2.54-2.26-3.24-2.16-.09.25.14.34.29.52-.43.08-.76.36-1.19.38-.37.02-.47-.06-.41-.42.01-.06.03-.11.05-.17.23-.69.44-1.39.69-2.08.14-.37.34-.72.52-1.08.1-.2.23-.39.28-.6.09-.35.3-.58.61-.73.18-.09.36-.18.55-.23.53-.13,1.06-.25,1.59-.35.36-.07.7.03,1.02.22.59.37,1.19.72,1.78,1.09.11.07.22.14.3.19,0,.72-.02,1.4,0,2.08.01.34-.04.61-.34.82-.21.15-.39.36-.64.59q.12-.4.02-.64c-.41.24-.7.6-.99.96.19-.03.38-.07.57-.1v.04c-.13.06-.27.13-.41.19.15.05.28.07.4.05.79-.09,1.57-.19,2.36-.27.19-.02.3-.1.38-.27.08-.18.17-.36.28-.53.24-.36.54-.63.96-.79.07.11.11.19.16.26.18.29.18.35-.05.62-.15.17-.3.33-.46.49-1.57,1.57-3.3,2.96-4.98,4.41-.19.16-.4.23-.65.25-.26.02-.52.06-.77.11-.52.11-1.03.23-1.55.34-.06-.12-.11-.24-.17-.35-.15-.32-.08-.51.23-.65.18-.08.37-.15.55-.24.32-.16.33-.34.04-.53-.08-.05-.2-.1-.29-.1-.22,0-.45.05-.67.08-.15.03-.22.14-.21.28,0,.09.01.19.05.28.08.2.04.39-.03.58-.04.11-.09.22-.13.33-.1.28-.08.55.11.8.19.27.36.55.73.69-.28.35-.53.67-.78,1-.72.94-1.53,1.78-2.47,2.52-1.54,1.22-2.73,2.74-3.52,4.54-.47,1.07-.87,2.16-1.3,3.24-.05.13-.09.27-.11.41-.14.9.07,1.58.95,1.87l.03.02c1.18.57,2.36,1.13,3.54,1.71.28.14.56.31.8.51.39.32.77.67,1.13,1.02.63.61,1.29,1.18,2.09,1.56,1.84.89,3.74,1.51,5.83,1.28.29-.03.37.03.49.3.15.35.26.71.43,1.04.22.44.41.91.71,1.29.46.58.85,1.18,1.19,1.83.54,1.02,1.24,1.92,2.14,2.65.6.48,1.18.98,1.78,1.46.15.13.33.23.5.34.51.34,1.02.68,1.54,1.01.2.13.32.3.33.55.03.44.19.84.37,1.24.1.2.22.27.43.28,1.56.06,3.12.03,4.68-.15.29-.03.58-.08.86-.12.03-.1.06-.17.06-.24.03-.38.24-.6.57-.79.46-.26.9-.57,1.33-.87.2-.14.21-.26.06-.44-.27-.33-.56-.63-.95-.83-.38-.19-.68-.49-1.02-.79.15-.14.26-.26.39-.36.5-.41,1.01-.81,1.52-1.22.35-.28.31-.5-.1-.66-.33-.13-.66-.26-.99-.38-.58-.22-1.14-.54-1.78-.55-.03,0-.07-.02-.1-.04-.37-.2-.74-.4-1.12-.61.04-.09.06-.14.09-.19.47-.83.88-1.7,1.48-2.45.08-.1.18-.21.09-.39-.13.06-.25.11-.36.16-.53.24-.98.61-1.43.98-.29.24-.6.42-.95.53-.38.12-.77.23-1.16.3-.63.12-1.25.1-1.81-.29-.07-.05-.15-.06-.23-.09-.27-.1-.32-.17-.25-.45.08-.33.19-.65.31-.97.47-1.26,1.27-2.33,1.95-3.47.02-.03.04-.06.06-.08.12-.14.26-.19.44-.09-.06.49-.25.95-.31,1.49.3-.18.45-.4.55-.65.1-.24.16-.49.25-.76.19.09.14.21.11.32-.08.39-.16.79-.25,1.25.5-.39.57-.92.71-1.39.23-.04.3.06.28.23-.03.24-.08.49-.12.73-.04.29-.09.59-.13.88.27-.19.41-.44.52-.71.1-.28.19-.56.28-.84.03,0,.05.01.08.02.19.69-.22,1.31-.27,2,.28-.03.44-.19.53-.42.11-.28.19-.58.29-.87.02-.05.06-.1.09-.15.1.54-.16,1.02-.15,1.55.48-.1.54-.52.71-.9.12.17.21.31.31.44.44.57.49,1.2.31,1.87-.09.34-.23.67-.34,1-.03.1-.05.21-.07.32l.07.06c.26-.13.53-.25.77-.4.24-.15.48-.3.68-.5.21-.2.37-.44.56-.69.67.85,1.37,1.65,1.99,2.51.43.6.94,1.09,1.59,1.43.54.28,1.1.55,1.66.8,1.07.48,2.19.8,3.34,1.06.33.08.67.13.89.45.15-.1.27-.18.39-.27-.07-.25-.23-.38-.44-.45-.3-.11-.6-.21-.91-.29-.77-.2-1.54-.38-2.3-.57-.33-.08-.62-.22-.82-.51-.32-.46-.67-.92-.98-1.38-.65-.97-1.43-1.84-2.27-2.66-1.4-1.36-2.8-2.71-4.19-4.07-.29-.28-.6-.52-.96-.72-2.15-1.21-4.16-2.61-5.99-4.26-1.05-.94-2.19-1.76-3.44-2.42-.51-.27-1.02-.55-1.52-.83-.1-.05-.19-.13-.34-.23.13,0,.18,0,.24,0,.55.1,1.09.22,1.64.29.92.11,1.72.49,2.49.96.08.05.17.1.21.18.23.36.57.56.96.68.56.17,1.13.32,1.7.49.24.07.48.13.69.26,1.46.9,2.86,1.89,3.97,3.21.24.28.54.49.88.64.27.12.55.21.82.33.15.06.32.12.44.22.66.54,1.33,1.06,1.94,1.65.64.63,1.25,1.29,2,1.79.07.05.12.11.18.17.69.63,1.37,1.26,2.07,1.88.18.16.4.3.63.38,1.01.35,1.94.87,2.86,1.4.31.18.48.42.57.77.18.75.39,1.5.6,2.25.02.09.06.17.1.29,2.3-1.66,4.28-3.6,5.93-5.87-.17.06-.34.13-.51.19-.07-.12-.12-.2-.19-.32.41-.24.8-.48,1.21-.7.25-.14.43-.32.54-.61-.08.01-.13.01-.19.03-.57.17-1.12.38-1.63.69-.08.05-.16.14-.29.02.45-.35.89-.69,1.32-1.03-.12-.01-.22.02-.31.06-.41.16-.82.31-1.22.47-.19.08-.28.02-.34-.19.84-.27,1.51-.81,2.2-1.31-.18.03-.34.08-.51.14-.6.22-1.2.43-1.8.65-.15.05-.29.09-.4-.13.84-.45,1.66-.89,2.49-1.33-.3,0-.58.05-.85.11-.68.16-1.33.41-1.95.76-.05-.09-.09-.15-.14-.24.58-.36,1.17-.65,1.71-1.03-.23.02-.45.06-.67.11-.23.06-.46.13-.69.18-.2.04-.38.21-.7.12.36-.26.7-.39,1.03-.56.34-.18.69-.34,1.03-.51-.8.02-1.55.18-2.29.43.17-.15.35-.27.53-.38.18-.11.37-.22.54-.34.17-.12.38-.19.55-.4-.69.15-1.31.39-1.94.51-.13-.22,0-.3.13-.36.41-.17.65-.5.8-.89.15-.38.3-.77.45-1.15.04-.1.07-.2.08-.31.03-.22-.07-.34-.29-.36-.1,0-.21,0-.32.03-.18.04-.37.09-.54.16-.28.11-.52.09-.75-.12-.19-.17-.43-.24-.69-.22-.06,0-.13,0-.21-.02.03-.11.07-.18.08-.26.07-.36.29-.5.64-.58.96-.23,1.93-.31,2.91-.39.16-.01.27.04.37.16.28.33.57.66.85.99.3.36.43.78.36,1.25-.03.2-.02.4-.02.6,0,.32.14.55.39.75.44.34.86.7,1.29,1.05.13.11.27.22.43.36.09-.18.16-.32.25-.49-.48-.39-.92-.79-1.41-1.15-.37-.27-.51-.59-.42-1.03Zm-22.71-16.41c-.16.47-.32.91-.48,1.38-.31-.14-.61-.35-.94-.54.04-.11.07-.21.1-.3.12-.36.07-.52-.29-.61-.72-.2-1.25-.67-1.85-1.17.37-.01.54-.24.72-.52.92.6,1.83,1.19,2.73,1.77Zm-12.87,21.67c-1.21-.14-2.4-.37-3.55-.81-.98-.38-1.85-.92-2.62-1.64-1.81-1.68-1.89-1.73-4.14-2.79-.62-.29-1.24-.58-1.86-.88-.13-.06-.26-.12-.37-.2-.33-.24-.47-.56-.38-.95.06-.26.13-.52.23-.78.34-.88.67-1.76,1.03-2.63.76-1.85,1.97-3.36,3.48-4.66.15-.13.31-.26.46-.38.61-.48,1.15-1.02,1.58-1.65.14-.21.31-.41.47-.61l.06.03c-.02.09-.04.19-.07.28-.22.69-.45,1.39-.66,2.08-.33,1.06-.83,2.05-1.4,3-.46.75-.9,1.52-1.47,2.2-.2.24-.34.54-.52.8-.15.23-.14.45,0,.69.61,1.11,1.31,2.15,2.35,2.93.03.02.04.05.09.12-.29.05-.55.1-.81.15-.19.03-.41.04-.47.25-.07.22.12.34.28.45.67.48,1.36.94,2.03,1.42.35.24.69.49,1.02.76.58.46,1.18.91,1.84,1.25.41.21.83.33,1.29.33.77,0,1.54.02,2.31,0,.27,0,.41.1.49.35.08.27.19.52.28.79-.35.13-.67.15-.99.11Zm4.17-9.86c.73.43,1.48.83,2.22,1.25.13.07.26.16.4.25-.05.12-.09.21-.13.31-.27.61-.55,1.22-.8,1.84-.09.21-.21.36-.43.43-.42.14-.84.3-1.27.44-.12.04-.26.04-.38.02-.89-.19-1.57-.68-2.07-1.42-.12-.17-.21-.38-.24-.58-.1-.57-.45-1.02-.67-1.53-.06.34-.15.68-.03,1,.22.63.24,1.29.32,1.94.04.35.07.69.24,1.02.13.27.11.56-.09.8-.19.23-.41.45-.64.69-.07-.1-.14-.17-.18-.25-.28-.49-.55-.99-.83-1.48-.16-.28-.31-.56-.49-.81-.27-.39-.43-.81-.43-1.29,0-1.41.08-2.82.38-4.21.01-.07.04-.14.04-.21.01-.1-.02-.2-.14-.21-.08,0-.18.04-.24.1-.06.05-.07.14-.1.22-.2.52-.3,1.06-.36,1.61-.01.1-.02.21-.04.37-.51-.21-.96-.39-1.47-.6.58-.67.88-1.44,1.13-2.23.07.01.11.01.14.03,1.3.6,2.7.9,4.08,1.29.17.05.35.08.51.15.18.08.35.18.51.3.36.25.69.54,1.06.76Zm17.88,9.52c-.14-.1-.29-.18-.42-.29-.42-.38-.84-.76-1.25-1.15-.56-.53-1.1-1.07-1.67-1.62.09-.23-.04-.42-.18-.62-.21-.29-.2-.38.02-.65.1-.12.21-.22.31-.34.28-.32.23-.55-.17-.69-.5-.18-.94-.45-1.29-.84-.22-.25-.39-.53-.48-.85-.05-.17-.11-.33-.18-.53.19-.21.4-.44.6-.67.1-.12.27-.23.17-.42-.11-.21-.3-.14-.47-.09-.09.02-.19.04-.28.05-.48.03-.66-.12-.75-.59-.06-.31-.15-.61-.22-.93l.03-.05c.83-.46,1.1-1.22,1.15-2.09.03-.42.05-.84.08-1.26.06-.69-.19-1.26-.73-1.73.04.3.1.6.13.91.03.28.05.56.04.84-.01.33-.18.5-.52.5-.65,0-1.3.03-1.95-.02-.54-.04-.96-.3-1.28-.77-.43-.65-.9-1.27-1.39-1.87-.15-.18-.39-.3-.6-.42-.06-.03-.18-.03-.22.02-.04.04-.05.15-.03.22.13.38.28.75.43,1.12.15.38.3.77.44,1.15.11.31.07.43-.19.64-.29.23-.56.48-.94.53-.13.01-.26.02-.39.02-.35-.02-.71-.06-1.06-.06-1.49,0-2.94-.27-4.37-.63-.43-.11-.85-.27-1.2-.58-.07-.06-.16-.1-.24-.15-1.01-.52-2.01-1.04-3.02-1.55-.3-.15-.63-.27-.94-.4-.13-.05-.28-.14-.38.03-.08.14.04.23.12.34.18.26.35.52.53.79.03.04.03.1.07.2-1.57-.38-3.11-.65-4.73-.75.04-.22.06-.41.12-.59.19-.56.38-1.11.6-1.66.1-.23.26-.44.42-.64,1.05-1.31,2.27-2.46,3.57-3.52,1.45-1.19,2.86-2.43,4.17-3.77.49-.5,1.08-.83,1.7-1.12.52-.24,1.04-.27,1.59-.11.14.04.29.06.43.09.12-.18.02-.27-.08-.36-.33-.28-.72-.36-1.13-.31-.33.03-.65.09-1.04.15l.03-.04c.2-.23.37-.48.51-.75.2-.29.43-.56.7-.8.2-.17.4-.28.67-.2.25.08.4-.11.59-.21v-.07c-.09-.01-.16-.03-.24-.04-.2-.03-.4-.06-.55-.22-.11-.12-.23-.1-.35-.02-.12.08-.24.16-.34.25-.25.21-.49.43-.73.64-.36-.21-.69-.43-1.04-.61-.35-.17-.71-.3-1.09-.43.55.53,1.12,1.04,1.77,1.47-.05.09-.11.18-.16.26-.65-.54-1.42-.85-2.21-1.14.64.52,1.27,1.05,1.92,1.59-.03.04-.05.08-.08.12l-.05.05c-.54-.56-1.26-.82-1.91-1.18l-.04.06c.53.5,1.06,1,1.61,1.52-.11.13-.23.25-.35.38.02-.1.03-.18,0-.25-.05-.12-.18-.21-.29-.3-1.29-1.11-2.68-2.09-4.17-2.92-.25-.14-.49-.29-.72-.45-.48-.33-1-.4-1.56-.26-.69.18-1.38.38-2.11.58.17-.31.31-.63.5-.91.06-.1.24-.15.37-.17.44-.07.89-.14,1.34-.16.99-.05,1.98-.07,2.98-.1.57-.01,1.06.21,1.52.51.17.11.33.23.5.34.31.2.35.19.58-.15.17.08.34.16.59.28-.07-.11-.09-.16-.13-.2-.45-.55-.9-1.09-1.34-1.65-.2-.25-.44-.41-.76-.47-.67-.14-1.33-.33-2.02-.33.08-.19.54-.76.71-.81.12-.04.28-.03.4.02.5.2,1,.42,1.5.64.44.19.88.34,1.36.39.19.02.38.04.57.02.53-.04,1.04.05,1.54.18.32.09.58.25.68.6.04.13.13.25.21.36.19.24.38.48.59.7.36.39.67.82.86,1.32.12.31.34.5.68.55.38.05.61.27.7.64.04.16.12.3.19.48.23-.05.43-.08.64-.14.3-.09.52,0,.71.25.48.62.65,1.32.65,2.08,0,.5-.58,1.09-1.11,1.03-.24-.03-.42.03-.53.27-.08-.05-.11-.08-.14-.09-.14.1-.13.31,0,.4.15.1.31.12.47.05.19-.07.37-.15.56-.22.28-.1.47.04.46.33-.01.49-.6.95-1.08.84-.22-.05-.44-.11-.65-.17-.2-.06-.4-.14-.62-.22.06-.1.12-.19.18-.28-.03-.02-.05-.05-.08-.06-.25-.06-.46-.02-.66.16-.15.13-.33.22-.48.35-.49.4-.84.91-1.09,1.5-.35.83-.74,1.65-1.1,2.48-.07.16-.13.33-.16.5-.1.52-.38.93-.76,1.28-.52.48-1.13.8-1.81,1.01-.29.09-.57.18-.85.31.89-.08,1.79-.14,2.57-.64.63-.39,1.02-.96,1.25-1.66.11-.32.21-.65.33-1.02.19.1.36.19.51.28.43.26.89.32,1.37.23.17-.03.35-.09.48-.2.91-.7,1.92-.8,2.99-.53.31.07.62.18.89.33.22.12.39.33.57.52.17.19.31.41.57.52.05-.03.11-.06.15-.1.24-.32.57-.35.92-.31.28.04.56.1.83.17.11.03.22.09.31.16.46.39.91.79,1.36,1.19.49.42.8.95,1,1.56.24.76.34,1.54.43,2.32.06.5.14,1,.19,1.51.02.22.11.41.27.56.75.7,1.29,1.56,1.83,2.42.23.37.33.74.27,1.17-.03.23-.03.47-.01.7.06.79.08,1.58.21,2.35.12.73.34,1.44.55,2.15.23.8.5,1.59.75,2.39.02.08.04.15.02.27Zm11.08-10.59c-.05.19-.02.4-.02.6,0,.24-.04.29-.28.32-1.01.13-2.02.24-3.03.36-.19.02-.33-.07-.39-.23-.1-.24-.18-.48-.26-.73-.17-.54-.46-.72-1.02-.59-.23.05-.45.14-.71.22-.05-.1-.1-.19-.15-.3-.33-.73-.64-1.46-1-2.18-.41-.83-.91-1.6-1.49-2.31-.1-.13-.19-.27-.28-.41-.11-.19-.23-.36-.44-.48-.18-.1-.29-.32-.44-.49.15-.25.25-.48.17-.7.29-.54.58-1.06.86-1.58l-.04-.06c-.47.17-.89.44-1.4.64,0-.09,0-.16.02-.2.04-.05.12-.07.18-.1.64-.29,1.16-.75,1.71-1.2-.18.03-.37.07-.55.1l-.03-.05c.41-.32.82-.64,1.24-.96l-.03-.06c-.44.17-.88.34-1.31.51l-.03-.06c.23-.16.46-.31.69-.47l-.03-.06c-.36.1-.71.21-1.07.31l-.04-.07c.33-.27.7-.48,1.02-.77-.39.04-.75.19-1.11.31-.38.12-.76.25-1.14.38-.12-.11-.11-.18.02-.25.31-.17.63-.33.94-.5.11-.06.22-.12.33-.23-.08,0-.17-.01-.25,0-.45.08-.91.16-1.36.25-.33.07-.6,0-.8-.29-.35-.49-.71-.97-1.09-1.44-.26-.33-.39-.7-.37-1.11.02-.62-.1-1.21-.33-1.79-.06-.16-.12-.35-.08-.51.15-.63.11-1.24-.23-1.83.37-.35.73-.68,1.09-1.02l-.05-.05c-.41.2-.82.4-1.23.61.09-.19.25-.31.4-.44.15-.14.3-.27.45-.4.15-.14.31-.28.46-.41l-.05-.07c-.58.29-1.16.58-1.74.87l-.04-.06c.48-.4.97-.8,1.45-1.2l-.03-.05c-.56.27-1.12.55-1.68.82l-.04-.07c.41-.3.82-.59,1.23-.89.41-.3.84-.59,1.24-.9l-.05-.08c-.1.05-.2.09-.3.14-.86.44-1.72.88-2.59,1.32-.12.06-.26.18-.33-.09.81-.55,1.62-1.11,2.44-1.66l-.03-.06c-.52.19-1.04.39-1.56.58l-.04-.06c.27-.19.55-.38.82-.57l-.03-.04c-.28.1-.57.21-.85.31l-.03-.05c.38-.26.77-.53,1.15-.79-.93.17-1.81.47-2.64.88-.19-.16-.1-.24.04-.33.42-.26.84-.52,1.26-.79.1-.06.19-.13.29-.19l-.03-.06c-.65.19-1.29.38-1.98.58-.4-1.07-.81-2.14-1.22-3.24.59-.34,1.17-.67,1.75-1.01-.35-.1-.67.06-1.03.02.34-.2.68-.39,1.02-.59l-.02-.07-1.8.35v-.03c.29-.18.59-.35.89-.53,0-.03-.02-.05-.03-.08-.14.02-.28.05-.43.07-.62.11-1.22.27-1.8.51-.26.11-.51.11-.81-.06.09-.05.14-.07.19-.09.65-.25,1.3-.49,1.94-.76.41-.17.79-.19,1.19,0,.26.12.54.17.8.28.62.26,1.24.52,1.85.79.07.03.15.08.19.15.26.43.5.87.77,1.34-.38.04-.7.06-1.02.11-.41.07-.81.18-1.21.26-.25.05-.43.18-.54.41-.15.32-.31.63-.45.95-.05.12-.08.25-.09.38-.02.23.1.33.33.29.11-.02.23-.07.34-.11.67-.26,1.35-.51,2.06-.65.22-.04.38-.16.53-.33.2-.24.43-.47.68-.73.48.42,1.05.71,1.24,1.4.13.46.36.9.38,1.39,0,.09.02.19,0,.28-.06.46.1.85.36,1.22.47.67.94,1.36,1.41,2.04.07.09.12.19.2.32-.12.09-.21.18-.32.24-.62.4-1.22.82-1.86,1.17-.82.45-1.24,1.13-1.38,2.02-.02.13-.05.25-.06.38-.02.24.08.33.32.27.31-.09.6-.2.91-.29.51-.14,1.03-.27,1.53-.41.17-.05.34-.12.48-.21.43-.28.84-.57,1.26-.85.04-.03.08-.04.17-.09.05.26.11.5.15.74,0,.05-.01.12-.04.16-.43.7-.83,1.42-1.47,1.98-.04.03-.08.07-.09.11-.02.1-.04.21,0,.29.03.06.16.11.24.1.59-.12,1.17-.26,1.75-.4.1-.02.2-.07.34-.12.11.35.25.67.31,1.01.11.56.41.95.87,1.28.71.51,1.19,1.19,1.42,2.05.16.58.44,1.09.85,1.53.15.16.29.34.4.53.26.42.49.86.75,1.28.21.36.29.74.23,1.15-.06.39.05.7.33.99.21.22.37.49.52.75.32.58.64,1.15,1.14,1.61.21.19.27.42.2.71Z" style="fill:#c2202e; stroke-width:0px;"/><path d="m10.76,10.29c-.29.1-.58.2-.87.3-.35.12-.7.21-1.04.35-.23.09-.42.23-.7.19-.18-.03-.28.12-.22.3.03.09.09.16.15.23.23.28.54.44.86.61.5.27.95.21,1.37-.16.06-.05.13-.11.18-.17.2-.22.45-.33.73-.4.15-.03.28-.11.42-.17.15-.07.3-.14.45-.21.1-.04.2-.08.27-.11-.13-.11-.25-.18-.34-.29-.1-.13-.21-.13-.34-.1-.21.04-.41.08-.62.12v-.06c.11-.11.23-.23.36-.36-.24-.16-.44-.14-.65-.07Z" style="fill:#c2202e; stroke-width:0px;"/><path d="m39.31,48.66c-.27-.03-.54-.01-.8-.03-.38-.03-.72.07-1.04.26-.17.1-.36.17-.55.24-.67.23-1.36.4-2.01.69-1.16.52-2.29,1.1-3.44,1.66-.03.02-.06.03-.1.05l.05.07c2.78-.56,5.41-1.53,7.89-2.93Z" style="fill:#c2202e; stroke-width:0px;"/><path d="m11.03,14.47c.38.14.57-.07.75-.27.11-.13.23-.27.04-.51-.31.21-.55.45-.8.78Z" style="fill:#c2202e; stroke-width:0px;"/><path d="m60.22,16.56V4.37c0-.58.21-.8.78-.8h4.72c2.87,0,4.74,1.75,4.74,4.74s-1.82,4.72-4.72,4.72h-2.06v3.53c0,.58-.19.8-.78.8h-1.9c-.56,0-.78-.21-.78-.8Zm6.77-8.25c0-.97-.54-1.63-1.51-1.63h-1.81v3.24h1.81c.95,0,1.51-.62,1.51-1.61Z" style="fill:#332c2d; stroke-width:0px;"/><path d="m73.52,16.62V4.31c0-.58.23-.74.74-.74h2c.51,0,.72.15.72.74v12.31c0,.58-.23.74-.74.74h-1.98c-.51,0-.74-.16-.74-.74Z" style="fill:#332c2d; stroke-width:0px;"/><path d="m80.71,16.56V4.37c0-.58.21-.8.78-.8h7.4c.58,0,.78.21.78.8v1.49c0,.6-.19.82-.78.82h-4.72v2.15h3.75c.58,0,.78.21.78.8v1.49c0,.6-.19.82-.78.82h-3.75v2.31h4.87c.58,0,.78.19.78.8v1.51c0,.58-.19.8-.78.8h-7.55c-.56,0-.78-.21-.78-.8Z" style="fill:#332c2d; stroke-width:0px;"/><path d="m92.98,16.56V4.37c0-.58.21-.8.76-.8h4.33c3.53,0,5.49,2.04,5.49,5.32v3.14c0,3.28-1.96,5.32-5.49,5.32h-4.33c-.54,0-.76-.21-.76-.8Zm7.12-4.54v-3.11c0-1.47-.58-2.23-2.17-2.23h-1.49v7.57h1.49c1.59,0,2.17-.76,2.17-2.23Z" style="fill:#332c2d; stroke-width:0px;"/><path d="m106.93,16.56V4.37c0-.58.21-.8.78-.8h4.83c2.8,0,4.62,1.63,4.62,4.54,0,1.92-.8,3.07-2.14,3.75.23.25.43.6.56.89l1.79,3.73c.23.49.14.87-.47.87h-1.9c-.93,0-1.2-.19-1.48-.83l-1.22-2.83c-.37-.84-.6-1.13-1.36-1.13h-.56v4c0,.58-.19.8-.78.8h-1.9c-.56,0-.78-.21-.78-.8Zm6.77-8.44c0-.89-.52-1.44-1.4-1.44h-1.92v2.93h1.92c.87,0,1.4-.54,1.4-1.5Z" style="fill:#332c2d; stroke-width:0px;"/><path d="m119.59,16.58l4.1-12.35c.17-.54.41-.66.93-.66h2.08c.51,0,.78.14.93.62l4.12,12.38c.17.51.02.78-.52.78h-1.86c-.91,0-1.18-.17-1.34-.76l-.43-1.65h-3.96l-.47,1.65c-.15.58-.41.76-1.28.76h-1.81c-.54,0-.66-.27-.49-.78Zm6.56-7.09c-.25-.99-.41-2.12-.47-2.7h-.14c-.06.58-.19,1.73-.45,2.7l-.68,2.66h2.41l-.68-2.66Z" style="fill:#332c2d; stroke-width:0px;"/><path d="m133.73,14.56c-.19-.56-.06-.85.45-1.03l1.71-.58c.54-.19.8-.12,1.05.47.31.76,1.01,1.2,1.98,1.2,1.3,0,1.96-.37,1.96-1.36,0-.87-.89-1.16-2.14-1.32-2.06-.25-4.97-.78-4.97-4.35,0-2.52,1.88-4.31,5.26-4.31,2.6,0,4.06.99,4.93,2.82.25.56.12.87-.43,1.07l-1.69.66c-.49.19-.7.14-.95-.43-.35-.78-1.11-1.09-1.86-1.09-1.24,0-1.77.35-1.77,1.18,0,1.05,1.09,1.2,2.43,1.38,2.04.23,4.72.91,4.72,4.41,0,2.76-2.15,4.37-5.49,4.37-2.62,0-4.52-1.05-5.18-3.09Z" style="fill:#332c2d; stroke-width:0px;"/><path d="m60.22,36.11v-12.19c0-.6.21-.8.76-.8h1.77c.62,0,.83.1,1.05.6l2.87,6.54,2.91-6.52c.23-.54.41-.62.99-.62h1.86c.58,0,.76.19.76.8v12.19c0,.6-.17.8-.76.8h-1.82c-.58,0-.78-.19-.78-.8v-3.61c0-1.22-.04-2.47.64-4.76h-.17c-.35,1.16-.82,2.47-1.22,3.4l-.97,2.31c-.17.39-.35.56-.85.56h-1.2c-.47,0-.68-.14-.85-.56l-.99-2.31c-.41-.89-.8-2.14-1.15-3.4h-.17c.58,2.37.6,3.47.6,4.78v3.59c0,.6-.17.8-.74.8h-1.77c-.54,0-.76-.19-.76-.8Z" style="fill:#332c2d; stroke-width:0px;"/><path d="m76.8,31.96v-8.06c0-.58.21-.78.76-.78h1.96c.54,0,.74.19.74.78v8.17c0,1.3.62,2.02,1.9,2.02s1.94-.72,1.94-2.02v-8.17c0-.58.17-.78.74-.78h1.94c.56,0,.78.19.78.78v8.06c0,3.18-1.86,5.24-5.4,5.24s-5.36-2.06-5.36-5.24Z" style="fill:#332c2d; stroke-width:0px;"/><path d="m91.16,36.11v-12.19c0-.58.21-.8.76-.8h2.19c.39,0,.6.12.74.39l2.83,5.34c.74,1.38.99,2.31,1.46,3.65h.15c-.41-1.57-.76-2.7-.76-4.56v-4.02c0-.58.19-.8.78-.8h1.79c.56,0,.76.21.76.8v12.19c0,.58-.19.8-.76.8h-2.08c-.39,0-.58-.12-.72-.39l-2.76-5.24c-.7-1.34-.99-2.33-1.46-3.8h-.14c.31,1.4.5,2.7.5,4.62v4.02c0,.58-.17.8-.76.8h-1.79c-.54,0-.76-.21-.76-.8Z" style="fill:#332c2d; stroke-width:0px;"/><path d="m105.57,36.11v-12.19c0-.58.21-.8.76-.8h4.33c3.53,0,5.49,2.04,5.49,5.32v3.14c0,3.28-1.96,5.32-5.49,5.32h-4.33c-.54,0-.76-.21-.76-.8Zm7.12-4.54v-3.11c0-1.47-.58-2.23-2.17-2.23h-1.49v7.57h1.49c1.59,0,2.17-.76,2.17-2.23Z" style="fill:#332c2d; stroke-width:0px;"/><path d="m119.52,36.17v-12.31c0-.58.23-.74.74-.74h2c.51,0,.72.15.72.74v12.31c0,.58-.23.74-.74.74h-1.98c-.51,0-.74-.16-.74-.74Z" style="fill:#332c2d; stroke-width:0px;"/><path d="m125.73,36.13l4.1-12.35c.17-.54.41-.66.93-.66h2.08c.51,0,.78.14.93.62l4.12,12.38c.17.51.02.78-.52.78h-1.86c-.91,0-1.18-.17-1.34-.76l-.43-1.65h-3.96l-.47,1.65c-.16.58-.41.76-1.28.76h-1.81c-.54,0-.66-.27-.49-.78Zm6.56-7.09c-.25-.99-.41-2.12-.47-2.7h-.14c-.06.58-.19,1.73-.45,2.7l-.68,2.66h2.41l-.68-2.66Z" style="fill:#332c2d; stroke-width:0px;"/><path d="m140.65,36.11v-12.19c0-.58.21-.8.78-.8h1.9c.58,0,.78.21.78.8v9.88h4.29c.58,0,.78.19.78.8v1.51c0,.58-.19.8-.78.8h-6.97c-.56,0-.78-.21-.78-.8Z" style="fill:#332c2d; stroke-width:0px;"/><path d="m152.03,36.11v-12.19c0-.58.21-.8.78-.8h7.4c.58,0,.78.21.78.8v1.49c0,.6-.19.82-.78.82h-4.72v2.15h3.75c.58,0,.78.21.78.8v1.49c0,.6-.19.82-.78.82h-3.75v2.31h4.87c.58,0,.78.19.78.8v1.51c0,.58-.19.8-.78.8h-7.55c-.56,0-.78-.21-.78-.8Z" style="fill:#332c2d; stroke-width:0px;"/><path d="m163.82,34.11c-.19-.56-.06-.85.45-1.03l1.71-.58c.54-.19.8-.12,1.05.47.31.76,1.01,1.2,1.98,1.2,1.3,0,1.96-.37,1.96-1.36,0-.87-.89-1.16-2.14-1.32-2.06-.25-4.97-.78-4.97-4.35,0-2.52,1.88-4.31,5.26-4.31,2.6,0,4.06.99,4.93,2.82.25.56.12.87-.43,1.07l-1.69.66c-.49.19-.7.14-.95-.43-.35-.78-1.11-1.09-1.86-1.09-1.24,0-1.77.35-1.77,1.18,0,1.05,1.09,1.2,2.43,1.38,2.04.23,4.72.91,4.72,4.41,0,2.76-2.15,4.37-5.49,4.37-2.62,0-4.52-1.05-5.18-3.09Z" style="fill:#332c2d; stroke-width:0px;"/><path d="m61.75,48.68v-4.7h-1.44c-.06,0-.09-.02-.09-.09v-.13c0-.07.02-.09.09-.09h3.22c.06,0,.09.02.09.09v.13c0,.06-.02.09-.09.09h-1.44v4.7c0,.06-.02.09-.09.09h-.16c-.06,0-.09-.02-.09-.09Z" style="fill:#332c2d; stroke-width:0px;"/><path d="m65.05,48.68v-4.91c0-.07.02-.09.09-.09h.16c.06,0,.09.02.09.09v2.26h2.74v-2.26c0-.07.02-.09.09-.09h.17c.06,0,.09.02.09.09v4.91c0,.07-.02.09-.09.09h-.17c-.06,0-.09-.02-.09-.09v-2.33h-2.74v2.33c0,.07-.02.09-.09.09h-.16c-.06,0-.09-.02-.09-.09Z" style="fill:#332c2d; stroke-width:0px;"/><path d="m70.41,48.68v-4.91c0-.07.02-.09.09-.09h2.66c.06,0,.09.02.09.09v.13c0,.06-.02.09-.09.09h-2.42v2.05h2.13c.06,0,.09.03.09.09v.13c0,.07-.02.09-.09.09h-2.13v2.12h2.51c.06,0,.09.02.09.09v.13c0,.07-.02.09-.09.09h-2.75c-.06,0-.09-.02-.09-.09Z" style="fill:#332c2d; stroke-width:0px;"/><path d="m76.98,47.63c-.02-.06-.01-.1.05-.12l.15-.05c.06-.02.09-.01.11.05.28.74.75,1.04,1.47,1.04.94,0,1.42-.37,1.42-1.13,0-.85-.68-.96-1.4-1.05-.81-.11-1.72-.27-1.72-1.39,0-.87.62-1.42,1.67-1.42.89,0,1.39.34,1.73,1.1.04.06.02.1-.04.12l-.14.05c-.06.03-.08.02-.11-.04-.29-.64-.71-.92-1.43-.92-.85,0-1.34.4-1.34,1.09,0,.85.72.98,1.47,1.08.8.1,1.65.27,1.65,1.37,0,.93-.6,1.44-1.76,1.44-.91,0-1.48-.37-1.79-1.24Z" style="fill:#332c2d; stroke-width:0px;"/><path d="m83.19,48.68v-4.7h-1.44c-.06,0-.09-.02-.09-.09v-.13c0-.07.02-.09.09-.09h3.22c.06,0,.09.02.09.09v.13c0,.06-.02.09-.09.09h-1.44v4.7c0,.06-.02.09-.09.09h-.16c-.06,0-.09-.02-.09-.09Z" style="fill:#332c2d; stroke-width:0px;"/><path d="m86.26,47.1v-1.75c0-1.1.62-1.77,1.8-1.77s1.79.68,1.79,1.77v1.75c0,1.1-.62,1.77-1.79,1.77s-1.8-.68-1.8-1.77Zm3.25,0v-1.74c0-.92-.51-1.47-1.46-1.47s-1.46.55-1.46,1.47v1.74c0,.92.51,1.47,1.46,1.47s1.46-.55,1.46-1.47Z" style="fill:#332c2d; stroke-width:0px;"/><path d="m91.63,48.68v-4.91c0-.07.02-.09.09-.09h.18c.05,0,.08.02.09.05l2.23,3.54c.22.35.4.7.6,1.04h.02c-.03-.42-.05-.85-.05-1.31v-3.24c0-.06.02-.09.09-.09h.15c.06,0,.09.02.09.09v4.91c0,.07-.02.09-.09.09h-.18c-.05,0-.07,0-.1-.06l-2.29-3.63c-.19-.32-.35-.64-.52-.93h-.01c0,.37.04.77.04,1.19v3.35c0,.07-.02.09-.09.09h-.14c-.06,0-.09-.02-.09-.09Z" style="fill:#332c2d; stroke-width:0px;"/><path d="m97.05,48.68v-4.91c0-.07.02-.09.09-.09h2.66c.06,0,.09.02.09.09v.13c0,.06-.02.09-.09.09h-2.42v2.05h2.13c.06,0,.09.03.09.09v.13c0,.07-.02.09-.09.09h-2.13v2.12h2.51c.06,0,.09.02.09.09v.13c0,.07-.02.09-.09.09h-2.75c-.06,0-.09-.02-.09-.09Z" style="fill:#332c2d; stroke-width:0px;"/><path d="m103.75,47.1v-1.76c0-1.09.62-1.77,1.79-1.77,1.03,0,1.52.43,1.75,1.25.03.07,0,.1-.05.11l-.14.04c-.06.02-.09.01-.11-.05-.19-.71-.58-1.05-1.43-1.05-.97,0-1.46.55-1.46,1.45v1.77c0,.9.5,1.45,1.45,1.45.87,0,1.24-.38,1.44-1.07.02-.07.05-.09.11-.06l.15.05c.06.02.08.05.06.12-.25.81-.71,1.28-1.77,1.28-1.15,0-1.79-.68-1.79-1.77Z" style="fill:#332c2d; stroke-width:0px;"/><path d="m108.94,48.68v-4.91c0-.07.02-.09.09-.09h2.66c.06,0,.09.02.09.09v.13c0,.06-.02.09-.09.09h-2.42v2.05h2.13c.06,0,.09.03.09.09v.13c0,.07-.02.09-.09.09h-2.13v2.12h2.51c.06,0,.09.02.09.09v.13c0,.07-.02.09-.09.09h-2.75c-.06,0-.09-.02-.09-.09Z" style="fill:#332c2d; stroke-width:0px;"/><path d="m113.51,48.68v-4.91c0-.07.02-.09.09-.09h.18c.05,0,.08.02.09.05l2.23,3.54c.22.35.4.7.6,1.04h.02c-.03-.42-.05-.85-.05-1.31v-3.24c0-.06.02-.09.09-.09h.15c.06,0,.09.02.09.09v4.91c0,.07-.02.09-.09.09h-.18c-.05,0-.07,0-.1-.06l-2.29-3.63c-.19-.32-.35-.64-.52-.93h-.01c0,.37.04.77.04,1.19v3.35c0,.07-.02.09-.09.09h-.14c-.06,0-.09-.02-.09-.09Z" style="fill:#332c2d; stroke-width:0px;"/><path d="m119.95,48.68v-4.7h-1.44c-.06,0-.09-.02-.09-.09v-.13c0-.07.02-.09.09-.09h3.22c.06,0,.09.02.09.09v.13c0,.06-.02.09-.09.09h-1.44v4.7c0,.06-.02.09-.09.09h-.16c-.06,0-.09-.02-.09-.09Z" style="fill:#332c2d; stroke-width:0px;"/><path d="m123.26,48.68v-4.91c0-.07.02-.09.09-.09h2.66c.06,0,.09.02.09.09v.13c0,.06-.02.09-.09.09h-2.42v2.05h2.13c.06,0,.09.03.09.09v.13c0,.07-.02.09-.09.09h-2.13v2.12h2.51c.06,0,.09.02.09.09v.13c0,.07-.02.09-.09.09h-2.75c-.06,0-.09-.02-.09-.09Z" style="fill:#332c2d; stroke-width:0px;"/><path d="m127.83,48.68v-4.91c0-.07.02-.09.09-.09h1.88c.84,0,1.36.52,1.36,1.44,0,.83-.45,1.31-1.17,1.36.27.11.43.32.57.61l.73,1.59c.03.05.01.09-.05.09h-.16c-.11,0-.13-.01-.16-.08l-.68-1.48c-.22-.48-.46-.69-.98-.69h-1.11v2.15c0,.07-.02.09-.09.09h-.16c-.06,0-.09-.02-.09-.09Zm2.99-3.57c0-.72-.39-1.13-1.04-1.13h-1.62v2.25h1.62c.64,0,1.04-.4,1.04-1.12Z" style="fill:#332c2d; stroke-width:0px;"/></svg>