<?xml version="1.0" encoding="UTF-8"?><svg id="a" xmlns="http://www.w3.org/2000/svg" viewBox="0 0 364.89 92.28"><path d="m13.69,15.64h0c-.25,0-2.52.02-4.15.8C3.62,19.28.14,25.84,0,26.12l.4.66h39.84l.3-.79c-.12-.1-12.02-10.35-26.84-10.35Z" style="fill:#86be42; stroke-width:0px;"/><path d="m39.96,30.3v-.07h0v.07l-.03-.07s-4.92.35-11.3,2.28c-5.9,1.78-14.35,5.32-21.1,12.07h0s0,0,0,0c-.22.22-2.16,2.2-2.9,4.28-2.69,7.61,0,16.34.11,16.71l.75.18L40.28,31l-.32-.7Z" style="fill:#86be42; stroke-width:0px;"/><path d="m34.74,2.65c-.14-.14-1.44-1.41-2.8-1.89-1.44-.51-3.08-.76-4.89-.76-3.21,0-5.8.8-5.91.83l-.18.75,22.26,22.26.77-.35c0-.12-.94-12.53-9.24-20.84Z" style="fill:#86be42; stroke-width:0px;"/><path d="m65.65,5.44c-.09-.03-2.16-.67-4.73-.67h0c-1.44,0-2.76.21-3.91.61-1.07.38-2.06,1.33-2.24,1.51h0c-6.64,6.64-7.39,16.57-7.39,16.67l.61.28,17.8-17.8-.15-.6Z" style="fill:#86be42; stroke-width:0px;"/><path d="m103.77,67l-8.81-14.53c-.71.06-1.38.06-2.15.06-1.32,0-2.7-.06-4.02-.11v14.59h-6.88V27.03c3.19-.38,6.55-.66,10.62-.66,11.45,0,16.51,5.56,16.51,12.72,0,5.23-2.86,9.47-7.87,11.67l10.57,16.24h-7.98Zm-10.35-34.46c-1.65,0-3.25.05-4.62.33v13.76c1.27.16,2.64.22,3.96.22,6,0,9.03-2.81,9.03-7.43,0-4.07-3.08-6.88-8.37-6.88Z" style="fill:#869795; stroke-width:0px;"/><path d="m134.98,67.66c-11.67,0-20.2-8.86-20.2-20.81s8.92-20.86,20.59-20.86,20.2,8.86,20.2,20.86-8.92,20.81-20.59,20.81Zm.22-35.51c-7.71,0-13.05,6.28-13.05,14.7s5.34,14.7,13.05,14.7,12.99-6.33,12.99-14.7c0-8.42-5.34-14.7-12.99-14.7Z" style="fill:#869795; stroke-width:0px;"/><path d="m173.89,54c-1.32,0-2.7-.11-4.02-.17v13.16h-6.88V27.03c3.58-.44,6.94-.66,10.24-.66,11.06,0,16.73,6.06,16.73,13.6,0,8.2-5.78,14.04-16.07,14.04Zm.5-21.3c-1.54,0-3.08.11-4.51.33v14.75c1.38.11,2.64.22,3.85.22,6.22,0,9.08-3.25,9.08-7.82,0-3.96-2.81-7.49-8.42-7.49Z" style="fill:#869795; stroke-width:0px;"/><path d="m196.24,67V26.65h6.88v40.35h-6.88Z" style="fill:#869795; stroke-width:0px;"/><path d="m232.57,67.66c-12.77,0-21.74-8.81-21.74-20.81s9.08-20.86,21.74-20.86c5.01,0,9.58,1.6,12.99,3.69l-2.37,5.83c-3.19-1.82-7.16-3.08-10.73-3.08-8.86,0-14.26,5.89-14.26,14.42s5.56,14.37,14.42,14.37c3.58,0,7.76-1.27,11.01-3.19l2.09,5.84c-3.36,2.15-8.15,3.8-13.16,3.8Z" style="fill:#869795; stroke-width:0px;"/><path d="m278.09,67l-3.91-9.25h-15.96l-3.91,9.25h-7.1l18.61-40.9h.99l18.55,40.9h-7.27Zm-11.89-28.18l-5.72,13.49h11.45l-5.72-13.49Z" style="fill:#869795; stroke-width:0px;"/><path d="m321.74,67.77l-25.27-26.64v25.87h-6.88V26.1l1.1-.22,24.94,26.26v-25.49h6.88v40.95l-.77.16Z" style="fill:#869795; stroke-width:0px;"/><path d="m357.62,67l-3.91-9.25h-15.96l-3.91,9.25h-7.1l18.61-40.9h.99l18.55,40.9h-7.27Zm-11.89-28.18l-5.72,13.49h11.45l-5.72-13.49Z" style="fill:#869795; stroke-width:0px;"/><path d="m46.74,26.65c-1.73,0-3.14,1.41-3.14,3.14v3.14h12.83v34.07h6.88v-34.07h12.77v-6.27h-29.34Z" style="fill:#869795; stroke-width:0px;"/><path d="m155.39,75.46h4.71c3.7,0,6.2,1.24,6.2,4.86s-2.48,5.1-6.09,5.1h-2.71v6.55h-2.1v-16.51Zm4.55,8.26c2.89,0,4.26-1.05,4.26-3.4s-1.46-3.16-4.36-3.16h-2.35v6.55h2.45Z" style="fill:#86be42; stroke-width:0px;"/><path d="m178.43,75.46h5.17c3.36,0,5.78,1.21,5.78,4.65s-2.41,4.88-5.78,4.88h-3.07v6.98h-2.1v-16.51Zm4.87,7.83c2.57,0,3.98-1.04,3.98-3.18s-1.41-2.94-3.98-2.94h-2.77v6.12h2.77Zm-.11,1.13l1.65-1.09,5.04,8.64h-2.38l-4.3-7.55Z" style="fill:#86be42; stroke-width:0px;"/><path d="m200.59,83.66c0-5.29,2.91-8.5,7.06-8.5s7.06,3.22,7.06,8.5-2.91,8.62-7.06,8.62-7.06-3.33-7.06-8.62Zm11.94,0c0-4.11-1.94-6.65-4.89-6.65s-4.89,2.54-4.89,6.65,1.94,6.77,4.89,6.77,4.89-2.66,4.89-6.77Z" style="fill:#86be42; stroke-width:0px;"/><path d="m227.05,75.46h4.71c3.7,0,6.2,1.24,6.2,4.86s-2.48,5.1-6.09,5.1h-2.71v6.55h-2.1v-16.51Zm4.55,8.26c2.89,0,4.26-1.05,4.26-3.4s-1.46-3.16-4.36-3.16h-2.35v6.55h2.45Z" style="fill:#86be42; stroke-width:0px;"/><path d="m250.09,75.46h9.52v1.78h-7.41v5.17h6.25v1.78h-6.25v6h7.67v1.78h-9.77v-16.51Z" style="fill:#86be42; stroke-width:0px;"/><path d="m272.15,75.46h5.17c3.36,0,5.78,1.21,5.78,4.65s-2.41,4.88-5.78,4.88h-3.07v6.98h-2.1v-16.51Zm4.87,7.83c2.57,0,3.98-1.04,3.98-3.18s-1.41-2.94-3.98-2.94h-2.77v6.12h2.77Zm-.11,1.13l1.65-1.09,5.04,8.64h-2.38l-4.3-7.55Z" style="fill:#86be42; stroke-width:0px;"/><path d="m298.35,77.24h-4.99v-1.78h12.09v1.78h-4.99v14.73h-2.1v-14.73Z" style="fill:#86be42; stroke-width:0px;"/><path d="m317.2,75.46h2.1v16.51h-2.1v-16.51Z" style="fill:#86be42; stroke-width:0px;"/><path d="m332.62,75.46h9.52v1.78h-7.41v5.17h6.25v1.78h-6.25v6h7.67v1.78h-9.77v-16.51Z" style="fill:#86be42; stroke-width:0px;"/><path d="m353.49,89.82l1.26-1.44c1.19,1.23,2.84,2.05,4.55,2.05,2.17,0,3.45-1.08,3.45-2.68,0-1.69-1.2-2.22-2.75-2.9l-2.37-1.05c-1.54-.66-3.34-1.82-3.34-4.25s2.2-4.38,5.2-4.38c1.96,0,3.7.85,4.86,2.05l-1.11,1.35c-1.01-.95-2.22-1.55-3.75-1.55-1.85,0-3.08.93-3.08,2.41,0,1.59,1.44,2.19,2.73,2.73l2.35,1.02c1.91.82,3.4,1.96,3.4,4.41,0,2.61-2.16,4.69-5.63,4.69-2.32,0-4.33-.95-5.77-2.45Z" style="fill:#86be42; stroke-width:0px;"/></svg>