<?xml version="1.0" encoding="UTF-8"?><svg id="a" xmlns="http://www.w3.org/2000/svg" viewBox="0 0 600 300"><path d="m144.85,142.25l-11.37-36.96c-.12-.4-.34-.75-.66-1.05-.32-.3-.69-.53-1.1-.69l-2.57-1.01v-1.82h17.81v1.82l-5.13,1.28,7.7,24.94.69,2.27,7.13-22.94,3.1-7.37h3.85l8.53,27.92.81,2.65,8.65-27.06-4.92-1.7v-1.82h12.95v1.82l-2.71,1.31c-.34.16-.69.41-1.04.75-.36.34-.61.71-.75,1.11l-9.67,29.17-3.07,7.37h-4.56l-7.58-24.85-1.16-3.97-6.74,21.45-3.1,7.37h-5.07Z" style="fill:#38342a; stroke-width:0px;"/><path d="m183.81,141.83v-1.82l2.74-1.04c.85-.34,1.44-.93,1.76-1.76l11.84-30.25,3.61-6.86h3.61l14.62,37.11c.16.4.4.76.73,1.07s.67.55,1.03.69l2.74,1.04v1.82h-17.96v-1.82l5.19-1.28-9.67-24.55-1.22-4.03h-.3l-10.83,28.46,5.07,1.4v1.82h-12.98Zm11.78-14.47l1.31-3.28h11.52l1.28,3.28h-14.11Z" style="fill:#38342a; stroke-width:0px;"/><path d="m225.49,141.83v-1.82l3.79-1.1c.4-.12.73-.33,1-.64.27-.31.4-.68.4-1.12v-31.74c0-.46-.14-.84-.42-1.16-.28-.32-.61-.53-.99-.63l-3.79-1.07v-1.82h17.96c3.24,0,5.9.3,7.98.89,2.08.6,3.69,1.39,4.85,2.37,1.15.99,1.96,2.08,2.42,3.28.46,1.2.69,2.42.69,3.65,0,2.25-.5,4.12-1.51,5.61-1,1.49-2.23,2.67-3.68,3.53-1.45.87-2.83,1.49-4.15,1.87l-4.56,3.25-6.74-1.85.24-2.83c.12.06.45.12,1,.18.55.06,1.13.1,1.75.14.62.03,1.08.04,1.4.04,1.63,0,2.97-.42,4.03-1.25,1.05-.84,1.84-1.91,2.36-3.22s.78-2.68.78-4.12c0-2.9-.67-5.02-2-6.34-1.33-1.32-3.21-1.98-5.64-1.98h-3.49v33.2c0,.46.11.84.34,1.15.23.31.54.51.94.61l4.41,1.1v1.82h-19.36Zm42,0h-9.55c-1.19,0-2.14-.12-2.83-.36s-1.29-.63-1.77-1.18c-.49-.55-1.03-1.28-1.63-2.19l-8.86-13.96,7.46-2.71,10.2,15.09c.32.46.8.95,1.43,1.46.64.52,1.2.85,1.7.99l3.85,1.04v1.82Z" style="fill:#38342a; stroke-width:0px;"/><path d="m265.88,141.83v-1.82l3.79-1.1c.4-.12.73-.33,1-.64.27-.31.4-.68.4-1.12v-31.74c0-.46-.14-.84-.42-1.16-.28-.32-.61-.53-.99-.63l-3.79-1.07v-1.82h17.96c3.24,0,5.9.3,7.98.89,2.08.6,3.69,1.39,4.85,2.37,1.15.99,1.96,2.08,2.42,3.28.46,1.2.69,2.42.69,3.65,0,2.25-.5,4.12-1.51,5.61-1,1.49-2.23,2.67-3.68,3.53-1.45.87-2.83,1.49-4.15,1.87l-4.56,3.25-6.74-1.85.24-2.83c.12.06.45.12,1,.18.55.06,1.13.1,1.75.14.62.03,1.08.04,1.4.04,1.63,0,2.97-.42,4.03-1.25,1.05-.84,1.84-1.91,2.36-3.22s.78-2.68.78-4.12c0-2.9-.67-5.02-2-6.34-1.33-1.32-3.21-1.98-5.64-1.98h-3.49v33.2c0,.46.11.84.34,1.15.23.31.54.51.94.61l4.41,1.1v1.82h-19.36Zm42,0h-9.55c-1.19,0-2.14-.12-2.83-.36s-1.29-.63-1.77-1.18c-.49-.55-1.03-1.28-1.63-2.19l-8.86-13.96,7.46-2.71,10.2,15.09c.32.46.8.95,1.43,1.46.64.52,1.2.85,1.7.99l3.85,1.04v1.82Z" style="fill:#38342a; stroke-width:0px;"/><path d="m306.27,141.83v-1.82l3.79-1.1c.44-.12.78-.33,1.03-.64.25-.31.37-.68.37-1.12v-31.74c0-.46-.14-.84-.42-1.16-.28-.32-.61-.53-.99-.63l-3.79-1.07v-1.82h18.85v1.82l-3.76,1.07c-.38.1-.71.31-1,.64-.29.33-.43.71-.43,1.15v31.74c0,.46.13.83.4,1.13s.61.51,1.03.63l3.76,1.1v1.82h-18.85Z" style="fill:#38342a; stroke-width:0px;"/><path d="m347.53,142.75c-4.28,0-7.9-.92-10.87-2.76-2.97-1.84-5.24-4.37-6.79-7.61-1.55-3.23-2.33-6.95-2.33-11.14,0-3.98.8-7.59,2.39-10.83,1.59-3.24,3.88-5.82,6.88-7.74,2.99-1.92,6.59-2.88,10.78-2.88,4.55,0,8.31.98,11.26,2.94,2.95,1.96,5.14,4.56,6.58,7.8,1.43,3.24,2.15,6.81,2.15,10.71,0,2.59-.38,5.15-1.15,7.7s-1.95,4.86-3.56,6.94-3.68,3.74-6.22,5-5.57,1.88-9.11,1.88Zm.48-3.19c2.35,0,4.29-.77,5.83-2.31,1.54-1.54,2.69-3.63,3.46-6.25s1.15-5.57,1.15-8.83c0-3.76-.4-7.08-1.21-9.96-.81-2.88-2.04-5.14-3.71-6.77s-3.82-2.45-6.44-2.45c-2.49,0-4.49.82-6.03,2.45-1.53,1.63-2.64,3.76-3.33,6.38s-1.03,5.44-1.03,8.44c0,3.68.39,6.98,1.18,9.89.79,2.91,2.01,5.21,3.68,6.89,1.67,1.68,3.82,2.52,6.44,2.52Z" style="fill:#38342a; stroke-width:0px;"/><path d="m369.99,141.83v-1.82l3.79-1.1c.4-.12.73-.33,1-.64.27-.31.4-.68.4-1.12v-31.74c0-.46-.14-.84-.42-1.16-.28-.32-.61-.53-.99-.63l-3.79-1.07v-1.82h17.96c3.24,0,5.9.3,7.98.89,2.08.6,3.69,1.39,4.85,2.37,1.15.99,1.96,2.08,2.42,3.28.46,1.2.69,2.42.69,3.65,0,2.25-.5,4.12-1.51,5.61-1.01,1.49-2.23,2.67-3.68,3.53-1.45.87-2.83,1.49-4.15,1.87l-4.56,3.25-6.74-1.85.24-2.83c.12.06.45.12,1,.18.55.06,1.13.1,1.74.14.62.03,1.08.04,1.4.04,1.63,0,2.97-.42,4.03-1.25,1.05-.84,1.84-1.91,2.36-3.22.52-1.31.78-2.68.78-4.12,0-2.9-.67-5.02-2-6.34-1.33-1.32-3.21-1.98-5.64-1.98h-3.49v33.2c0,.46.11.84.34,1.15s.54.51.94.61l4.41,1.1v1.82h-19.36Zm42,0h-9.55c-1.19,0-2.14-.12-2.83-.36s-1.29-.63-1.78-1.18c-.49-.55-1.03-1.28-1.62-2.19l-8.86-13.96,7.46-2.71,10.2,15.09c.32.46.8.95,1.43,1.46.64.52,1.2.85,1.7.99l3.85,1.04v1.82Z" style="fill:#38342a; stroke-width:0px;"/><path d="m128.63,199.28v-1.82l2.74-1.04c.85-.34,1.44-.93,1.76-1.76l11.84-30.25,3.61-6.86h3.61l14.62,37.11c.16.4.4.76.73,1.07s.67.55,1.03.69l2.74,1.04v1.82h-17.96v-1.82l5.19-1.28-9.67-24.55-1.22-4.03h-.3l-10.83,28.46,5.07,1.4v1.82h-12.98Zm11.78-14.47l1.31-3.28h11.52l1.28,3.28h-14.11Z" style="fill:#38342a; stroke-width:0px;"/><path d="m170.3,199.28v-1.82l3.79-1.1c.44-.12.78-.33,1.03-.64.25-.31.37-.68.37-1.12v-31.74c0-.46-.13-.84-.4-1.16-.27-.32-.6-.53-1-.63l-3.79-1.07v-1.82h19.06v1.82l-3.97,1.07c-.42.12-.76.34-1.03.66s-.4.7-.4,1.13v33.11h14.32c.4,0,.69-.19.88-.57.19-.38.32-.72.4-1.01l2.57-7.88h2v12.77h-33.83Z" style="fill:#38342a; stroke-width:0px;"/><path d="m205.17,199.28v-1.82l3.79-1.1c.44-.12.78-.33,1.03-.64.25-.31.37-.68.37-1.12v-31.74c0-.46-.13-.84-.4-1.16-.27-.32-.6-.53-1-.63l-3.79-1.07v-1.82h19.06v1.82l-3.97,1.07c-.42.12-.76.34-1.03.66s-.4.7-.4,1.13v33.11h14.32c.4,0,.69-.19.88-.57.19-.38.32-.72.4-1.01l2.57-7.88h2v12.77h-33.83Z" style="fill:#38342a; stroke-width:0px;"/><path d="m240.04,199.28v-1.82l3.79-1.1c.4-.12.73-.33,1-.64.27-.31.4-.68.4-1.12v-31.74c0-.46-.13-.84-.4-1.15-.27-.31-.6-.52-1-.64l-3.79-1.07v-1.82h32.99v10.68h-2.09l-2.42-6.35c-.12-.3-.26-.55-.43-.75-.17-.2-.43-.3-.79-.3h-13.6v14.77h8.65c.4,0,.69-.09.86-.27.18-.18.32-.41.42-.69l2-4.89h1.88v15h-1.88l-2-4.83c-.12-.3-.26-.55-.43-.75-.17-.2-.45-.3-.85-.3h-8.65v16.47h16.17c.36,0,.63-.09.81-.28s.32-.44.42-.76l2.3-7.19h2.09v11.55h-35.44Z" style="fill:#38342a; stroke-width:0px;"/><path d="m305.7,194.54v-9.01c0-.46-.12-.83-.36-1.12-.24-.29-.59-.5-1.04-.64l-4.15-1.1v-1.82h19.15v1.82l-3.79,1.1c-.44.12-.78.33-1.03.64-.25.31-.37.68-.37,1.12v8.73c0,1.16.02,2.12.06,2.88-2.03.84-4.5,1.56-7.41,2.16-2.91.61-5.8.91-8.67.91-3.64,0-6.97-.85-9.99-2.55-3.02-1.7-5.44-4.14-7.26-7.32-1.82-3.18-2.73-7.02-2.73-11.51,0-4.26.91-8,2.71-11.23s4.29-5.75,7.43-7.56c3.14-1.81,6.69-2.72,10.65-2.72,2.35,0,4.43.12,6.25.34,1.82.23,3.44.51,4.86.85s2.69.7,3.8,1.07v10.11h-2.06l-2.12-5.34c-.12-.3-.29-.54-.52-.72-.23-.18-.48-.35-.76-.51-1.27-.72-2.86-1.25-4.76-1.61-1.9-.36-3.64-.54-5.24-.54-1.87,0-3.65.63-5.34,1.89-1.69,1.26-3.07,3.15-4.15,5.65-1.07,2.51-1.61,5.65-1.61,9.43,0,3.58.43,6.78,1.28,9.59s2.12,5.03,3.8,6.64c1.68,1.61,3.73,2.42,6.16,2.42,1.05,0,2.06-.12,3.01-.36s1.8-.52,2.54-.85c.74-.33,1.28-.61,1.64-.85Z" style="fill:#38342a; stroke-width:0px;"/><path d="m320.62,199.28v-1.82l3.79-1.1c.44-.12.78-.33,1.03-.64.25-.31.37-.68.37-1.12v-31.74c0-.46-.14-.84-.42-1.16-.28-.32-.61-.53-.99-.63l-3.79-1.07v-1.82h18.85v1.82l-3.76,1.07c-.38.1-.71.31-1,.64-.29.33-.43.71-.43,1.15v31.74c0,.46.13.83.4,1.13s.61.51,1.03.63l3.76,1.1v1.82h-18.85Z" style="fill:#38342a; stroke-width:0px;"/><path d="m338.43,199.28v-1.82l2.74-1.04c.85-.34,1.44-.93,1.76-1.76l11.84-30.25,3.61-6.86h3.61l14.62,37.11c.16.4.4.76.73,1.07s.67.55,1.03.69l2.74,1.04v1.82h-17.96v-1.82l5.19-1.28-9.67-24.55-1.22-4.03h-.3l-10.83,28.46,5.07,1.4v1.82h-12.98Zm11.78-14.47l1.31-3.28h11.52l1.28,3.28h-14.11Z" style="fill:#38342a; stroke-width:0px;"/><path d="m380.1,199.28v-1.82l3.79-1.28c.4-.14.73-.36,1-.67.27-.31.4-.67.4-1.09v-31.44c0-.46-.14-.84-.42-1.15-.28-.31-.61-.51-.99-.61l-4.09-1.22v-1.82h13.07l17.93,25.77,2.8,4.09v-25c0-.46-.12-.83-.36-1.1-.24-.28-.59-.5-1.05-.66l-3.79-1.28v-1.82h14.47v1.82l-3.79,1.28c-.42.14-.76.36-1.03.66-.27.3-.4.67-.4,1.1v29.41l-.89,7.13h-4.71l-19.54-28.07-3.16-4.59v27.5c0,.44.12.8.36,1.09.24.29.59.51,1.05.67l3.79,1.28v1.82h-14.44Z" style="fill:#38342a; stroke-width:0px;"/><path d="m458.2,190.51h1.28v3.25c-1.05.91-2.39,1.86-4,2.85-1.61.98-3.38,1.82-5.3,2.51-1.92.69-3.87,1.03-5.86,1.03-4.02,0-7.5-.86-10.44-2.58-2.94-1.72-5.22-4.18-6.83-7.37s-2.42-6.99-2.42-11.38.87-8.03,2.61-11.25,4.1-5.74,7.09-7.55c2.98-1.81,6.33-2.72,10.05-2.72,1.31,0,2.82.12,4.52.36,1.7.24,3.36.53,4.97.88,1.61.35,2.91.71,3.91,1.09v10.05h-2l-2.21-5.22c-.14-.34-.32-.61-.54-.81-.22-.2-.52-.4-.89-.6-1.13-.66-2.35-1.17-3.64-1.54-1.29-.37-2.67-.55-4.12-.55-3.18,0-5.74,1.45-7.68,4.35-1.94,2.9-2.91,7.08-2.91,12.53s1.13,10,3.4,13.05c2.27,3.05,5.62,4.58,10.05,4.58,1.65,0,3.1-.21,4.36-.63,1.25-.42,2.41-1,3.46-1.76,1.05-.75,2.1-1.62,3.13-2.6Z" style="fill:#38342a; stroke-width:0px;"/><path d="m460.85,199.28v-1.82l3.79-1.1c.4-.12.73-.33,1-.64.27-.31.4-.68.4-1.12v-31.74c0-.46-.14-.84-.4-1.15-.27-.31-.6-.52-1-.64l-3.79-1.07v-1.82h32.99v10.68h-2.09l-2.42-6.35c-.12-.3-.26-.55-.43-.75-.17-.2-.43-.3-.79-.3h-13.6v14.77h8.65c.4,0,.69-.09.87-.27s.32-.41.42-.69l2-4.89h1.88v15h-1.88l-2-4.83c-.12-.3-.26-.55-.43-.75-.17-.2-.45-.3-.85-.3h-8.65v16.47h16.17c.36,0,.63-.09.81-.28.18-.19.32-.44.42-.76l2.3-7.19h2.09v11.55h-35.44Z" style="fill:#38342a; stroke-width:0px;"/><path d="m98.53,156.73c2.8-5.25,2.68-23.69,2.68-23.69,0-49.38-47.6-67.76-47.6-67.76,0,0-47.6,18.38-47.6,67.76,0,0-.12,18.44,2.68,23.69,6.1,11.43,1.12,21.45,1.12,21.45,0,0-3.92,7.49-1.79,14.75,1.55,5.3,4.25,17.88,32.85,41.79v-67.04s-14.23-6.04-24.58-14.52c0,0,.45-9.61,1.79-14.52l29.5,13.41-.89,25.7,6.93,9.16,6.93-9.16-.89-25.7,29.5-13.41c1.34,4.92,1.79,14.52,1.79,14.52-10.35,8.49-24.58,14.52-24.58,14.52v67.04c28.6-23.91,31.3-36.49,32.85-41.79,2.13-7.26-1.79-14.75-1.79-14.75,0,0-4.98-10.02,1.12-21.45Z" style="fill:#ecb61e; stroke-width:0px;"/></svg>